<svg width="1512" height="982" viewBox="0 0 1512 982" fill="none" xmlns="http://www.w3.org/2000/svg">
<g filter="url(#filter0_d_5_33)">
<rect x="45" y="51" width="1422" height="879" rx="20" fill="white"/>
</g>
<rect x="45" y="134" width="1422" height="644" fill="#FEFCD4"/>
<path d="M617.598 106V79.3398H629.414C631.862 79.3398 633.835 79.9193 635.332 81.0781C636.829 82.224 637.578 83.8255 637.578 85.8828C637.578 87.0156 637.357 87.9857 636.914 88.793C636.484 89.6003 635.911 90.2448 635.195 90.7266C634.479 91.2083 633.691 91.5339 632.832 91.7031V91.9961C633.835 92.0612 634.792 92.3411 635.703 92.8359C636.628 93.3177 637.383 94.0273 637.969 94.9648C638.555 95.8893 638.848 97.0482 638.848 98.4414C638.848 100.043 638.438 101.41 637.617 102.543C636.797 103.663 635.684 104.522 634.277 105.121C632.884 105.707 631.322 106 629.59 106H617.598ZM623.965 83.8906V90.1797H627.07C628.06 90.1797 628.867 90.0495 629.492 89.7891C630.117 89.5156 630.579 89.1445 630.879 88.6758C631.178 88.194 631.328 87.6341 631.328 86.9961C631.328 86.0456 631.016 85.2904 630.391 84.7305C629.779 84.1706 628.906 83.8906 627.773 83.8906H623.965ZM623.965 94.3203V101.449H627.441C629.173 101.449 630.423 101.137 631.191 100.512C631.96 99.8737 632.344 99.0078 632.344 97.9141C632.344 97.1849 632.181 96.5534 631.855 96.0195C631.543 95.4727 631.068 95.056 630.43 94.7695C629.805 94.4701 629.023 94.3203 628.086 94.3203H623.965ZM651.309 106.391C649.355 106.391 647.637 106.013 646.152 105.258C644.668 104.49 643.509 103.363 642.676 101.879C641.842 100.382 641.426 98.526 641.426 96.3125V94.6523C641.426 92.4909 641.849 90.681 642.695 89.2227C643.542 87.7513 644.688 86.6445 646.133 85.9023C647.591 85.1471 649.238 84.7695 651.074 84.7695C653.014 84.7695 654.694 85.1732 656.113 85.9805C657.546 86.7878 658.652 87.9401 659.434 89.4375C660.228 90.9219 660.625 92.6927 660.625 94.75V96.8398H647.5V97.543C647.5 98.8711 647.865 99.9128 648.594 100.668C649.336 101.423 650.241 101.801 651.309 101.801C651.934 101.801 652.493 101.703 652.988 101.508C653.483 101.312 653.893 101.033 654.219 100.668C654.544 100.303 654.746 99.8607 654.824 99.3398H660.488C660.41 100.16 660.176 100.987 659.785 101.82C659.395 102.641 658.828 103.396 658.086 104.086C657.357 104.776 656.426 105.336 655.293 105.766C654.173 106.182 652.845 106.391 651.309 106.391ZM647.5 93.2461H654.668C654.668 93.2461 654.668 93.2396 654.668 93.2266C654.668 92.4583 654.518 91.7747 654.219 91.1758C653.932 90.5638 653.522 90.082 652.988 89.7305C652.454 89.3789 651.829 89.2031 651.113 89.2031C650.397 89.2031 649.766 89.3789 649.219 89.7305C648.685 90.082 648.262 90.5638 647.949 91.1758C647.65 91.7747 647.5 92.4583 647.5 93.2266C647.5 93.2396 647.5 93.2461 647.5 93.2461ZM672.129 106V85.1406H678.359V88.207H678.633C678.763 87.7383 679.023 87.25 679.414 86.7422C679.805 86.2214 680.326 85.7786 680.977 85.4141C681.641 85.0365 682.428 84.8477 683.34 84.8477C683.783 84.8477 684.154 84.8607 684.453 84.8867C684.766 84.9128 685.02 84.9583 685.215 85.0234V90.3164C684.993 90.2383 684.674 90.1797 684.258 90.1406C683.841 90.0885 683.398 90.0625 682.93 90.0625C681.862 90.0625 681.003 90.2578 680.352 90.6484C679.714 91.0391 679.251 91.5859 678.965 92.2891C678.678 92.9922 678.535 93.806 678.535 94.7305V106H672.129ZM688.535 106V85.1406H694.766V106H688.535ZM688.281 79.8867C688.281 78.9622 688.613 78.2266 689.277 77.6797C689.941 77.1328 690.736 76.8594 691.66 76.8594C692.585 76.8594 693.372 77.1328 694.023 77.6797C694.688 78.2266 695.02 78.9622 695.02 79.8867C695.02 80.8112 694.688 81.5534 694.023 82.1133C693.372 82.6732 692.585 82.9531 691.66 82.9531C690.736 82.9531 689.941 82.6732 689.277 82.1133C688.613 81.5534 688.281 80.8112 688.281 79.8867ZM708.789 109.262C710.026 109.262 710.977 108.917 711.641 108.227C712.305 107.549 712.637 106.573 712.637 105.297V102.387H712.344C712.161 102.855 711.895 103.292 711.543 103.695C711.191 104.086 710.768 104.431 710.273 104.73C709.779 105.03 709.212 105.264 708.574 105.434C707.949 105.59 707.266 105.668 706.523 105.668C704.974 105.668 703.62 105.297 702.461 104.555C701.302 103.812 700.404 102.706 699.766 101.234C699.128 99.763 698.809 97.9466 698.809 95.7852V94.7695C698.809 92.6081 699.128 90.7982 699.766 89.3398C700.404 87.8815 701.296 86.7812 702.441 86.0391C703.6 85.2839 704.961 84.9062 706.523 84.9062C707.5 84.9062 708.379 85.056 709.16 85.3555C709.954 85.6419 710.625 86.0391 711.172 86.5469C711.719 87.0547 712.122 87.6406 712.383 88.3047H712.676V85.1406H718.848V105.824C718.848 107.309 718.542 108.546 717.93 109.535C717.331 110.538 716.53 111.339 715.527 111.938C714.525 112.549 713.424 112.979 712.227 113.227C711.042 113.487 709.857 113.617 708.672 113.617C706.536 113.617 704.785 113.318 703.418 112.719C702.051 112.133 701.029 111.345 700.352 110.355C699.674 109.379 699.303 108.311 699.238 107.152H705.156C705.273 107.582 705.495 107.953 705.82 108.266C706.146 108.591 706.562 108.839 707.07 109.008C707.578 109.177 708.151 109.262 708.789 109.262ZM708.945 89.75C708.19 89.75 707.533 89.9453 706.973 90.3359C706.413 90.7135 705.977 91.2865 705.664 92.0547C705.365 92.8099 705.215 93.7539 705.215 94.8867V96.0586C705.215 97.1654 705.365 98.1094 705.664 98.8906C705.977 99.6589 706.413 100.238 706.973 100.629C707.533 101.02 708.19 101.215 708.945 101.215C709.701 101.215 710.352 101.02 710.898 100.629C711.445 100.225 711.868 99.6393 712.168 98.8711C712.48 98.1029 712.637 97.1654 712.637 96.0586V94.8867C712.637 93.7669 712.48 92.8294 712.168 92.0742C711.855 91.306 711.426 90.7266 710.879 90.3359C710.332 89.9453 709.688 89.75 708.945 89.75ZM723.535 106V77.9336H729.746V88.3633H730.039C730.234 87.8685 730.573 87.3477 731.055 86.8008C731.536 86.2539 732.181 85.7917 732.988 85.4141C733.796 85.0234 734.779 84.8281 735.938 84.8281C738.021 84.8281 739.714 85.4792 741.016 86.7812C742.318 88.0703 742.969 89.9909 742.969 92.543V106H736.758V94.0078C736.758 92.9922 736.589 92.1979 736.25 91.625C735.924 91.0391 735.495 90.6289 734.961 90.3945C734.44 90.1471 733.88 90.0234 733.281 90.0234C732.591 90.0234 731.973 90.1862 731.426 90.5117C730.892 90.8372 730.475 91.306 730.176 91.918C729.889 92.5169 729.746 93.2331 729.746 94.0664V106H723.535ZM749.043 85.1406V80.2969H755.059V85.1406H759.043V89.8672H755.059V98.9688C755.059 99.8932 755.286 100.538 755.742 100.902C756.198 101.254 756.908 101.43 757.871 101.43C758.118 101.43 758.359 101.43 758.594 101.43C758.828 101.417 758.997 101.404 759.102 101.391V105.902C758.867 105.928 758.503 105.961 758.008 106C757.526 106.052 756.979 106.078 756.367 106.078C754.583 106.078 753.145 105.883 752.051 105.492C750.957 105.089 750.156 104.444 749.648 103.559C749.141 102.673 748.887 101.508 748.887 100.062V89.8672H745.859V85.1406H749.043ZM783.223 106.234C782.246 106.234 781.361 106.091 780.566 105.805C779.785 105.518 779.115 105.115 778.555 104.594C778.008 104.06 777.578 103.441 777.266 102.738H776.992V106H770.801V77.9336H777.031V88.2852H777.324C777.533 87.7773 777.826 87.3216 778.203 86.918C778.581 86.5013 779.023 86.1432 779.531 85.8438C780.052 85.5443 780.625 85.3164 781.25 85.1602C781.875 84.9909 782.539 84.9062 783.242 84.9062C784.805 84.9062 786.159 85.2773 787.305 86.0195C788.464 86.7617 789.362 87.8555 790 89.3008C790.651 90.7461 790.977 92.543 790.977 94.6914V96.4102C790.977 98.5326 790.658 100.323 790.02 101.781C789.382 103.227 788.483 104.333 787.324 105.102C786.165 105.857 784.798 106.234 783.223 106.234ZM780.879 101.41C781.608 101.41 782.246 101.215 782.793 100.824C783.34 100.434 783.77 99.8607 784.082 99.1055C784.395 98.3372 784.551 97.3802 784.551 96.2344V94.9062C784.551 93.7734 784.395 92.8294 784.082 92.0742C783.77 91.306 783.34 90.7266 782.793 90.3359C782.246 89.9453 781.608 89.75 780.879 89.75C780.111 89.75 779.434 89.9453 778.848 90.3359C778.275 90.7135 777.826 91.2865 777.5 92.0547C777.174 92.8099 777.012 93.7604 777.012 94.9062V96.2148C777.012 97.3607 777.174 98.3177 777.5 99.0859C777.826 99.8542 778.275 100.434 778.848 100.824C779.434 101.215 780.111 101.41 780.879 101.41ZM800.625 106.312C798.594 106.312 796.934 105.753 795.645 104.633C794.368 103.513 793.73 101.964 793.73 99.9844C793.73 98.0833 794.368 96.5729 795.645 95.4531C796.934 94.3203 798.796 93.7539 801.23 93.7539H806.074V92.0156C806.074 91.1562 805.82 90.4987 805.312 90.043C804.805 89.5872 804.108 89.3594 803.223 89.3594C802.637 89.3594 802.129 89.4635 801.699 89.6719C801.27 89.8672 800.938 90.1471 800.703 90.5117C800.469 90.8763 800.339 91.293 800.312 91.7617H794.492C794.531 90.9154 794.701 90.082 795 89.2617C795.312 88.4414 795.801 87.6992 796.465 87.0352C797.142 86.3581 798.04 85.8242 799.16 85.4336C800.28 85.0299 801.667 84.8281 803.32 84.8281C804.987 84.8281 806.491 85.082 807.832 85.5898C809.173 86.0846 810.234 86.8659 811.016 87.9336C811.797 88.9883 812.188 90.375 812.188 92.0938V106H806.367V103.5H806.074C805.84 103.982 805.488 104.438 805.02 104.867C804.564 105.284 803.971 105.629 803.242 105.902C802.526 106.176 801.654 106.312 800.625 106.312ZM802.773 101.977C803.359 101.977 803.906 101.866 804.414 101.645C804.922 101.41 805.326 101.085 805.625 100.668C805.924 100.251 806.074 99.763 806.074 99.2031V97.1328H802.871C801.895 97.1328 801.152 97.3542 800.645 97.7969C800.137 98.2266 799.883 98.793 799.883 99.4961C799.883 100.329 800.176 100.954 800.762 101.371C801.361 101.775 802.031 101.977 802.773 101.977ZM815.723 96.2148V94.6914C815.723 92.7383 816.107 91.013 816.875 89.5156C817.656 88.0182 818.763 86.8529 820.195 86.0195C821.641 85.1862 823.372 84.7695 825.391 84.7695C827.24 84.7695 828.828 85.1146 830.156 85.8047C831.484 86.4948 832.513 87.4388 833.242 88.6367C833.971 89.8216 834.349 91.1693 834.375 92.6797H828.75C828.685 92.1068 828.516 91.5859 828.242 91.1172C827.969 90.6484 827.611 90.2773 827.168 90.0039C826.725 89.7174 826.217 89.5742 825.645 89.5742C824.512 89.5742 823.62 90.0365 822.969 90.9609C822.318 91.8724 821.992 93.1224 821.992 94.7109V96.1758C821.992 97.8815 822.318 99.2096 822.969 100.16C823.633 101.111 824.531 101.586 825.664 101.586C826.367 101.586 826.94 101.449 827.383 101.176C827.826 100.902 828.158 100.544 828.379 100.102C828.6 99.6458 828.743 99.1576 828.809 98.6367H834.434C834.342 100.395 833.893 101.846 833.086 102.992C832.279 104.138 831.211 104.991 829.883 105.551C828.555 106.111 827.044 106.391 825.352 106.391C823.398 106.391 821.699 105.987 820.254 105.18C818.822 104.359 817.708 103.194 816.914 101.684C816.12 100.173 815.723 98.3503 815.723 96.2148ZM844.199 99.0859V106H837.969V77.9336H844.199V93.3242H844.492L850.391 85.1406H857.441L850.215 94.1055L857.949 106H850.684L845.41 97.582L844.199 99.0859ZM867.969 90.082C867.969 89.1315 868.307 88.3112 868.984 87.6211C869.674 86.931 870.501 86.5859 871.465 86.5859C872.415 86.5859 873.236 86.931 873.926 87.6211C874.616 88.3112 874.961 89.1315 874.961 90.082C874.961 91.0456 874.616 91.8724 873.926 92.5625C873.236 93.2396 872.415 93.5781 871.465 93.5781C870.501 93.5781 869.674 93.2396 868.984 92.5625C868.307 91.8724 867.969 91.0456 867.969 90.082ZM867.969 102.953C867.969 101.99 868.307 101.169 868.984 100.492C869.674 99.8021 870.501 99.457 871.465 99.457C872.415 99.457 873.236 99.8021 873.926 100.492C874.616 101.169 874.961 101.99 874.961 102.953C874.961 103.904 874.616 104.724 873.926 105.414C873.236 106.104 872.415 106.449 871.465 106.449C870.501 106.449 869.674 106.104 868.984 105.414C868.307 104.724 867.969 103.904 867.969 102.953ZM877.812 77.9336H883.613C884.577 79.1706 885.456 80.5508 886.25 82.0742C887.057 83.5977 887.702 85.388 888.184 87.4453C888.678 89.4896 888.926 91.9115 888.926 94.7109C888.926 97.4974 888.672 99.9974 888.164 102.211C887.656 104.424 887.012 106.358 886.23 108.012C885.449 109.665 884.635 111.039 883.789 112.133H877.852C878.607 110.766 879.342 109.242 880.059 107.562C880.775 105.896 881.361 104.008 881.816 101.898C882.285 99.776 882.52 97.3672 882.52 94.6719C882.52 91.9375 882.266 89.457 881.758 87.2305C881.25 84.9909 880.632 83.0833 879.902 81.5078C879.173 79.9193 878.477 78.7279 877.812 77.9336Z" fill="#525252"/>
<g filter="url(#filter1_i_5_33)">
<rect x="968" y="830" width="261" height="50" rx="10" fill="#FEFCD4"/>
</g>
<path d="M968.592 869V848.062H974.295V851.578H974.413C974.842 850.38 975.571 849.423 976.6 848.707C977.642 847.991 978.866 847.633 980.272 847.633C981.249 847.633 982.127 847.802 982.909 848.141C983.69 848.479 984.347 848.967 984.881 849.605C985.428 850.243 985.812 851.025 986.034 851.949H986.151C986.463 851.064 986.932 850.302 987.557 849.664C988.195 849.013 988.944 848.512 989.803 848.16C990.676 847.809 991.626 847.633 992.655 847.633C994.022 847.633 995.22 847.926 996.249 848.512C997.277 849.098 998.078 849.918 998.651 850.973C999.224 852.027 999.51 853.264 999.51 854.684V869H993.807V856.109C993.807 855.302 993.67 854.618 993.397 854.059C993.137 853.499 992.752 853.076 992.245 852.789C991.75 852.503 991.131 852.359 990.389 852.359C989.673 852.359 989.042 852.522 988.495 852.848C987.961 853.173 987.544 853.629 987.245 854.215C986.945 854.801 986.795 855.484 986.795 856.266V869H981.307V855.934C981.307 855.178 981.17 854.534 980.897 854C980.624 853.466 980.233 853.062 979.725 852.789C979.23 852.503 978.631 852.359 977.928 852.359C977.212 852.359 976.581 852.529 976.034 852.867C975.487 853.206 975.057 853.674 974.745 854.273C974.445 854.872 974.295 855.569 974.295 856.363V869H968.592ZM1003.24 869V848.062H1008.94V869H1003.24ZM1006.09 845.367C1005.23 845.367 1004.51 845.074 1003.92 844.488C1003.34 843.902 1003.05 843.206 1003.05 842.398C1003.05 841.578 1003.34 840.882 1003.92 840.309C1004.51 839.723 1005.23 839.43 1006.09 839.43C1006.95 839.43 1007.67 839.723 1008.26 840.309C1008.85 840.882 1009.14 841.578 1009.14 842.398C1009.14 843.206 1008.85 843.902 1008.26 844.488C1007.67 845.074 1006.95 845.367 1006.09 845.367ZM1021.39 869.43C1019.46 869.43 1017.82 869.15 1016.46 868.59C1015.11 868.03 1014.05 867.255 1013.28 866.266C1012.52 865.263 1012.07 864.104 1011.91 862.789L1011.89 862.613H1017.46L1017.5 862.789C1017.68 863.609 1018.09 864.247 1018.73 864.703C1019.37 865.159 1020.25 865.387 1021.39 865.387C1022.11 865.387 1022.73 865.302 1023.24 865.133C1023.75 864.951 1024.14 864.697 1024.41 864.371C1024.7 864.046 1024.84 863.655 1024.84 863.199V863.18C1024.84 862.62 1024.64 862.171 1024.24 861.832C1023.83 861.493 1023.12 861.207 1022.09 860.973L1018.53 860.23C1017.18 859.944 1016.05 859.534 1015.14 859C1014.24 858.453 1013.56 857.783 1013.1 856.988C1012.65 856.181 1012.42 855.257 1012.42 854.215V854.195C1012.42 852.854 1012.78 851.695 1013.49 850.719C1014.21 849.742 1015.23 848.987 1016.54 848.453C1017.87 847.906 1019.42 847.633 1021.19 847.633C1023.04 847.633 1024.61 847.932 1025.9 848.531C1027.2 849.117 1028.2 849.911 1028.89 850.914C1029.59 851.917 1029.96 853.03 1030 854.254V854.449H1024.74L1024.73 854.293C1024.63 853.538 1024.28 852.913 1023.67 852.418C1023.07 851.91 1022.24 851.656 1021.19 851.656C1020.54 851.656 1019.97 851.747 1019.49 851.93C1019.01 852.112 1018.64 852.372 1018.38 852.711C1018.12 853.036 1017.99 853.427 1017.99 853.883V853.902C1017.99 854.254 1018.07 854.573 1018.24 854.859C1018.42 855.133 1018.72 855.374 1019.14 855.582C1019.56 855.79 1020.12 855.973 1020.82 856.129L1024.37 856.891C1026.57 857.346 1028.15 858.03 1029.1 858.941C1030.06 859.853 1030.55 861.077 1030.55 862.613V862.633C1030.55 864 1030.15 865.191 1029.37 866.207C1028.59 867.223 1027.51 868.017 1026.13 868.59C1024.76 869.15 1023.18 869.43 1021.39 869.43ZM1039.59 869.332C1038.2 869.332 1036.97 869.065 1035.92 868.531C1034.86 867.984 1034.03 867.236 1033.44 866.285C1032.85 865.322 1032.56 864.228 1032.56 863.004V862.965C1032.56 861.689 1032.88 860.602 1033.51 859.703C1034.15 858.792 1035.08 858.076 1036.29 857.555C1037.5 857.034 1038.97 856.715 1040.7 856.598L1048.87 856.09V859.645L1041.56 860.113C1040.47 860.178 1039.63 860.439 1039.06 860.895C1038.49 861.337 1038.2 861.93 1038.2 862.672V862.711C1038.2 863.479 1038.49 864.085 1039.08 864.527C1039.67 864.957 1040.45 865.172 1041.44 865.172C1042.29 865.172 1043.05 865.009 1043.71 864.684C1044.39 864.345 1044.91 863.889 1045.29 863.316C1045.68 862.73 1045.88 862.073 1045.88 861.344V854.996C1045.88 854.072 1045.58 853.342 1045 852.809C1044.41 852.262 1043.56 851.988 1042.44 851.988C1041.37 851.988 1040.53 852.21 1039.9 852.652C1039.28 853.095 1038.89 853.655 1038.75 854.332L1038.71 854.508H1033.49L1033.51 854.273C1033.62 852.984 1034.04 851.839 1034.78 850.836C1035.54 849.833 1036.58 849.052 1037.91 848.492C1039.25 847.919 1040.84 847.633 1042.67 847.633C1044.48 847.633 1046.05 847.926 1047.38 848.512C1048.71 849.085 1049.74 849.898 1050.47 850.953C1051.21 852.008 1051.58 853.238 1051.58 854.645V869H1045.88V865.875H1045.76C1045.37 866.591 1044.86 867.21 1044.24 867.73C1043.62 868.238 1042.93 868.635 1042.15 868.922C1041.37 869.195 1040.51 869.332 1039.59 869.332ZM1055.27 869V848.062H1060.98V851.578H1061.09C1061.52 850.38 1062.25 849.423 1063.28 848.707C1064.32 847.991 1065.55 847.633 1066.95 847.633C1067.93 847.633 1068.81 847.802 1069.59 848.141C1070.37 848.479 1071.03 848.967 1071.56 849.605C1072.11 850.243 1072.49 851.025 1072.71 851.949H1072.83C1073.14 851.064 1073.61 850.302 1074.24 849.664C1074.87 849.013 1075.62 848.512 1076.48 848.16C1077.36 847.809 1078.31 847.633 1079.33 847.633C1080.7 847.633 1081.9 847.926 1082.93 848.512C1083.96 849.098 1084.76 849.918 1085.33 850.973C1085.9 852.027 1086.19 853.264 1086.19 854.684V869H1080.49V856.109C1080.49 855.302 1080.35 854.618 1080.08 854.059C1079.82 853.499 1079.43 853.076 1078.92 852.789C1078.43 852.503 1077.81 852.359 1077.07 852.359C1076.35 852.359 1075.72 852.522 1075.17 852.848C1074.64 853.173 1074.22 853.629 1073.92 854.215C1073.62 854.801 1073.48 855.484 1073.48 856.266V869H1067.99V855.934C1067.99 855.178 1067.85 854.534 1067.58 854C1067.3 853.466 1066.91 853.062 1066.4 852.789C1065.91 852.503 1065.31 852.359 1064.61 852.359C1063.89 852.359 1063.26 852.529 1062.71 852.867C1062.17 853.206 1061.74 853.674 1061.42 854.273C1061.12 854.872 1060.98 855.569 1060.98 856.363V869H1055.27ZM1089.92 869V848.062H1095.62V869H1089.92ZM1092.77 845.367C1091.91 845.367 1091.19 845.074 1090.6 844.488C1090.02 843.902 1089.73 843.206 1089.73 842.398C1089.73 841.578 1090.02 840.882 1090.6 840.309C1091.19 839.723 1091.91 839.43 1092.77 839.43C1093.63 839.43 1094.35 839.723 1094.94 840.309C1095.53 840.882 1095.82 841.578 1095.82 842.398C1095.82 843.206 1095.53 843.902 1094.94 844.488C1094.35 845.074 1093.63 845.367 1092.77 845.367ZM1108.06 869.43C1106.14 869.43 1104.5 869.15 1103.14 868.59C1101.79 868.03 1100.73 867.255 1099.96 866.266C1099.2 865.263 1098.75 864.104 1098.59 862.789L1098.57 862.613H1104.14L1104.18 862.789C1104.36 863.609 1104.77 864.247 1105.41 864.703C1106.05 865.159 1106.93 865.387 1108.06 865.387C1108.79 865.387 1109.41 865.302 1109.92 865.133C1110.43 864.951 1110.82 864.697 1111.09 864.371C1111.38 864.046 1111.52 863.655 1111.52 863.199V863.18C1111.52 862.62 1111.32 862.171 1110.92 861.832C1110.51 861.493 1109.8 861.207 1108.77 860.973L1105.21 860.23C1103.86 859.944 1102.73 859.534 1101.81 859C1100.92 858.453 1100.24 857.783 1099.78 856.988C1099.33 856.181 1099.1 855.257 1099.1 854.215V854.195C1099.1 852.854 1099.46 851.695 1100.17 850.719C1100.89 849.742 1101.91 848.987 1103.22 848.453C1104.55 847.906 1106.1 847.633 1107.87 847.633C1109.72 847.633 1111.29 847.932 1112.58 848.531C1113.88 849.117 1114.87 849.911 1115.56 850.914C1116.27 851.917 1116.64 853.03 1116.68 854.254V854.449H1111.42L1111.4 854.293C1111.31 853.538 1110.96 852.913 1110.35 852.418C1109.75 851.91 1108.92 851.656 1107.87 851.656C1107.22 851.656 1106.65 851.747 1106.17 851.93C1105.69 852.112 1105.32 852.372 1105.06 852.711C1104.8 853.036 1104.67 853.427 1104.67 853.883V853.902C1104.67 854.254 1104.75 854.573 1104.92 854.859C1105.1 855.133 1105.4 855.374 1105.82 855.582C1106.24 855.79 1106.8 855.973 1107.5 856.129L1111.05 856.891C1113.25 857.346 1114.83 858.03 1115.78 858.941C1116.74 859.853 1117.23 861.077 1117.23 862.613V862.633C1117.23 864 1116.83 865.191 1116.05 866.207C1115.27 867.223 1114.19 868.017 1112.81 868.59C1111.44 869.15 1109.86 869.43 1108.06 869.43ZM1126.27 869.332C1124.87 869.332 1123.65 869.065 1122.6 868.531C1121.54 867.984 1120.71 867.236 1120.12 866.285C1119.53 865.322 1119.24 864.228 1119.24 863.004V862.965C1119.24 861.689 1119.56 860.602 1120.19 859.703C1120.83 858.792 1121.76 858.076 1122.97 857.555C1124.18 857.034 1125.65 856.715 1127.38 856.598L1135.55 856.09V859.645L1128.24 860.113C1127.15 860.178 1126.31 860.439 1125.74 860.895C1125.17 861.337 1124.88 861.93 1124.88 862.672V862.711C1124.88 863.479 1125.17 864.085 1125.76 864.527C1126.35 864.957 1127.13 865.172 1128.12 865.172C1128.97 865.172 1129.73 865.009 1130.39 864.684C1131.07 864.345 1131.59 863.889 1131.97 863.316C1132.36 862.73 1132.56 862.073 1132.56 861.344V854.996C1132.56 854.072 1132.26 853.342 1131.68 852.809C1131.09 852.262 1130.24 851.988 1129.12 851.988C1128.05 851.988 1127.21 852.21 1126.58 852.652C1125.96 853.095 1125.57 853.655 1125.43 854.332L1125.39 854.508H1120.17L1120.19 854.273C1120.3 852.984 1120.72 851.839 1121.46 850.836C1122.22 849.833 1123.26 849.052 1124.59 848.492C1125.93 847.919 1127.52 847.633 1129.35 847.633C1131.16 847.633 1132.73 847.926 1134.06 848.512C1135.39 849.085 1136.42 849.898 1137.15 850.953C1137.89 852.008 1138.26 853.238 1138.26 854.645V869H1132.56V865.875H1132.44C1132.05 866.591 1131.54 867.21 1130.92 867.73C1130.3 868.238 1129.61 868.635 1128.83 868.922C1128.05 869.195 1127.19 869.332 1126.27 869.332ZM1144.92 869.332C1144.03 869.332 1143.29 869.026 1142.67 868.414C1142.06 867.802 1141.76 867.053 1141.76 866.168C1141.76 865.283 1142.06 864.534 1142.67 863.922C1143.29 863.31 1144.03 863.004 1144.92 863.004C1145.81 863.004 1146.55 863.31 1147.17 863.922C1147.78 864.534 1148.08 865.283 1148.08 866.168C1148.08 867.053 1147.78 867.802 1147.17 868.414C1146.55 869.026 1145.81 869.332 1144.92 869.332ZM1151.6 875.836V848.062H1157.3V851.715H1157.44C1157.82 850.868 1158.31 850.139 1158.92 849.527C1159.55 848.915 1160.27 848.447 1161.09 848.121C1161.93 847.796 1162.84 847.633 1163.83 847.633C1165.6 847.633 1167.12 848.069 1168.4 848.941C1169.67 849.801 1170.66 851.044 1171.35 852.672C1172.04 854.299 1172.38 856.246 1172.38 858.512V858.531C1172.38 860.797 1172.04 862.743 1171.35 864.371C1170.67 865.999 1169.7 867.249 1168.44 868.121C1167.17 868.993 1165.66 869.43 1163.9 869.43C1162.92 869.43 1162 869.267 1161.15 868.941C1160.3 868.616 1159.57 868.16 1158.94 867.574C1158.32 866.975 1157.81 866.259 1157.42 865.426H1157.3V875.836H1151.6ZM1161.95 864.703C1162.9 864.703 1163.72 864.456 1164.41 863.961C1165.1 863.453 1165.64 862.737 1166.01 861.812C1166.39 860.888 1166.58 859.794 1166.58 858.531V858.512C1166.58 857.236 1166.39 856.135 1166.01 855.211C1165.64 854.286 1165.1 853.583 1164.39 853.102C1163.7 852.607 1162.89 852.359 1161.95 852.359C1161.03 852.359 1160.21 852.613 1159.51 853.121C1158.81 853.616 1158.26 854.326 1157.87 855.25C1157.48 856.161 1157.28 857.255 1157.28 858.531V858.551C1157.28 859.801 1157.48 860.888 1157.87 861.812C1158.27 862.737 1158.82 863.453 1159.51 863.961C1160.21 864.456 1161.03 864.703 1161.95 864.703ZM1175.35 869V848.062H1181.05V851.5H1181.17C1181.72 850.302 1182.52 849.358 1183.59 848.668C1184.66 847.978 1185.98 847.633 1187.56 847.633C1189.86 847.633 1191.64 848.329 1192.89 849.723C1194.15 851.103 1194.78 853.023 1194.78 855.484V869H1189.08V856.656C1189.08 855.289 1188.76 854.234 1188.1 853.492C1187.47 852.737 1186.51 852.359 1185.23 852.359C1184.39 852.359 1183.65 852.555 1183.03 852.945C1182.4 853.323 1181.91 853.857 1181.56 854.547C1181.22 855.237 1181.05 856.044 1181.05 856.969V869H1175.35ZM1208.18 876.266C1206.27 876.266 1204.59 875.999 1203.16 875.465C1201.74 874.944 1200.61 874.234 1199.76 873.336C1198.93 872.438 1198.42 871.428 1198.24 870.309L1198.22 870.133H1203.77L1203.83 870.27C1204.06 870.777 1204.55 871.227 1205.29 871.617C1206.03 872.008 1207 872.203 1208.18 872.203C1209.65 872.203 1210.77 871.852 1211.54 871.148C1212.31 870.445 1212.69 869.508 1212.69 868.336V865.133H1212.58C1212.21 865.862 1211.72 866.493 1211.09 867.027C1210.47 867.561 1209.73 867.978 1208.89 868.277C1208.05 868.564 1207.13 868.707 1206.11 868.707C1204.37 868.707 1202.86 868.29 1201.58 867.457C1200.32 866.624 1199.34 865.432 1198.65 863.883C1197.97 862.32 1197.64 860.458 1197.64 858.297V858.277C1197.64 856.051 1197.98 854.143 1198.67 852.555C1199.37 850.966 1200.36 849.749 1201.64 848.902C1202.92 848.056 1204.44 847.633 1206.21 847.633C1207.2 847.633 1208.1 847.796 1208.92 848.121C1209.74 848.447 1210.46 848.909 1211.07 849.508C1211.7 850.107 1212.2 850.816 1212.58 851.637H1212.69V848.062H1218.4V868.414C1218.4 869.964 1217.98 871.324 1217.15 872.496C1216.33 873.681 1215.15 874.605 1213.61 875.27C1212.09 875.934 1210.28 876.266 1208.18 876.266ZM1208.08 864.527C1209.02 864.527 1209.84 864.28 1210.53 863.785C1211.22 863.29 1211.75 862.587 1212.13 861.676C1212.52 860.764 1212.71 859.684 1212.71 858.434V858.414C1212.71 857.164 1212.52 856.09 1212.13 855.191C1211.75 854.28 1211.21 853.583 1210.51 853.102C1209.82 852.607 1209.01 852.359 1208.08 852.359C1207.15 852.359 1206.33 852.607 1205.62 853.102C1204.92 853.583 1204.38 854.273 1204 855.172C1203.62 856.07 1203.44 857.151 1203.44 858.414V858.434C1203.44 859.684 1203.62 860.764 1204 861.676C1204.38 862.587 1204.92 863.29 1205.62 863.785C1206.33 864.28 1207.15 864.527 1208.08 864.527Z" fill="#4AB21E"/>
<g filter="url(#filter2_i_5_33)">
<rect x="671" y="832" width="178" height="50" rx="10" fill="#FEFCD4"/>
</g>
<path d="M684.346 871.43C682.588 871.43 681.071 870.993 679.795 870.121C678.519 869.249 677.536 867.999 676.846 866.371C676.169 864.743 675.831 862.797 675.831 860.531V860.512C675.831 858.233 676.176 856.286 676.866 854.672C677.556 853.044 678.532 851.801 679.795 850.941C681.071 850.069 682.588 849.633 684.346 849.633C685.336 849.633 686.247 849.796 687.081 850.121C687.914 850.447 688.643 850.915 689.268 851.527C689.906 852.126 690.414 852.849 690.792 853.695H690.909V842.816H696.612V871H690.909V867.426H690.792C690.427 868.259 689.932 868.975 689.307 869.574C688.682 870.16 687.953 870.616 687.12 870.941C686.286 871.267 685.362 871.43 684.346 871.43ZM686.26 866.703C687.185 866.703 687.999 866.456 688.702 865.961C689.405 865.453 689.952 864.737 690.342 863.812C690.733 862.888 690.928 861.794 690.928 860.531V860.512C690.928 859.249 690.726 858.161 690.323 857.25C689.932 856.326 689.385 855.616 688.682 855.121C687.992 854.613 687.185 854.359 686.26 854.359C685.31 854.359 684.489 854.607 683.799 855.102C683.109 855.596 682.575 856.306 682.198 857.23C681.82 858.142 681.631 859.236 681.631 860.512V860.531C681.631 861.794 681.814 862.888 682.178 863.812C682.556 864.737 683.09 865.453 683.78 865.961C684.483 866.456 685.31 866.703 686.26 866.703ZM709.952 871.43C707.816 871.43 705.98 870.993 704.444 870.121C702.907 869.236 701.722 867.979 700.889 866.352C700.069 864.724 699.659 862.797 699.659 860.57V860.551C699.659 858.324 700.069 856.397 700.889 854.77C701.722 853.129 702.888 851.866 704.385 850.98C705.896 850.082 707.673 849.633 709.717 849.633C711.762 849.633 713.526 850.069 715.01 850.941C716.508 851.801 717.66 853.018 718.467 854.594C719.288 856.169 719.698 858.012 719.698 860.121V861.879H702.452V858.285H717.002L714.288 861.645V859.457C714.288 858.233 714.099 857.211 713.721 856.391C713.344 855.557 712.816 854.932 712.139 854.516C711.475 854.099 710.7 853.891 709.815 853.891C708.93 853.891 708.142 854.105 707.452 854.535C706.775 854.965 706.241 855.596 705.85 856.43C705.472 857.25 705.284 858.259 705.284 859.457V861.664C705.284 862.823 705.472 863.812 705.85 864.633C706.241 865.453 706.794 866.085 707.51 866.527C708.226 866.957 709.079 867.172 710.069 867.172C710.85 867.172 711.527 867.048 712.1 866.801C712.673 866.553 713.142 866.241 713.506 865.863C713.871 865.486 714.118 865.102 714.249 864.711L714.288 864.594H719.522L719.463 864.809C719.307 865.577 719.001 866.352 718.545 867.133C718.09 867.914 717.471 868.63 716.69 869.281C715.922 869.932 714.978 870.453 713.858 870.844C712.751 871.234 711.449 871.43 709.952 871.43ZM727.393 871L720.147 850.062H726.241L730.616 865.961H730.733L735.049 850.062H741.006L733.819 871H727.393ZM743.331 862.035V857.055H755.987V862.035H743.331ZM760.342 871V850.062H766.045V853.578H766.163C766.592 852.38 767.321 851.423 768.35 850.707C769.392 849.991 770.616 849.633 772.022 849.633C772.999 849.633 773.877 849.802 774.659 850.141C775.44 850.479 776.097 850.967 776.631 851.605C777.178 852.243 777.562 853.025 777.784 853.949H777.901C778.213 853.064 778.682 852.302 779.307 851.664C779.945 851.013 780.694 850.512 781.553 850.16C782.426 849.809 783.376 849.633 784.405 849.633C785.772 849.633 786.97 849.926 787.999 850.512C789.027 851.098 789.828 851.918 790.401 852.973C790.974 854.027 791.26 855.264 791.26 856.684V871H785.557V858.109C785.557 857.302 785.42 856.618 785.147 856.059C784.887 855.499 784.502 855.076 783.995 854.789C783.5 854.503 782.881 854.359 782.139 854.359C781.423 854.359 780.792 854.522 780.245 854.848C779.711 855.173 779.294 855.629 778.995 856.215C778.695 856.801 778.545 857.484 778.545 858.266V871H773.057V857.934C773.057 857.178 772.92 856.534 772.647 856C772.374 855.466 771.983 855.062 771.475 854.789C770.98 854.503 770.381 854.359 769.678 854.359C768.962 854.359 768.331 854.529 767.784 854.867C767.237 855.206 766.807 855.674 766.495 856.273C766.195 856.872 766.045 857.569 766.045 858.363V871H760.342ZM794.991 871V850.062H800.694V871H794.991ZM797.842 847.367C796.983 847.367 796.26 847.074 795.674 846.488C795.088 845.902 794.795 845.206 794.795 844.398C794.795 843.578 795.088 842.882 795.674 842.309C796.26 841.723 796.983 841.43 797.842 841.43C798.702 841.43 799.424 841.723 800.01 842.309C800.596 842.882 800.889 843.578 800.889 844.398C800.889 845.206 800.596 845.902 800.01 846.488C799.424 847.074 798.702 847.367 797.842 847.367ZM813.135 871.43C811.208 871.43 809.568 871.15 808.213 870.59C806.859 870.03 805.798 869.255 805.03 868.266C804.275 867.263 803.819 866.104 803.663 864.789L803.643 864.613H809.209L809.249 864.789C809.431 865.609 809.841 866.247 810.479 866.703C811.117 867.159 812.002 867.387 813.135 867.387C813.864 867.387 814.483 867.302 814.991 867.133C815.499 866.951 815.889 866.697 816.163 866.371C816.449 866.046 816.592 865.655 816.592 865.199V865.18C816.592 864.62 816.39 864.171 815.987 863.832C815.583 863.493 814.867 863.207 813.838 862.973L810.284 862.23C808.93 861.944 807.797 861.534 806.885 861C805.987 860.453 805.31 859.783 804.854 858.988C804.398 858.181 804.17 857.257 804.17 856.215V856.195C804.17 854.854 804.528 853.695 805.245 852.719C805.961 851.742 806.976 850.987 808.292 850.453C809.62 849.906 811.169 849.633 812.94 849.633C814.789 849.633 816.358 849.932 817.647 850.531C818.949 851.117 819.945 851.911 820.635 852.914C821.338 853.917 821.709 855.03 821.749 856.254V856.449H816.495L816.475 856.293C816.384 855.538 816.032 854.913 815.42 854.418C814.821 853.91 813.995 853.656 812.94 853.656C812.289 853.656 811.722 853.747 811.241 853.93C810.759 854.112 810.388 854.372 810.127 854.711C809.867 855.036 809.737 855.427 809.737 855.883V855.902C809.737 856.254 809.821 856.573 809.991 856.859C810.173 857.133 810.472 857.374 810.889 857.582C811.306 857.79 811.866 857.973 812.569 858.129L816.124 858.891C818.324 859.346 819.9 860.03 820.85 860.941C821.814 861.853 822.295 863.077 822.295 864.613V864.633C822.295 866 821.905 867.191 821.124 868.207C820.342 869.223 819.262 870.017 817.881 870.59C816.514 871.15 814.932 871.43 813.135 871.43ZM831.338 871.332C829.945 871.332 828.721 871.065 827.667 870.531C826.612 869.984 825.785 869.236 825.186 868.285C824.6 867.322 824.307 866.228 824.307 865.004V864.965C824.307 863.689 824.626 862.602 825.264 861.703C825.902 860.792 826.827 860.076 828.038 859.555C829.249 859.034 830.72 858.715 832.452 858.598L840.616 858.09V861.645L833.311 862.113C832.217 862.178 831.384 862.439 830.811 862.895C830.238 863.337 829.952 863.93 829.952 864.672V864.711C829.952 865.479 830.245 866.085 830.831 866.527C831.417 866.957 832.204 867.172 833.194 867.172C834.04 867.172 834.795 867.009 835.459 866.684C836.137 866.345 836.664 865.889 837.042 865.316C837.432 864.73 837.627 864.073 837.627 863.344V856.996C837.627 856.072 837.334 855.342 836.749 854.809C836.163 854.262 835.31 853.988 834.19 853.988C833.122 853.988 832.276 854.21 831.651 854.652C831.026 855.095 830.642 855.655 830.499 856.332L830.459 856.508H825.245L825.264 856.273C825.368 854.984 825.792 853.839 826.534 852.836C827.289 851.833 828.331 851.052 829.659 850.492C831 849.919 832.588 849.633 834.424 849.633C836.234 849.633 837.803 849.926 839.131 850.512C840.459 851.085 841.488 851.898 842.217 852.953C842.959 854.008 843.331 855.238 843.331 856.645V871H837.627V867.875H837.51C837.12 868.591 836.612 869.21 835.987 869.73C835.375 870.238 834.678 870.635 833.897 870.922C833.116 871.195 832.263 871.332 831.338 871.332Z" fill="#4AB21E"/>
<g filter="url(#filter3_i_5_33)">
<rect x="384" y="833" width="162" height="50" rx="10" fill="#FEFCD4"/>
</g>
<path d="M397.346 869.43C395.588 869.43 394.071 868.993 392.795 868.121C391.519 867.249 390.536 865.999 389.846 864.371C389.169 862.743 388.831 860.797 388.831 858.531V858.512C388.831 856.233 389.176 854.286 389.866 852.672C390.556 851.044 391.532 849.801 392.795 848.941C394.071 848.069 395.588 847.633 397.346 847.633C398.336 847.633 399.247 847.796 400.081 848.121C400.914 848.447 401.643 848.915 402.268 849.527C402.906 850.126 403.414 850.849 403.792 851.695H403.909V840.816H409.612V869H403.909V865.426H403.792C403.427 866.259 402.932 866.975 402.307 867.574C401.682 868.16 400.953 868.616 400.12 868.941C399.286 869.267 398.362 869.43 397.346 869.43ZM399.26 864.703C400.185 864.703 400.999 864.456 401.702 863.961C402.405 863.453 402.952 862.737 403.342 861.812C403.733 860.888 403.928 859.794 403.928 858.531V858.512C403.928 857.249 403.726 856.161 403.323 855.25C402.932 854.326 402.385 853.616 401.682 853.121C400.992 852.613 400.185 852.359 399.26 852.359C398.31 852.359 397.489 852.607 396.799 853.102C396.109 853.596 395.575 854.306 395.198 855.23C394.82 856.142 394.631 857.236 394.631 858.512V858.531C394.631 859.794 394.814 860.888 395.178 861.812C395.556 862.737 396.09 863.453 396.78 863.961C397.483 864.456 398.31 864.703 399.26 864.703ZM422.952 869.43C420.816 869.43 418.98 868.993 417.444 868.121C415.907 867.236 414.723 865.979 413.889 864.352C413.069 862.724 412.659 860.797 412.659 858.57V858.551C412.659 856.324 413.069 854.397 413.889 852.77C414.723 851.129 415.888 849.866 417.385 848.98C418.896 848.082 420.673 847.633 422.717 847.633C424.762 847.633 426.526 848.069 428.01 848.941C429.508 849.801 430.66 851.018 431.467 852.594C432.288 854.169 432.698 856.012 432.698 858.121V859.879H415.452V856.285H430.002L427.288 859.645V857.457C427.288 856.233 427.099 855.211 426.721 854.391C426.344 853.557 425.816 852.932 425.139 852.516C424.475 852.099 423.7 851.891 422.815 851.891C421.93 851.891 421.142 852.105 420.452 852.535C419.775 852.965 419.241 853.596 418.85 854.43C418.473 855.25 418.284 856.259 418.284 857.457V859.664C418.284 860.823 418.473 861.812 418.85 862.633C419.241 863.453 419.794 864.085 420.51 864.527C421.226 864.957 422.079 865.172 423.069 865.172C423.85 865.172 424.527 865.048 425.1 864.801C425.673 864.553 426.142 864.241 426.506 863.863C426.871 863.486 427.118 863.102 427.249 862.711L427.288 862.594H432.522L432.463 862.809C432.307 863.577 432.001 864.352 431.545 865.133C431.09 865.914 430.471 866.63 429.69 867.281C428.922 867.932 427.978 868.453 426.858 868.844C425.751 869.234 424.449 869.43 422.952 869.43ZM440.393 869L433.147 848.062H439.241L443.616 863.961H443.733L448.049 848.062H454.006L446.819 869H440.393ZM455.999 869V848.062H461.702V851.578H461.819C462.249 850.38 462.978 849.423 464.006 848.707C465.048 847.991 466.272 847.633 467.678 847.633C468.655 847.633 469.534 847.802 470.315 848.141C471.096 848.479 471.754 848.967 472.288 849.605C472.835 850.243 473.219 851.025 473.44 851.949H473.557C473.87 851.064 474.338 850.302 474.963 849.664C475.601 849.013 476.35 848.512 477.21 848.16C478.082 847.809 479.032 847.633 480.061 847.633C481.428 847.633 482.626 847.926 483.655 848.512C484.683 849.098 485.484 849.918 486.057 850.973C486.63 852.027 486.917 853.264 486.917 854.684V869H481.213V856.109C481.213 855.302 481.077 854.618 480.803 854.059C480.543 853.499 480.159 853.076 479.651 852.789C479.156 852.503 478.538 852.359 477.795 852.359C477.079 852.359 476.448 852.522 475.901 852.848C475.367 853.173 474.95 853.629 474.651 854.215C474.351 854.801 474.202 855.484 474.202 856.266V869H468.713V855.934C468.713 855.178 468.577 854.534 468.303 854C468.03 853.466 467.639 853.062 467.131 852.789C466.637 852.503 466.038 852.359 465.335 852.359C464.618 852.359 463.987 852.529 463.44 852.867C462.893 853.206 462.463 853.674 462.151 854.273C461.851 854.872 461.702 855.569 461.702 856.363V869H455.999ZM490.647 869V848.062H496.35V869H490.647ZM493.499 845.367C492.639 845.367 491.917 845.074 491.331 844.488C490.745 843.902 490.452 843.206 490.452 842.398C490.452 841.578 490.745 840.882 491.331 840.309C491.917 839.723 492.639 839.43 493.499 839.43C494.358 839.43 495.081 839.723 495.667 840.309C496.252 840.882 496.545 841.578 496.545 842.398C496.545 843.206 496.252 843.902 495.667 844.488C495.081 845.074 494.358 845.367 493.499 845.367ZM508.792 869.43C506.864 869.43 505.224 869.15 503.87 868.59C502.515 868.03 501.454 867.255 500.686 866.266C499.931 865.263 499.475 864.104 499.319 862.789L499.299 862.613H504.866L504.905 862.789C505.087 863.609 505.497 864.247 506.135 864.703C506.773 865.159 507.659 865.387 508.792 865.387C509.521 865.387 510.139 865.302 510.647 865.133C511.155 864.951 511.545 864.697 511.819 864.371C512.105 864.046 512.249 863.655 512.249 863.199V863.18C512.249 862.62 512.047 862.171 511.643 861.832C511.239 861.493 510.523 861.207 509.495 860.973L505.94 860.23C504.586 859.944 503.453 859.534 502.542 859C501.643 858.453 500.966 857.783 500.51 856.988C500.055 856.181 499.827 855.257 499.827 854.215V854.195C499.827 852.854 500.185 851.695 500.901 850.719C501.617 849.742 502.633 848.987 503.948 848.453C505.276 847.906 506.825 847.633 508.596 847.633C510.445 847.633 512.014 847.932 513.303 848.531C514.605 849.117 515.601 849.911 516.292 850.914C516.995 851.917 517.366 853.03 517.405 854.254V854.449H512.151L512.131 854.293C512.04 853.538 511.689 852.913 511.077 852.418C510.478 851.91 509.651 851.656 508.596 851.656C507.945 851.656 507.379 851.747 506.897 851.93C506.415 852.112 506.044 852.372 505.784 852.711C505.523 853.036 505.393 853.427 505.393 853.883V853.902C505.393 854.254 505.478 854.573 505.647 854.859C505.829 855.133 506.129 855.374 506.545 855.582C506.962 855.79 507.522 855.973 508.225 856.129L511.78 856.891C513.98 857.346 515.556 858.03 516.506 858.941C517.47 859.853 517.952 861.077 517.952 862.613V862.633C517.952 864 517.561 865.191 516.78 866.207C515.999 867.223 514.918 868.017 513.538 868.59C512.17 869.15 510.588 869.43 508.792 869.43ZM526.995 869.332C525.601 869.332 524.377 869.065 523.323 868.531C522.268 867.984 521.441 867.236 520.842 866.285C520.256 865.322 519.963 864.228 519.963 863.004V862.965C519.963 861.689 520.282 860.602 520.92 859.703C521.558 858.792 522.483 858.076 523.694 857.555C524.905 857.034 526.376 856.715 528.108 856.598L536.272 856.09V859.645L528.967 860.113C527.874 860.178 527.04 860.439 526.467 860.895C525.894 861.337 525.608 861.93 525.608 862.672V862.711C525.608 863.479 525.901 864.085 526.487 864.527C527.073 864.957 527.861 865.172 528.85 865.172C529.696 865.172 530.452 865.009 531.116 864.684C531.793 864.345 532.32 863.889 532.698 863.316C533.088 862.73 533.284 862.073 533.284 861.344V854.996C533.284 854.072 532.991 853.342 532.405 852.809C531.819 852.262 530.966 851.988 529.846 851.988C528.779 851.988 527.932 852.21 527.307 852.652C526.682 853.095 526.298 853.655 526.155 854.332L526.116 854.508H520.901L520.92 854.273C521.025 852.984 521.448 851.839 522.19 850.836C522.945 849.833 523.987 849.052 525.315 848.492C526.656 847.919 528.245 847.633 530.081 847.633C531.89 847.633 533.46 847.926 534.788 848.512C536.116 849.085 537.144 849.898 537.874 850.953C538.616 852.008 538.987 853.238 538.987 854.645V869H533.284V865.875H533.167C532.776 866.591 532.268 867.21 531.643 867.73C531.031 868.238 530.335 868.635 529.553 868.922C528.772 869.195 527.919 869.332 526.995 869.332Z" fill="#4AB21E"/>
<path d="M130 78.25C137.989 78.25 144.453 84.5472 144.453 92.3008C144.453 100.054 137.989 106.352 130 106.352C122.011 106.351 115.547 100.054 115.547 92.3008C115.547 84.5473 122.011 78.2501 130 78.25Z" fill="#FFBD2D" stroke="#DF9C18" stroke-width="0.5"/>
<path d="M175.296 78.25C183.285 78.25 189.749 84.5472 189.75 92.3008C189.75 100.054 183.285 106.352 175.296 106.352C167.308 106.351 160.843 100.054 160.843 92.3008C160.843 84.5473 167.308 78.2501 175.296 78.25Z" fill="#2ACB40" stroke="#29AB2A" stroke-width="0.5"/>
<path d="M84.7031 78.25C92.692 78.25 99.1562 84.5472 99.1562 92.3008C99.1562 100.054 92.6921 106.352 84.7031 106.352C76.7143 106.351 70.25 100.054 70.25 92.3008C70.2501 84.5473 76.7143 78.2501 84.7031 78.25Z" fill="#FE6057" stroke="#F9504A" stroke-width="0.5"/>
<defs>
<filter id="filter0_d_5_33" x="-10" y="-4" width="1532" height="989" filterUnits="userSpaceOnUse" color-interpolation-filters="sRGB">
<feFlood flood-opacity="0" result="BackgroundImageFix"/>
<feColorMatrix in="SourceAlpha" type="matrix" values="0 0 0 0 0 0 0 0 0 0 0 0 0 0 0 0 0 0 127 0" result="hardAlpha"/>
<feMorphology radius="5" operator="dilate" in="SourceAlpha" result="effect1_dropShadow_5_33"/>
<feOffset/>
<feGaussianBlur stdDeviation="25"/>
<feComposite in2="hardAlpha" operator="out"/>
<feColorMatrix type="matrix" values="0 0 0 0 0 0 0 0 0 0 0 0 0 0 0 0 0 0 0.25 0"/>
<feBlend mode="normal" in2="BackgroundImageFix" result="effect1_dropShadow_5_33"/>
<feBlend mode="normal" in="SourceGraphic" in2="effect1_dropShadow_5_33" result="shape"/>
</filter>
<filter id="filter1_i_5_33" x="968" y="830" width="261" height="54" filterUnits="userSpaceOnUse" color-interpolation-filters="sRGB">
<feFlood flood-opacity="0" result="BackgroundImageFix"/>
<feBlend mode="normal" in="SourceGraphic" in2="BackgroundImageFix" result="shape"/>
<feColorMatrix in="SourceAlpha" type="matrix" values="0 0 0 0 0 0 0 0 0 0 0 0 0 0 0 0 0 0 127 0" result="hardAlpha"/>
<feOffset dy="4"/>
<feGaussianBlur stdDeviation="2"/>
<feComposite in2="hardAlpha" operator="arithmetic" k2="-1" k3="1"/>
<feColorMatrix type="matrix" values="0 0 0 0 0 0 0 0 0 0 0 0 0 0 0 0 0 0 0.25 0"/>
<feBlend mode="normal" in2="shape" result="effect1_innerShadow_5_33"/>
</filter>
<filter id="filter2_i_5_33" x="671" y="832" width="178" height="54" filterUnits="userSpaceOnUse" color-interpolation-filters="sRGB">
<feFlood flood-opacity="0" result="BackgroundImageFix"/>
<feBlend mode="normal" in="SourceGraphic" in2="BackgroundImageFix" result="shape"/>
<feColorMatrix in="SourceAlpha" type="matrix" values="0 0 0 0 0 0 0 0 0 0 0 0 0 0 0 0 0 0 127 0" result="hardAlpha"/>
<feOffset dy="4"/>
<feGaussianBlur stdDeviation="2"/>
<feComposite in2="hardAlpha" operator="arithmetic" k2="-1" k3="1"/>
<feColorMatrix type="matrix" values="0 0 0 0 0 0 0 0 0 0 0 0 0 0 0 0 0 0 0.25 0"/>
<feBlend mode="normal" in2="shape" result="effect1_innerShadow_5_33"/>
</filter>
<filter id="filter3_i_5_33" x="384" y="833" width="162" height="54" filterUnits="userSpaceOnUse" color-interpolation-filters="sRGB">
<feFlood flood-opacity="0" result="BackgroundImageFix"/>
<feBlend mode="normal" in="SourceGraphic" in2="BackgroundImageFix" result="shape"/>
<feColorMatrix in="SourceAlpha" type="matrix" values="0 0 0 0 0 0 0 0 0 0 0 0 0 0 0 0 0 0 127 0" result="hardAlpha"/>
<feOffset dy="4"/>
<feGaussianBlur stdDeviation="2"/>
<feComposite in2="hardAlpha" operator="arithmetic" k2="-1" k3="1"/>
<feColorMatrix type="matrix" values="0 0 0 0 0 0 0 0 0 0 0 0 0 0 0 0 0 0 0.25 0"/>
<feBlend mode="normal" in2="shape" result="effect1_innerShadow_5_33"/>
</filter>
</defs>
</svg>
