<svg width="919" height="288" viewBox="0 0 919 288" fill="none" xmlns="http://www.w3.org/2000/svg">
<rect x="7.5" y="123.5" width="904" height="157" rx="42.5" fill="#E5D2AB" stroke="#976C50" stroke-width="15"/>
<rect x="48" y="168" width="63" height="41" fill="white"/>
<rect x="46" y="199" width="65" height="14" fill="white"/>
<rect x="46" y="213" width="60" height="10" fill="white"/>
<rect x="48" y="213" width="34" height="21" fill="white"/>
<path d="M40 160L33 176.62V237H54V248.667H65.6667L77.3333 237H93.6667L117 213.667V160H40ZM107.667 209L96 220.667H75L63.3333 232.333V220.667H49.3333V169.333H107.667V209Z" fill="#8E24AA"/>
<path d="M93.6666 206.667H82V183.333H93.6666V206.667Z" fill="#8E24AA"/>
<path d="M75 206.667H63.3333V183.333H75V206.667Z" fill="#8E24AA"/>
<path fill-rule="evenodd" clip-rule="evenodd" d="M329.124 160H393.874C400.571 160 406 165.429 406 172.124V236.874C406 243.571 400.571 249 393.876 249H329.124C322.429 249 317 243.571 317 236.876V172.124C317 165.429 322.429 160 329.124 160Z" fill="#212121"/>
<path fill-rule="evenodd" clip-rule="evenodd" d="M374.375 196.112C378.272 198.895 383.045 200.532 388.2 200.532V190.616C387.223 190.616 386.252 190.515 385.298 190.312V198.117C380.143 198.117 375.372 196.478 371.473 193.696V213.929C371.473 224.05 363.263 232.256 353.136 232.256C349.359 232.256 345.846 231.113 342.929 229.155C346.259 232.557 350.902 234.669 356.039 234.669C366.165 234.669 374.375 226.463 374.375 216.342V196.112ZM377.958 186.109C375.967 183.936 374.66 181.125 374.375 178.018V176.742H371.624C372.316 180.69 374.679 184.065 377.958 186.109ZM349.334 221.39C348.222 219.932 347.621 218.149 347.623 216.315C347.623 211.684 351.379 207.931 356.012 207.931C356.874 207.931 357.732 208.062 358.556 208.325V198.188C357.594 198.057 356.625 198.001 355.653 198.02V205.909C354.83 205.647 353.972 205.516 353.107 205.516C348.474 205.516 344.719 209.269 344.719 213.899C344.721 217.175 346.597 220.011 349.334 221.39Z" fill="#EC407A"/>
<path fill-rule="evenodd" clip-rule="evenodd" d="M371.473 193.696C375.369 196.48 380.143 198.117 385.298 198.117V190.312C382.42 189.699 379.874 188.196 377.958 186.107C374.679 184.062 372.318 180.69 371.626 176.742H364.4V216.342C364.383 220.958 360.635 224.696 356.012 224.696C353.287 224.696 350.867 223.398 349.334 221.388C346.597 220.008 344.721 217.173 344.721 213.899C344.721 209.269 348.476 205.516 353.109 205.516C353.997 205.516 354.852 205.655 355.656 205.909V198.023C345.707 198.228 337.707 206.352 337.707 216.344C337.707 221.333 339.7 225.855 342.934 229.158C345.851 231.116 349.364 232.258 353.141 232.258C363.268 232.258 371.478 224.053 371.478 213.932L371.473 193.696Z" fill="white"/>
<path fill-rule="evenodd" clip-rule="evenodd" d="M385.298 190.314V188.203C382.702 188.208 380.16 187.481 377.958 186.107C379.906 188.24 382.472 189.711 385.298 190.314ZM371.624 176.742C371.557 176.364 371.508 175.985 371.473 175.602V174.327H361.495V213.929C361.48 218.545 357.73 222.283 353.107 222.283C351.75 222.283 350.469 221.961 349.334 221.388C350.867 223.398 353.287 224.696 356.012 224.696C360.635 224.696 364.383 220.958 364.4 216.342V176.742H371.624ZM355.653 198.023V195.776C354.82 195.662 353.979 195.605 353.136 195.605C343.008 195.605 334.8 203.81 334.8 213.932C334.8 220.278 338.026 225.87 342.929 229.158C339.695 225.855 337.702 221.333 337.702 216.344C337.702 206.352 345.705 198.228 355.653 198.023Z" fill="#81D4FA"/>
<path d="M675.252 248.953L625.834 249C614.962 249.01 606.059 240.124 606.047 229.252L606 179.834C605.99 168.962 614.876 160.059 625.748 160.047L675.166 160C686.038 159.99 694.941 168.876 694.953 179.748L695 229.166C695.012 240.04 686.124 248.943 675.252 248.953Z" fill="url(#paint0_radial_29_224)"/>
<path d="M675.252 248.953L625.834 249C614.962 249.01 606.059 240.124 606.047 229.252L606 179.834C605.99 168.962 614.876 160.059 625.748 160.047L675.166 160C686.038 159.99 694.941 168.876 694.953 179.748L695 229.166C695.012 240.04 686.124 248.943 675.252 248.953Z" fill="url(#paint1_radial_29_224)"/>
<path d="M650.501 221.798C640.966 221.798 633.205 214.039 633.205 204.501C633.205 194.964 640.966 187.205 650.501 187.205C660.037 187.205 667.798 194.964 667.798 204.501C667.798 214.039 660.037 221.798 650.501 221.798ZM650.501 192.147C643.689 192.147 638.147 197.689 638.147 204.501C638.147 211.314 643.689 216.856 650.501 216.856C657.314 216.856 662.856 211.314 662.856 204.501C662.856 197.689 657.314 192.147 650.501 192.147Z" fill="white"/>
<path d="M669.033 189.676C671.08 189.676 672.739 188.016 672.739 185.969C672.739 183.922 671.08 182.263 669.033 182.263C666.986 182.263 665.327 183.922 665.327 185.969C665.327 188.016 666.986 189.676 669.033 189.676Z" fill="white"/>
<path d="M665.327 236.623H635.676C626.14 236.623 618.379 228.865 618.379 219.327V189.676C618.379 180.138 626.14 172.379 635.676 172.379H665.327C674.862 172.379 682.623 180.138 682.623 189.676V219.327C682.623 228.865 674.862 236.623 665.327 236.623ZM635.676 177.321C628.863 177.321 623.321 182.863 623.321 189.676V219.327C623.321 226.139 628.863 231.681 635.676 231.681H665.327C672.139 231.681 677.681 226.139 677.681 219.327V189.676C677.681 182.863 672.139 177.321 665.327 177.321H635.676Z" fill="white"/>
<g filter="url(#filter0_i_29_224)">
<rect x="127" y="177" width="179" height="55" rx="10" fill="white"/>
</g>
<path d="M138.695 217V195.262H145.609V198.719H145.98C146.879 196.199 149.223 194.754 152.074 194.754C155.043 194.754 157.289 196.219 158.129 198.855H158.5C159.398 196.375 161.938 194.754 165.004 194.754C169.281 194.754 172.113 197.684 172.113 202.137V217H165.18V203.895C165.18 201.551 164.145 200.379 162.055 200.379C160.082 200.379 158.852 201.824 158.852 203.953V217H151.938V203.777C151.938 201.59 150.824 200.379 148.832 200.379C146.898 200.379 145.609 201.883 145.609 204.07V217H138.695ZM180.766 192.352C178.754 192.352 177.094 190.77 177.094 188.758C177.094 186.746 178.754 185.145 180.766 185.145C182.777 185.145 184.438 186.746 184.438 188.758C184.438 190.77 182.777 192.352 180.766 192.352ZM177.289 217V195.262H184.223V217H177.289ZM198.871 217.508C192.426 217.508 189.047 214.695 188.617 210.906V210.77H195.336L195.375 210.887C195.785 212 196.879 212.84 198.891 212.84C200.746 212.84 201.938 212.117 201.938 210.945V210.926C201.938 209.91 201.195 209.324 199.223 208.914L195.473 208.172C191.273 207.332 189.125 205.145 189.125 201.824V201.805C189.125 197.469 192.836 194.754 198.676 194.754C204.965 194.754 208.129 197.879 208.246 201.355V201.453H201.918L201.879 201.316C201.664 200.418 200.59 199.402 198.676 199.402C196.957 199.402 195.805 200.125 195.805 201.336V201.375C195.805 202.352 196.469 202.918 198.539 203.348L202.289 204.09C206.781 204.988 208.832 206.824 208.832 210.086V210.105C208.832 214.617 204.77 217.508 198.871 217.508ZM219.086 217.332C214.926 217.332 212.074 214.734 212.074 210.77V210.73C212.074 206.785 215.16 204.5 220.766 204.148L225.512 203.875V202.176C225.512 200.711 224.418 199.832 222.504 199.832C220.688 199.832 219.574 200.438 219.164 201.531L219.125 201.629H212.855L212.875 201.395C213.266 197.391 217.016 194.754 222.895 194.754C228.891 194.754 232.309 197.488 232.309 202.176V217H225.512V214.305H225.141C224.184 216.16 221.859 217.332 219.086 217.332ZM218.734 210.281C218.734 211.648 219.887 212.508 221.625 212.508C223.812 212.508 225.512 211.062 225.512 209.188V207.762L221.859 207.996C219.809 208.133 218.734 208.953 218.734 210.242V210.281ZM241.02 192.352C239.027 192.352 237.348 190.77 237.348 188.758C237.348 186.746 239.027 185.145 241.02 185.145C243.051 185.145 244.691 186.746 244.691 188.758C244.691 190.77 243.051 192.352 241.02 192.352ZM236.234 224.383C235.57 224.383 234.633 224.324 234.223 224.285V219.305C234.457 219.344 234.75 219.344 235.043 219.344C236.82 219.344 237.562 218.758 237.562 217.273V195.262H244.496V217.527C244.496 221.961 241.527 224.383 236.234 224.383ZM259.145 217.508C252.699 217.508 249.32 214.695 248.891 210.906V210.77H255.609L255.648 210.887C256.059 212 257.152 212.84 259.164 212.84C261.02 212.84 262.211 212.117 262.211 210.945V210.926C262.211 209.91 261.469 209.324 259.496 208.914L255.746 208.172C251.547 207.332 249.398 205.145 249.398 201.824V201.805C249.398 197.469 253.109 194.754 258.949 194.754C265.238 194.754 268.402 197.879 268.52 201.355V201.453H262.191L262.152 201.316C261.938 200.418 260.863 199.402 258.949 199.402C257.23 199.402 256.078 200.125 256.078 201.336V201.375C256.078 202.352 256.742 202.918 258.812 203.348L262.562 204.09C267.055 204.988 269.105 206.824 269.105 210.086V210.105C269.105 214.617 265.043 217.508 259.145 217.508ZM271.078 217L277.582 206.316L271.039 195.262H278.91L282.094 202.039H282.465L285.668 195.262H293.148L286.586 206.023L293.168 217H285.629L282.133 210.34H281.742L278.266 217H271.078Z" fill="black"/>
<g filter="url(#filter1_i_29_224)">
<rect x="416" y="177" width="179" height="55" rx="10" fill="white"/>
</g>
<path d="M427.695 217V195.262H434.609V198.719H434.98C435.879 196.199 438.223 194.754 441.074 194.754C444.043 194.754 446.289 196.219 447.129 198.855H447.5C448.398 196.375 450.938 194.754 454.004 194.754C458.281 194.754 461.113 197.684 461.113 202.137V217H454.18V203.895C454.18 201.551 453.145 200.379 451.055 200.379C449.082 200.379 447.852 201.824 447.852 203.953V217H440.938V203.777C440.938 201.59 439.824 200.379 437.832 200.379C435.898 200.379 434.609 201.883 434.609 204.07V217H427.695ZM469.766 192.352C467.754 192.352 466.094 190.77 466.094 188.758C466.094 186.746 467.754 185.145 469.766 185.145C471.777 185.145 473.438 186.746 473.438 188.758C473.438 190.77 471.777 192.352 469.766 192.352ZM466.289 217V195.262H473.223V217H466.289ZM487.871 217.508C481.426 217.508 478.047 214.695 477.617 210.906V210.77H484.336L484.375 210.887C484.785 212 485.879 212.84 487.891 212.84C489.746 212.84 490.938 212.117 490.938 210.945V210.926C490.938 209.91 490.195 209.324 488.223 208.914L484.473 208.172C480.273 207.332 478.125 205.145 478.125 201.824V201.805C478.125 197.469 481.836 194.754 487.676 194.754C493.965 194.754 497.129 197.879 497.246 201.355V201.453H490.918L490.879 201.316C490.664 200.418 489.59 199.402 487.676 199.402C485.957 199.402 484.805 200.125 484.805 201.336V201.375C484.805 202.352 485.469 202.918 487.539 203.348L491.289 204.09C495.781 204.988 497.832 206.824 497.832 210.086V210.105C497.832 214.617 493.77 217.508 487.871 217.508ZM508.086 217.332C503.926 217.332 501.074 214.734 501.074 210.77V210.73C501.074 206.785 504.16 204.5 509.766 204.148L514.512 203.875V202.176C514.512 200.711 513.418 199.832 511.504 199.832C509.688 199.832 508.574 200.438 508.164 201.531L508.125 201.629H501.855L501.875 201.395C502.266 197.391 506.016 194.754 511.895 194.754C517.891 194.754 521.309 197.488 521.309 202.176V217H514.512V214.305H514.141C513.184 216.16 510.859 217.332 508.086 217.332ZM507.734 210.281C507.734 211.648 508.887 212.508 510.625 212.508C512.812 212.508 514.512 211.062 514.512 209.188V207.762L510.859 207.996C508.809 208.133 507.734 208.953 507.734 210.242V210.281ZM530.02 192.352C528.027 192.352 526.348 190.77 526.348 188.758C526.348 186.746 528.027 185.145 530.02 185.145C532.051 185.145 533.691 186.746 533.691 188.758C533.691 190.77 532.051 192.352 530.02 192.352ZM525.234 224.383C524.57 224.383 523.633 224.324 523.223 224.285V219.305C523.457 219.344 523.75 219.344 524.043 219.344C525.82 219.344 526.562 218.758 526.562 217.273V195.262H533.496V217.527C533.496 221.961 530.527 224.383 525.234 224.383ZM548.145 217.508C541.699 217.508 538.32 214.695 537.891 210.906V210.77H544.609L544.648 210.887C545.059 212 546.152 212.84 548.164 212.84C550.02 212.84 551.211 212.117 551.211 210.945V210.926C551.211 209.91 550.469 209.324 548.496 208.914L544.746 208.172C540.547 207.332 538.398 205.145 538.398 201.824V201.805C538.398 197.469 542.109 194.754 547.949 194.754C554.238 194.754 557.402 197.879 557.52 201.355V201.453H551.191L551.152 201.316C550.938 200.418 549.863 199.402 547.949 199.402C546.23 199.402 545.078 200.125 545.078 201.336V201.375C545.078 202.352 545.742 202.918 547.812 203.348L551.562 204.09C556.055 204.988 558.105 206.824 558.105 210.086V210.105C558.105 214.617 554.043 217.508 548.145 217.508ZM560.078 217L566.582 206.316L560.039 195.262H567.91L571.094 202.039H571.465L574.668 195.262H582.148L575.586 206.023L582.168 217H574.629L571.133 210.34H570.742L567.266 217H560.078Z" fill="black"/>
<g filter="url(#filter2_i_29_224)">
<rect x="706" y="177" width="179" height="55" rx="10" fill="white"/>
</g>
<path d="M717.695 217V195.262H724.609V198.719H724.98C725.879 196.199 728.223 194.754 731.074 194.754C734.043 194.754 736.289 196.219 737.129 198.855H737.5C738.398 196.375 740.938 194.754 744.004 194.754C748.281 194.754 751.113 197.684 751.113 202.137V217H744.18V203.895C744.18 201.551 743.145 200.379 741.055 200.379C739.082 200.379 737.852 201.824 737.852 203.953V217H730.938V203.777C730.938 201.59 729.824 200.379 727.832 200.379C725.898 200.379 724.609 201.883 724.609 204.07V217H717.695ZM759.766 192.352C757.754 192.352 756.094 190.77 756.094 188.758C756.094 186.746 757.754 185.145 759.766 185.145C761.777 185.145 763.438 186.746 763.438 188.758C763.438 190.77 761.777 192.352 759.766 192.352ZM756.289 217V195.262H763.223V217H756.289ZM777.871 217.508C771.426 217.508 768.047 214.695 767.617 210.906V210.77H774.336L774.375 210.887C774.785 212 775.879 212.84 777.891 212.84C779.746 212.84 780.938 212.117 780.938 210.945V210.926C780.938 209.91 780.195 209.324 778.223 208.914L774.473 208.172C770.273 207.332 768.125 205.145 768.125 201.824V201.805C768.125 197.469 771.836 194.754 777.676 194.754C783.965 194.754 787.129 197.879 787.246 201.355V201.453H780.918L780.879 201.316C780.664 200.418 779.59 199.402 777.676 199.402C775.957 199.402 774.805 200.125 774.805 201.336V201.375C774.805 202.352 775.469 202.918 777.539 203.348L781.289 204.09C785.781 204.988 787.832 206.824 787.832 210.086V210.105C787.832 214.617 783.77 217.508 777.871 217.508ZM798.086 217.332C793.926 217.332 791.074 214.734 791.074 210.77V210.73C791.074 206.785 794.16 204.5 799.766 204.148L804.512 203.875V202.176C804.512 200.711 803.418 199.832 801.504 199.832C799.688 199.832 798.574 200.438 798.164 201.531L798.125 201.629H791.855L791.875 201.395C792.266 197.391 796.016 194.754 801.895 194.754C807.891 194.754 811.309 197.488 811.309 202.176V217H804.512V214.305H804.141C803.184 216.16 800.859 217.332 798.086 217.332ZM797.734 210.281C797.734 211.648 798.887 212.508 800.625 212.508C802.812 212.508 804.512 211.062 804.512 209.188V207.762L800.859 207.996C798.809 208.133 797.734 208.953 797.734 210.242V210.281ZM820.02 192.352C818.027 192.352 816.348 190.77 816.348 188.758C816.348 186.746 818.027 185.145 820.02 185.145C822.051 185.145 823.691 186.746 823.691 188.758C823.691 190.77 822.051 192.352 820.02 192.352ZM815.234 224.383C814.57 224.383 813.633 224.324 813.223 224.285V219.305C813.457 219.344 813.75 219.344 814.043 219.344C815.82 219.344 816.562 218.758 816.562 217.273V195.262H823.496V217.527C823.496 221.961 820.527 224.383 815.234 224.383ZM838.145 217.508C831.699 217.508 828.32 214.695 827.891 210.906V210.77H834.609L834.648 210.887C835.059 212 836.152 212.84 838.164 212.84C840.02 212.84 841.211 212.117 841.211 210.945V210.926C841.211 209.91 840.469 209.324 838.496 208.914L834.746 208.172C830.547 207.332 828.398 205.145 828.398 201.824V201.805C828.398 197.469 832.109 194.754 837.949 194.754C844.238 194.754 847.402 197.879 847.52 201.355V201.453H841.191L841.152 201.316C840.938 200.418 839.863 199.402 837.949 199.402C836.23 199.402 835.078 200.125 835.078 201.336V201.375C835.078 202.352 835.742 202.918 837.812 203.348L841.562 204.09C846.055 204.988 848.105 206.824 848.105 210.086V210.105C848.105 214.617 844.043 217.508 838.145 217.508ZM850.078 217L856.582 206.316L850.039 195.262H857.91L861.094 202.039H861.465L864.668 195.262H872.148L865.586 206.023L872.168 217H864.629L861.133 210.34H860.742L857.266 217H850.078Z" fill="black"/>
<mask id="path-24-outside-1_29_224" maskUnits="userSpaceOnUse" x="238" y="40" width="408" height="104" fill="black">
<rect fill="white" x="238" y="40" width="408" height="104"/>
<path d="M250 132V52H282V68H314V52H346V132H314V100H282V132H250ZM378 132V52H410V132H378ZM442 132V116H490V100H458V84H442V68H458V52H522V68H474V84H506V100H522V116H506V132H442ZM554 132V68H570V52H618V68H634V132H602V100H586V132H554ZM586 84H602V68.64H586V84Z"/>
</mask>
<path d="M250 132V52H282V68H314V52H346V132H314V100H282V132H250ZM378 132V52H410V132H378ZM442 132V116H490V100H458V84H442V68H458V52H522V68H474V84H506V100H522V116H506V132H442ZM554 132V68H570V52H618V68H634V132H602V100H586V132H554ZM586 84H602V68.64H586V84Z" fill="#976C50"/>
<path d="M250 132H238V144H250V132ZM250 52V40H238V52H250ZM282 52H294V40H282V52ZM282 68H270V80H282V68ZM314 68V80H326V68H314ZM314 52V40H302V52H314ZM346 52H358V40H346V52ZM346 132V144H358V132H346ZM314 132H302V144H314V132ZM314 100H326V88H314V100ZM282 100V88H270V100H282ZM282 132V144H294V132H282ZM250 132H262V52H250H238V132H250ZM250 52V64H282V52V40H250V52ZM282 52H270V68H282H294V52H282ZM282 68V80H314V68V56H282V68ZM314 68H326V52H314H302V68H314ZM314 52V64H346V52V40H314V52ZM346 52H334V132H346H358V52H346ZM346 132V120H314V132V144H346V132ZM314 132H326V100H314H302V132H314ZM314 100V88H282V100V112H314V100ZM282 100H270V132H282H294V100H282ZM282 132V120H250V132V144H282V132ZM378 132H366V144H378V132ZM378 52V40H366V52H378ZM410 52H422V40H410V52ZM410 132V144H422V132H410ZM378 132H390V52H378H366V132H378ZM378 52V64H410V52V40H378V52ZM410 52H398V132H410H422V52H410ZM410 132V120H378V132V144H410V132ZM442 132H430V144H442V132ZM442 116V104H430V116H442ZM490 116V128H502V116H490ZM490 100H502V88H490V100ZM458 100H446V112H458V100ZM458 84H470V72H458V84ZM442 84H430V96H442V84ZM442 68V56H430V68H442ZM458 68V80H470V68H458ZM458 52V40H446V52H458ZM522 52H534V40H522V52ZM522 68V80H534V68H522ZM474 68V56H462V68H474ZM474 84H462V96H474V84ZM506 84H518V72H506V84ZM506 100H494V112H506V100ZM522 100H534V88H522V100ZM522 116V128H534V116H522ZM506 116V104H494V116H506ZM506 132V144H518V132H506ZM442 132H454V116H442H430V132H442ZM442 116V128H490V116V104H442V116ZM490 116H502V100H490H478V116H490ZM490 100V88H458V100V112H490V100ZM458 100H470V84H458H446V100H458ZM458 84V72H442V84V96H458V84ZM442 84H454V68H442H430V84H442ZM442 68V80H458V68V56H442V68ZM458 68H470V52H458H446V68H458ZM458 52V64H522V52V40H458V52ZM522 52H510V68H522H534V52H522ZM522 68V56H474V68V80H522V68ZM474 68H462V84H474H486V68H474ZM474 84V96H506V84V72H474V84ZM506 84H494V100H506H518V84H506ZM506 100V112H522V100V88H506V100ZM522 100H510V116H522H534V100H522ZM522 116V104H506V116V128H522V116ZM506 116H494V132H506H518V116H506ZM506 132V120H442V132V144H506V132ZM554 132H542V144H554V132ZM554 68V56H542V68H554ZM570 68V80H582V68H570ZM570 52V40H558V52H570ZM618 52H630V40H618V52ZM618 68H606V80H618V68ZM634 68H646V56H634V68ZM634 132V144H646V132H634ZM602 132H590V144H602V132ZM602 100H614V88H602V100ZM586 100V88H574V100H586ZM586 132V144H598V132H586ZM586 84H574V96H586V84ZM602 84V96H614V84H602ZM602 68.64H614V56.64H602V68.64ZM586 68.64V56.64H574V68.64H586ZM554 132H566V68H554H542V132H554ZM554 68V80H570V68V56H554V68ZM570 68H582V52H570H558V68H570ZM570 52V64H618V52V40H570V52ZM618 52H606V68H618H630V52H618ZM618 68V80H634V68V56H618V68ZM634 68H622V132H634H646V68H634ZM634 132V120H602V132V144H634V132ZM602 132H614V100H602H590V132H602ZM602 100V88H586V100V112H602V100ZM586 100H574V132H586H598V100H586ZM586 132V120H554V132V144H586V132ZM586 84V96H602V84V72H586V84ZM602 84H614V68.64H602H590V84H602ZM602 68.64V56.64H586V68.64V80.64H602V68.64ZM586 68.64H574V84H586H598V68.64H586Z" fill="#2F1C11" mask="url(#path-24-outside-1_29_224)"/>
<defs>
<filter id="filter0_i_29_224" x="127" y="177" width="179" height="57" filterUnits="userSpaceOnUse" color-interpolation-filters="sRGB">
<feFlood flood-opacity="0" result="BackgroundImageFix"/>
<feBlend mode="normal" in="SourceGraphic" in2="BackgroundImageFix" result="shape"/>
<feColorMatrix in="SourceAlpha" type="matrix" values="0 0 0 0 0 0 0 0 0 0 0 0 0 0 0 0 0 0 127 0" result="hardAlpha"/>
<feOffset dy="4"/>
<feGaussianBlur stdDeviation="1"/>
<feComposite in2="hardAlpha" operator="arithmetic" k2="-1" k3="1"/>
<feColorMatrix type="matrix" values="0 0 0 0 0 0 0 0 0 0 0 0 0 0 0 0 0 0 0.5 0"/>
<feBlend mode="normal" in2="shape" result="effect1_innerShadow_29_224"/>
</filter>
<filter id="filter1_i_29_224" x="416" y="177" width="179" height="57" filterUnits="userSpaceOnUse" color-interpolation-filters="sRGB">
<feFlood flood-opacity="0" result="BackgroundImageFix"/>
<feBlend mode="normal" in="SourceGraphic" in2="BackgroundImageFix" result="shape"/>
<feColorMatrix in="SourceAlpha" type="matrix" values="0 0 0 0 0 0 0 0 0 0 0 0 0 0 0 0 0 0 127 0" result="hardAlpha"/>
<feOffset dy="4"/>
<feGaussianBlur stdDeviation="1"/>
<feComposite in2="hardAlpha" operator="arithmetic" k2="-1" k3="1"/>
<feColorMatrix type="matrix" values="0 0 0 0 0 0 0 0 0 0 0 0 0 0 0 0 0 0 0.5 0"/>
<feBlend mode="normal" in2="shape" result="effect1_innerShadow_29_224"/>
</filter>
<filter id="filter2_i_29_224" x="706" y="177" width="179" height="57" filterUnits="userSpaceOnUse" color-interpolation-filters="sRGB">
<feFlood flood-opacity="0" result="BackgroundImageFix"/>
<feBlend mode="normal" in="SourceGraphic" in2="BackgroundImageFix" result="shape"/>
<feColorMatrix in="SourceAlpha" type="matrix" values="0 0 0 0 0 0 0 0 0 0 0 0 0 0 0 0 0 0 127 0" result="hardAlpha"/>
<feOffset dy="4"/>
<feGaussianBlur stdDeviation="1"/>
<feComposite in2="hardAlpha" operator="arithmetic" k2="-1" k3="1"/>
<feColorMatrix type="matrix" values="0 0 0 0 0 0 0 0 0 0 0 0 0 0 0 0 0 0 0.5 0"/>
<feBlend mode="normal" in2="shape" result="effect1_innerShadow_29_224"/>
</filter>
<radialGradient id="paint0_radial_29_224" cx="0" cy="0" r="1" gradientUnits="userSpaceOnUse" gradientTransform="translate(639.086 249.064) scale(110.942 110.941)">
<stop stop-color="#FFDD55"/>
<stop offset="0.328" stop-color="#FF543F"/>
<stop offset="0.3484" stop-color="#FC5245"/>
<stop offset="0.5039" stop-color="#E64771"/>
<stop offset="0.6433" stop-color="#D53E91"/>
<stop offset="0.7606" stop-color="#CC39A4"/>
<stop offset="0.8414" stop-color="#C837AB"/>
</radialGradient>
<radialGradient id="paint1_radial_29_224" cx="0" cy="0" r="1" gradientUnits="userSpaceOnUse" gradientTransform="translate(620.321 158.889) scale(73.6665 49.0839)">
<stop stop-color="#4168C9"/>
<stop offset="0.9988" stop-color="#4168C9" stop-opacity="0"/>
</radialGradient>
</defs>
</svg>
