<svg width="1512" height="982" viewBox="0 0 1512 982" fill="none" xmlns="http://www.w3.org/2000/svg">
<g filter="url(#filter0_d_5_33)">
<rect x="45" y="51" width="1422" height="879" rx="20" fill="white"/>
</g>
<rect x="45" y="134" width="1422" height="644" fill="#FEFCD4"/>
<path d="M626.133 98.207H632.246C632.272 98.6367 632.396 99.0534 632.617 99.457C632.839 99.8607 633.151 100.225 633.555 100.551C633.971 100.876 634.473 101.13 635.059 101.312C635.658 101.495 636.354 101.586 637.148 101.586C638.125 101.586 638.932 101.456 639.57 101.195C640.221 100.935 640.71 100.577 641.035 100.121C641.361 99.6523 641.523 99.1185 641.523 98.5195C641.523 97.6862 641.185 97.0482 640.508 96.6055C639.844 96.1628 638.861 95.8047 637.559 95.5312L633.789 94.7109C632.474 94.4505 631.283 94.0273 630.215 93.4414C629.147 92.8424 628.294 92.0286 627.656 91C627.018 89.9714 626.699 88.6823 626.699 87.1328C626.699 85.362 627.155 83.8581 628.066 82.6211C628.978 81.3841 630.215 80.4466 631.777 79.8086C633.34 79.1576 635.111 78.832 637.09 78.832C639.238 78.832 641.074 79.1966 642.598 79.9258C644.134 80.6419 645.312 81.612 646.133 82.8359C646.953 84.0599 647.37 85.4336 647.383 86.957H641.465C641.426 86.3971 641.243 85.8698 640.918 85.375C640.592 84.8802 640.111 84.4766 639.473 84.1641C638.848 83.8385 638.053 83.6758 637.09 83.6758C635.814 83.6758 634.824 83.9492 634.121 84.4961C633.431 85.0299 633.086 85.7396 633.086 86.625C633.086 87.3411 633.392 87.9271 634.004 88.3828C634.629 88.8385 635.521 89.1771 636.68 89.3984L640.527 90.1992C641.816 90.4466 643.014 90.8503 644.121 91.4102C645.228 91.9701 646.12 92.7708 646.797 93.8125C647.487 94.8411 647.832 96.1953 647.832 97.875C647.832 99.6198 647.402 101.137 646.543 102.426C645.684 103.715 644.44 104.717 642.812 105.434C641.185 106.137 639.212 106.488 636.895 106.488C634.863 106.488 633.158 106.247 631.777 105.766C630.41 105.271 629.31 104.62 628.477 103.812C627.656 102.992 627.064 102.094 626.699 101.117C626.335 100.141 626.146 99.1706 626.133 98.207ZM653.496 85.1406V80.2969H659.512V85.1406H663.496V89.8672H659.512V98.9688C659.512 99.8932 659.74 100.538 660.195 100.902C660.651 101.254 661.361 101.43 662.324 101.43C662.572 101.43 662.812 101.43 663.047 101.43C663.281 101.417 663.451 101.404 663.555 101.391V105.902C663.32 105.928 662.956 105.961 662.461 106C661.979 106.052 661.432 106.078 660.82 106.078C659.036 106.078 657.598 105.883 656.504 105.492C655.41 105.089 654.609 104.444 654.102 103.559C653.594 102.673 653.34 101.508 653.34 100.062V89.8672H650.312V85.1406H653.496ZM673.125 106.312C671.094 106.312 669.434 105.753 668.145 104.633C666.868 103.513 666.23 101.964 666.23 99.9844C666.23 98.0833 666.868 96.5729 668.145 95.4531C669.434 94.3203 671.296 93.7539 673.73 93.7539H678.574V92.0156C678.574 91.1562 678.32 90.4987 677.812 90.043C677.305 89.5872 676.608 89.3594 675.723 89.3594C675.137 89.3594 674.629 89.4635 674.199 89.6719C673.77 89.8672 673.438 90.1471 673.203 90.5117C672.969 90.8763 672.839 91.293 672.812 91.7617H666.992C667.031 90.9154 667.201 90.082 667.5 89.2617C667.812 88.4414 668.301 87.6992 668.965 87.0352C669.642 86.3581 670.54 85.8242 671.66 85.4336C672.78 85.0299 674.167 84.8281 675.82 84.8281C677.487 84.8281 678.991 85.082 680.332 85.5898C681.673 86.0846 682.734 86.8659 683.516 87.9336C684.297 88.9883 684.688 90.375 684.688 92.0938V106H678.867V103.5H678.574C678.34 103.982 677.988 104.438 677.52 104.867C677.064 105.284 676.471 105.629 675.742 105.902C675.026 106.176 674.154 106.312 673.125 106.312ZM675.273 101.977C675.859 101.977 676.406 101.866 676.914 101.645C677.422 101.41 677.826 101.085 678.125 100.668C678.424 100.251 678.574 99.763 678.574 99.2031V97.1328H675.371C674.395 97.1328 673.652 97.3542 673.145 97.7969C672.637 98.2266 672.383 98.793 672.383 99.4961C672.383 100.329 672.676 100.954 673.262 101.371C673.861 101.775 674.531 101.977 675.273 101.977ZM689.082 106V85.1406H695.312V88.207H695.586C695.716 87.7383 695.977 87.25 696.367 86.7422C696.758 86.2214 697.279 85.7786 697.93 85.4141C698.594 85.0365 699.382 84.8477 700.293 84.8477C700.736 84.8477 701.107 84.8607 701.406 84.8867C701.719 84.9128 701.973 84.9583 702.168 85.0234V90.3164C701.947 90.2383 701.628 90.1797 701.211 90.1406C700.794 90.0885 700.352 90.0625 699.883 90.0625C698.815 90.0625 697.956 90.2578 697.305 90.6484C696.667 91.0391 696.204 91.5859 695.918 92.2891C695.632 92.9922 695.488 93.806 695.488 94.7305V106H689.082ZM707.715 85.1406V80.2969H713.73V85.1406H717.715V89.8672H713.73V98.9688C713.73 99.8932 713.958 100.538 714.414 100.902C714.87 101.254 715.579 101.43 716.543 101.43C716.79 101.43 717.031 101.43 717.266 101.43C717.5 101.417 717.669 101.404 717.773 101.391V105.902C717.539 105.928 717.174 105.961 716.68 106C716.198 106.052 715.651 106.078 715.039 106.078C713.255 106.078 711.816 105.883 710.723 105.492C709.629 105.089 708.828 104.444 708.32 103.559C707.812 102.673 707.559 101.508 707.559 100.062V89.8672H704.531V85.1406H707.715ZM721.934 106V85.1406H728.164V106H721.934ZM721.68 79.8867C721.68 78.9622 722.012 78.2266 722.676 77.6797C723.34 77.1328 724.134 76.8594 725.059 76.8594C725.983 76.8594 726.771 77.1328 727.422 77.6797C728.086 78.2266 728.418 78.9622 728.418 79.8867C728.418 80.8112 728.086 81.5534 727.422 82.1133C726.771 82.6732 725.983 82.9531 725.059 82.9531C724.134 82.9531 723.34 82.6732 722.676 82.1133C722.012 81.5534 721.68 80.8112 721.68 79.8867ZM732.949 106V85.1406H738.984V88.3633H739.258C739.466 87.8685 739.818 87.3477 740.312 86.8008C740.807 86.2539 741.465 85.7917 742.285 85.4141C743.118 85.0234 744.121 84.8281 745.293 84.8281C747.402 84.8281 749.102 85.4792 750.391 86.7812C751.68 88.0703 752.324 89.9909 752.324 92.543V106H746.113V94.0078C746.113 92.9922 745.944 92.1979 745.605 91.625C745.267 91.0391 744.831 90.6289 744.297 90.3945C743.776 90.1471 743.229 90.0234 742.656 90.0234C741.953 90.0234 741.335 90.1862 740.801 90.5117C740.28 90.8372 739.876 91.306 739.59 91.918C739.303 92.5169 739.16 93.2331 739.16 94.0664V106H732.949ZM765.938 109.262C767.174 109.262 768.125 108.917 768.789 108.227C769.453 107.549 769.785 106.573 769.785 105.297V102.387H769.492C769.31 102.855 769.043 103.292 768.691 103.695C768.34 104.086 767.917 104.431 767.422 104.73C766.927 105.03 766.361 105.264 765.723 105.434C765.098 105.59 764.414 105.668 763.672 105.668C762.122 105.668 760.768 105.297 759.609 104.555C758.451 103.812 757.552 102.706 756.914 101.234C756.276 99.763 755.957 97.9466 755.957 95.7852V94.7695C755.957 92.6081 756.276 90.7982 756.914 89.3398C757.552 87.8815 758.444 86.7812 759.59 86.0391C760.749 85.2839 762.109 84.9062 763.672 84.9062C764.648 84.9062 765.527 85.056 766.309 85.3555C767.103 85.6419 767.773 86.0391 768.32 86.5469C768.867 87.0547 769.271 87.6406 769.531 88.3047H769.824V85.1406H775.996V105.824C775.996 107.309 775.69 108.546 775.078 109.535C774.479 110.538 773.678 111.339 772.676 111.938C771.673 112.549 770.573 112.979 769.375 113.227C768.19 113.487 767.005 113.617 765.82 113.617C763.685 113.617 761.934 113.318 760.566 112.719C759.199 112.133 758.177 111.345 757.5 110.355C756.823 109.379 756.452 108.311 756.387 107.152H762.305C762.422 107.582 762.643 107.953 762.969 108.266C763.294 108.591 763.711 108.839 764.219 109.008C764.727 109.177 765.299 109.262 765.938 109.262ZM766.094 89.75C765.339 89.75 764.681 89.9453 764.121 90.3359C763.561 90.7135 763.125 91.2865 762.812 92.0547C762.513 92.8099 762.363 93.7539 762.363 94.8867V96.0586C762.363 97.1654 762.513 98.1094 762.812 98.8906C763.125 99.6589 763.561 100.238 764.121 100.629C764.681 101.02 765.339 101.215 766.094 101.215C766.849 101.215 767.5 101.02 768.047 100.629C768.594 100.225 769.017 99.6393 769.316 98.8711C769.629 98.1029 769.785 97.1654 769.785 96.0586V94.8867C769.785 93.7669 769.629 92.8294 769.316 92.0742C769.004 91.306 768.574 90.7266 768.027 90.3359C767.48 89.9453 766.836 89.75 766.094 89.75ZM787.266 98.207H793.379C793.405 98.6367 793.529 99.0534 793.75 99.457C793.971 99.8607 794.284 100.225 794.688 100.551C795.104 100.876 795.605 101.13 796.191 101.312C796.79 101.495 797.487 101.586 798.281 101.586C799.258 101.586 800.065 101.456 800.703 101.195C801.354 100.935 801.842 100.577 802.168 100.121C802.493 99.6523 802.656 99.1185 802.656 98.5195C802.656 97.6862 802.318 97.0482 801.641 96.6055C800.977 96.1628 799.993 95.8047 798.691 95.5312L794.922 94.7109C793.607 94.4505 792.415 94.0273 791.348 93.4414C790.28 92.8424 789.427 92.0286 788.789 91C788.151 89.9714 787.832 88.6823 787.832 87.1328C787.832 85.362 788.288 83.8581 789.199 82.6211C790.111 81.3841 791.348 80.4466 792.91 79.8086C794.473 79.1576 796.243 78.832 798.223 78.832C800.371 78.832 802.207 79.1966 803.73 79.9258C805.267 80.6419 806.445 81.612 807.266 82.8359C808.086 84.0599 808.503 85.4336 808.516 86.957H802.598C802.559 86.3971 802.376 85.8698 802.051 85.375C801.725 84.8802 801.243 84.4766 800.605 84.1641C799.98 83.8385 799.186 83.6758 798.223 83.6758C796.947 83.6758 795.957 83.9492 795.254 84.4961C794.564 85.0299 794.219 85.7396 794.219 86.625C794.219 87.3411 794.525 87.9271 795.137 88.3828C795.762 88.8385 796.654 89.1771 797.812 89.3984L801.66 90.1992C802.949 90.4466 804.147 90.8503 805.254 91.4102C806.361 91.9701 807.253 92.7708 807.93 93.8125C808.62 94.8411 808.965 96.1953 808.965 97.875C808.965 99.6198 808.535 101.137 807.676 102.426C806.816 103.715 805.573 104.717 803.945 105.434C802.318 106.137 800.345 106.488 798.027 106.488C795.996 106.488 794.29 106.247 792.91 105.766C791.543 105.271 790.443 104.62 789.609 103.812C788.789 102.992 788.197 102.094 787.832 101.117C787.467 100.141 787.279 99.1706 787.266 98.207ZM821.66 84.7695C823.77 84.7695 825.56 85.1992 827.031 86.0586C828.503 86.918 829.622 88.1029 830.391 89.6133C831.159 91.1237 831.543 92.8555 831.543 94.8086V96.1562C831.543 98.2526 831.159 100.069 830.391 101.605C829.622 103.142 828.503 104.327 827.031 105.16C825.56 105.98 823.77 106.391 821.66 106.391C819.551 106.391 817.754 105.98 816.27 105.16C814.798 104.327 813.672 103.148 812.891 101.625C812.122 100.089 811.738 98.2721 811.738 96.1758V94.8477C811.738 92.8945 812.122 91.1628 812.891 89.6523C813.672 88.1289 814.798 86.9375 816.27 86.0781C817.754 85.2057 819.551 84.7695 821.66 84.7695ZM821.641 89.418C820.768 89.418 820.065 89.6654 819.531 90.1602C819.01 90.6419 818.633 91.293 818.398 92.1133C818.164 92.9206 818.047 93.806 818.047 94.7695V96.3516C818.047 97.25 818.158 98.1094 818.379 98.9297C818.613 99.75 818.991 100.421 819.512 100.941C820.046 101.462 820.755 101.723 821.641 101.723C822.539 101.723 823.249 101.469 823.77 100.961C824.29 100.44 824.661 99.7695 824.883 98.9492C825.117 98.1289 825.234 97.263 825.234 96.3516V94.7695C825.234 93.806 825.117 92.9206 824.883 92.1133C824.648 91.293 824.271 90.6419 823.75 90.1602C823.229 89.6654 822.526 89.418 821.641 89.418ZM844.316 84.7695C846.426 84.7695 848.216 85.1992 849.688 86.0586C851.159 86.918 852.279 88.1029 853.047 89.6133C853.815 91.1237 854.199 92.8555 854.199 94.8086V96.1562C854.199 98.2526 853.815 100.069 853.047 101.605C852.279 103.142 851.159 104.327 849.688 105.16C848.216 105.98 846.426 106.391 844.316 106.391C842.207 106.391 840.41 105.98 838.926 105.16C837.454 104.327 836.328 103.148 835.547 101.625C834.779 100.089 834.395 98.2721 834.395 96.1758V94.8477C834.395 92.8945 834.779 91.1628 835.547 89.6523C836.328 88.1289 837.454 86.9375 838.926 86.0781C840.41 85.2057 842.207 84.7695 844.316 84.7695ZM844.297 89.418C843.424 89.418 842.721 89.6654 842.188 90.1602C841.667 90.6419 841.289 91.293 841.055 92.1133C840.82 92.9206 840.703 93.806 840.703 94.7695V96.3516C840.703 97.25 840.814 98.1094 841.035 98.9297C841.27 99.75 841.647 100.421 842.168 100.941C842.702 101.462 843.411 101.723 844.297 101.723C845.195 101.723 845.905 101.469 846.426 100.961C846.947 100.44 847.318 99.7695 847.539 98.9492C847.773 98.1289 847.891 97.263 847.891 96.3516V94.7695C847.891 93.806 847.773 92.9206 847.539 92.1133C847.305 91.293 846.927 90.6419 846.406 90.1602C845.885 89.6654 845.182 89.418 844.297 89.418ZM857.91 106V85.1406H863.945V88.3633H864.219C864.427 87.8685 864.779 87.3477 865.273 86.8008C865.768 86.2539 866.426 85.7917 867.246 85.4141C868.079 85.0234 869.082 84.8281 870.254 84.8281C872.363 84.8281 874.062 85.4792 875.352 86.7812C876.641 88.0703 877.285 89.9909 877.285 92.543V106H871.074V94.0078C871.074 92.9922 870.905 92.1979 870.566 91.625C870.228 91.0391 869.792 90.6289 869.258 90.3945C868.737 90.1471 868.19 90.0234 867.617 90.0234C866.914 90.0234 866.296 90.1862 865.762 90.5117C865.241 90.8372 864.837 91.306 864.551 91.918C864.264 92.5169 864.121 93.2331 864.121 94.0664V106H857.91Z" fill="#525252"/>
<g filter="url(#filter1_i_5_33)">
<rect x="979" y="830" width="261" height="50" rx="10" fill="#FEFCD4"/>
</g>
<path d="M984.592 869V848.062H990.295V851.578H990.413C990.842 850.38 991.571 849.423 992.6 848.707C993.642 847.991 994.866 847.633 996.272 847.633C997.249 847.633 998.127 847.802 998.909 848.141C999.69 848.479 1000.35 848.967 1000.88 849.605C1001.43 850.243 1001.81 851.025 1002.03 851.949H1002.15C1002.46 851.064 1002.93 850.302 1003.56 849.664C1004.2 849.013 1004.94 848.512 1005.8 848.16C1006.68 847.809 1007.63 847.633 1008.65 847.633C1010.02 847.633 1011.22 847.926 1012.25 848.512C1013.28 849.098 1014.08 849.918 1014.65 850.973C1015.22 852.027 1015.51 853.264 1015.51 854.684V869H1009.81V856.109C1009.81 855.302 1009.67 854.618 1009.4 854.059C1009.14 853.499 1008.75 853.076 1008.24 852.789C1007.75 852.503 1007.13 852.359 1006.39 852.359C1005.67 852.359 1005.04 852.522 1004.49 852.848C1003.96 853.173 1003.54 853.629 1003.24 854.215C1002.95 854.801 1002.8 855.484 1002.8 856.266V869H997.307V855.934C997.307 855.178 997.17 854.534 996.897 854C996.624 853.466 996.233 853.062 995.725 852.789C995.23 852.503 994.631 852.359 993.928 852.359C993.212 852.359 992.581 852.529 992.034 852.867C991.487 853.206 991.057 853.674 990.745 854.273C990.445 854.872 990.295 855.569 990.295 856.363V869H984.592ZM1019.24 869V848.062H1024.94V869H1019.24ZM1022.09 845.367C1021.23 845.367 1020.51 845.074 1019.92 844.488C1019.34 843.902 1019.05 843.206 1019.05 842.398C1019.05 841.578 1019.34 840.882 1019.92 840.309C1020.51 839.723 1021.23 839.43 1022.09 839.43C1022.95 839.43 1023.67 839.723 1024.26 840.309C1024.85 840.882 1025.14 841.578 1025.14 842.398C1025.14 843.206 1024.85 843.902 1024.26 844.488C1023.67 845.074 1022.95 845.367 1022.09 845.367ZM1037.39 869.43C1035.46 869.43 1033.82 869.15 1032.46 868.59C1031.11 868.03 1030.05 867.255 1029.28 866.266C1028.52 865.263 1028.07 864.104 1027.91 862.789L1027.89 862.613H1033.46L1033.5 862.789C1033.68 863.609 1034.09 864.247 1034.73 864.703C1035.37 865.159 1036.25 865.387 1037.39 865.387C1038.11 865.387 1038.73 865.302 1039.24 865.133C1039.75 864.951 1040.14 864.697 1040.41 864.371C1040.7 864.046 1040.84 863.655 1040.84 863.199V863.18C1040.84 862.62 1040.64 862.171 1040.24 861.832C1039.83 861.493 1039.12 861.207 1038.09 860.973L1034.53 860.23C1033.18 859.944 1032.05 859.534 1031.14 859C1030.24 858.453 1029.56 857.783 1029.1 856.988C1028.65 856.181 1028.42 855.257 1028.42 854.215V854.195C1028.42 852.854 1028.78 851.695 1029.49 850.719C1030.21 849.742 1031.23 848.987 1032.54 848.453C1033.87 847.906 1035.42 847.633 1037.19 847.633C1039.04 847.633 1040.61 847.932 1041.9 848.531C1043.2 849.117 1044.2 849.911 1044.89 850.914C1045.59 851.917 1045.96 853.03 1046 854.254V854.449H1040.74L1040.73 854.293C1040.63 853.538 1040.28 852.913 1039.67 852.418C1039.07 851.91 1038.24 851.656 1037.19 851.656C1036.54 851.656 1035.97 851.747 1035.49 851.93C1035.01 852.112 1034.64 852.372 1034.38 852.711C1034.12 853.036 1033.99 853.427 1033.99 853.883V853.902C1033.99 854.254 1034.07 854.573 1034.24 854.859C1034.42 855.133 1034.72 855.374 1035.14 855.582C1035.56 855.79 1036.12 855.973 1036.82 856.129L1040.37 856.891C1042.57 857.346 1044.15 858.03 1045.1 858.941C1046.06 859.853 1046.55 861.077 1046.55 862.613V862.633C1046.55 864 1046.15 865.191 1045.37 866.207C1044.59 867.223 1043.51 868.017 1042.13 868.59C1040.76 869.15 1039.18 869.43 1037.39 869.43ZM1055.59 869.332C1054.2 869.332 1052.97 869.065 1051.92 868.531C1050.86 867.984 1050.03 867.236 1049.44 866.285C1048.85 865.322 1048.56 864.228 1048.56 863.004V862.965C1048.56 861.689 1048.88 860.602 1049.51 859.703C1050.15 858.792 1051.08 858.076 1052.29 857.555C1053.5 857.034 1054.97 856.715 1056.7 856.598L1064.87 856.09V859.645L1057.56 860.113C1056.47 860.178 1055.63 860.439 1055.06 860.895C1054.49 861.337 1054.2 861.93 1054.2 862.672V862.711C1054.2 863.479 1054.49 864.085 1055.08 864.527C1055.67 864.957 1056.45 865.172 1057.44 865.172C1058.29 865.172 1059.05 865.009 1059.71 864.684C1060.39 864.345 1060.91 863.889 1061.29 863.316C1061.68 862.73 1061.88 862.073 1061.88 861.344V854.996C1061.88 854.072 1061.58 853.342 1061 852.809C1060.41 852.262 1059.56 851.988 1058.44 851.988C1057.37 851.988 1056.53 852.21 1055.9 852.652C1055.28 853.095 1054.89 853.655 1054.75 854.332L1054.71 854.508H1049.49L1049.51 854.273C1049.62 852.984 1050.04 851.839 1050.78 850.836C1051.54 849.833 1052.58 849.052 1053.91 848.492C1055.25 847.919 1056.84 847.633 1058.67 847.633C1060.48 847.633 1062.05 847.926 1063.38 848.512C1064.71 849.085 1065.74 849.898 1066.47 850.953C1067.21 852.008 1067.58 853.238 1067.58 854.645V869H1061.88V865.875H1061.76C1061.37 866.591 1060.86 867.21 1060.24 867.73C1059.62 868.238 1058.93 868.635 1058.15 868.922C1057.37 869.195 1056.51 869.332 1055.59 869.332ZM1071.27 869V848.062H1076.98V851.578H1077.09C1077.52 850.38 1078.25 849.423 1079.28 848.707C1080.32 847.991 1081.55 847.633 1082.95 847.633C1083.93 847.633 1084.81 847.802 1085.59 848.141C1086.37 848.479 1087.03 848.967 1087.56 849.605C1088.11 850.243 1088.49 851.025 1088.71 851.949H1088.83C1089.14 851.064 1089.61 850.302 1090.24 849.664C1090.87 849.013 1091.62 848.512 1092.48 848.16C1093.36 847.809 1094.31 847.633 1095.33 847.633C1096.7 847.633 1097.9 847.926 1098.93 848.512C1099.96 849.098 1100.76 849.918 1101.33 850.973C1101.9 852.027 1102.19 853.264 1102.19 854.684V869H1096.49V856.109C1096.49 855.302 1096.35 854.618 1096.08 854.059C1095.82 853.499 1095.43 853.076 1094.92 852.789C1094.43 852.503 1093.81 852.359 1093.07 852.359C1092.35 852.359 1091.72 852.522 1091.17 852.848C1090.64 853.173 1090.22 853.629 1089.92 854.215C1089.62 854.801 1089.48 855.484 1089.48 856.266V869H1083.99V855.934C1083.99 855.178 1083.85 854.534 1083.58 854C1083.3 853.466 1082.91 853.062 1082.4 852.789C1081.91 852.503 1081.31 852.359 1080.61 852.359C1079.89 852.359 1079.26 852.529 1078.71 852.867C1078.17 853.206 1077.74 853.674 1077.42 854.273C1077.12 854.872 1076.98 855.569 1076.98 856.363V869H1071.27ZM1105.92 869V848.062H1111.62V869H1105.92ZM1108.77 845.367C1107.91 845.367 1107.19 845.074 1106.6 844.488C1106.02 843.902 1105.73 843.206 1105.73 842.398C1105.73 841.578 1106.02 840.882 1106.6 840.309C1107.19 839.723 1107.91 839.43 1108.77 839.43C1109.63 839.43 1110.35 839.723 1110.94 840.309C1111.53 840.882 1111.82 841.578 1111.82 842.398C1111.82 843.206 1111.53 843.902 1110.94 844.488C1110.35 845.074 1109.63 845.367 1108.77 845.367ZM1124.06 869.43C1122.14 869.43 1120.5 869.15 1119.14 868.59C1117.79 868.03 1116.73 867.255 1115.96 866.266C1115.2 865.263 1114.75 864.104 1114.59 862.789L1114.57 862.613H1120.14L1120.18 862.789C1120.36 863.609 1120.77 864.247 1121.41 864.703C1122.05 865.159 1122.93 865.387 1124.06 865.387C1124.79 865.387 1125.41 865.302 1125.92 865.133C1126.43 864.951 1126.82 864.697 1127.09 864.371C1127.38 864.046 1127.52 863.655 1127.52 863.199V863.18C1127.52 862.62 1127.32 862.171 1126.92 861.832C1126.51 861.493 1125.8 861.207 1124.77 860.973L1121.21 860.23C1119.86 859.944 1118.73 859.534 1117.81 859C1116.92 858.453 1116.24 857.783 1115.78 856.988C1115.33 856.181 1115.1 855.257 1115.1 854.215V854.195C1115.1 852.854 1115.46 851.695 1116.17 850.719C1116.89 849.742 1117.91 848.987 1119.22 848.453C1120.55 847.906 1122.1 847.633 1123.87 847.633C1125.72 847.633 1127.29 847.932 1128.58 848.531C1129.88 849.117 1130.87 849.911 1131.56 850.914C1132.27 851.917 1132.64 853.03 1132.68 854.254V854.449H1127.42L1127.4 854.293C1127.31 853.538 1126.96 852.913 1126.35 852.418C1125.75 851.91 1124.92 851.656 1123.87 851.656C1123.22 851.656 1122.65 851.747 1122.17 851.93C1121.69 852.112 1121.32 852.372 1121.06 852.711C1120.8 853.036 1120.67 853.427 1120.67 853.883V853.902C1120.67 854.254 1120.75 854.573 1120.92 854.859C1121.1 855.133 1121.4 855.374 1121.82 855.582C1122.24 855.79 1122.8 855.973 1123.5 856.129L1127.05 856.891C1129.25 857.346 1130.83 858.03 1131.78 858.941C1132.74 859.853 1133.23 861.077 1133.23 862.613V862.633C1133.23 864 1132.83 865.191 1132.05 866.207C1131.27 867.223 1130.19 868.017 1128.81 868.59C1127.44 869.15 1125.86 869.43 1124.06 869.43ZM1142.27 869.332C1140.87 869.332 1139.65 869.065 1138.6 868.531C1137.54 867.984 1136.71 867.236 1136.12 866.285C1135.53 865.322 1135.24 864.228 1135.24 863.004V862.965C1135.24 861.689 1135.56 860.602 1136.19 859.703C1136.83 858.792 1137.76 858.076 1138.97 857.555C1140.18 857.034 1141.65 856.715 1143.38 856.598L1151.55 856.09V859.645L1144.24 860.113C1143.15 860.178 1142.31 860.439 1141.74 860.895C1141.17 861.337 1140.88 861.93 1140.88 862.672V862.711C1140.88 863.479 1141.17 864.085 1141.76 864.527C1142.35 864.957 1143.13 865.172 1144.12 865.172C1144.97 865.172 1145.73 865.009 1146.39 864.684C1147.07 864.345 1147.59 863.889 1147.97 863.316C1148.36 862.73 1148.56 862.073 1148.56 861.344V854.996C1148.56 854.072 1148.26 853.342 1147.68 852.809C1147.09 852.262 1146.24 851.988 1145.12 851.988C1144.05 851.988 1143.21 852.21 1142.58 852.652C1141.96 853.095 1141.57 853.655 1141.43 854.332L1141.39 854.508H1136.17L1136.19 854.273C1136.3 852.984 1136.72 851.839 1137.46 850.836C1138.22 849.833 1139.26 849.052 1140.59 848.492C1141.93 847.919 1143.52 847.633 1145.35 847.633C1147.16 847.633 1148.73 847.926 1150.06 848.512C1151.39 849.085 1152.42 849.898 1153.15 850.953C1153.89 852.008 1154.26 853.238 1154.26 854.645V869H1148.56V865.875H1148.44C1148.05 866.591 1147.54 867.21 1146.92 867.73C1146.3 868.238 1145.61 868.635 1144.83 868.922C1144.05 869.195 1143.19 869.332 1142.27 869.332ZM1160.92 869.332C1160.03 869.332 1159.29 869.026 1158.67 868.414C1158.06 867.802 1157.76 867.053 1157.76 866.168C1157.76 865.283 1158.06 864.534 1158.67 863.922C1159.29 863.31 1160.03 863.004 1160.92 863.004C1161.81 863.004 1162.55 863.31 1163.17 863.922C1163.78 864.534 1164.08 865.283 1164.08 866.168C1164.08 867.053 1163.78 867.802 1163.17 868.414C1162.55 869.026 1161.81 869.332 1160.92 869.332ZM1167.6 875.836V848.062H1173.3V851.715H1173.44C1173.82 850.868 1174.31 850.139 1174.92 849.527C1175.55 848.915 1176.27 848.447 1177.09 848.121C1177.93 847.796 1178.84 847.633 1179.83 847.633C1181.6 847.633 1183.12 848.069 1184.4 848.941C1185.67 849.801 1186.66 851.044 1187.35 852.672C1188.04 854.299 1188.38 856.246 1188.38 858.512V858.531C1188.38 860.797 1188.04 862.743 1187.35 864.371C1186.67 865.999 1185.7 867.249 1184.44 868.121C1183.17 868.993 1181.66 869.43 1179.9 869.43C1178.92 869.43 1178 869.267 1177.15 868.941C1176.3 868.616 1175.57 868.16 1174.94 867.574C1174.32 866.975 1173.81 866.259 1173.42 865.426H1173.3V875.836H1167.6ZM1177.95 864.703C1178.9 864.703 1179.72 864.456 1180.41 863.961C1181.1 863.453 1181.64 862.737 1182.01 861.812C1182.39 860.888 1182.58 859.794 1182.58 858.531V858.512C1182.58 857.236 1182.39 856.135 1182.01 855.211C1181.64 854.286 1181.1 853.583 1180.39 853.102C1179.7 852.607 1178.89 852.359 1177.95 852.359C1177.03 852.359 1176.21 852.613 1175.51 853.121C1174.81 853.616 1174.26 854.326 1173.87 855.25C1173.48 856.161 1173.28 857.255 1173.28 858.531V858.551C1173.28 859.801 1173.48 860.888 1173.87 861.812C1174.27 862.737 1174.82 863.453 1175.51 863.961C1176.21 864.456 1177.03 864.703 1177.95 864.703ZM1191.35 869V848.062H1197.05V851.5H1197.17C1197.72 850.302 1198.52 849.358 1199.59 848.668C1200.66 847.978 1201.98 847.633 1203.56 847.633C1205.86 847.633 1207.64 848.329 1208.89 849.723C1210.15 851.103 1210.78 853.023 1210.78 855.484V869H1205.08V856.656C1205.08 855.289 1204.76 854.234 1204.1 853.492C1203.47 852.737 1202.51 852.359 1201.23 852.359C1200.39 852.359 1199.65 852.555 1199.03 852.945C1198.4 853.323 1197.91 853.857 1197.56 854.547C1197.22 855.237 1197.05 856.044 1197.05 856.969V869H1191.35ZM1224.18 876.266C1222.27 876.266 1220.59 875.999 1219.16 875.465C1217.74 874.944 1216.61 874.234 1215.76 873.336C1214.93 872.438 1214.42 871.428 1214.24 870.309L1214.22 870.133H1219.77L1219.83 870.27C1220.06 870.777 1220.55 871.227 1221.29 871.617C1222.03 872.008 1223 872.203 1224.18 872.203C1225.65 872.203 1226.77 871.852 1227.54 871.148C1228.31 870.445 1228.69 869.508 1228.69 868.336V865.133H1228.58C1228.21 865.862 1227.72 866.493 1227.09 867.027C1226.47 867.561 1225.73 867.978 1224.89 868.277C1224.05 868.564 1223.13 868.707 1222.11 868.707C1220.37 868.707 1218.86 868.29 1217.58 867.457C1216.32 866.624 1215.34 865.432 1214.65 863.883C1213.97 862.32 1213.64 860.458 1213.64 858.297V858.277C1213.64 856.051 1213.98 854.143 1214.67 852.555C1215.37 850.966 1216.36 849.749 1217.64 848.902C1218.92 848.056 1220.44 847.633 1222.21 847.633C1223.2 847.633 1224.1 847.796 1224.92 848.121C1225.74 848.447 1226.46 848.909 1227.07 849.508C1227.7 850.107 1228.2 850.816 1228.58 851.637H1228.69V848.062H1234.4V868.414C1234.4 869.964 1233.98 871.324 1233.15 872.496C1232.33 873.681 1231.15 874.605 1229.61 875.27C1228.09 875.934 1226.28 876.266 1224.18 876.266ZM1224.08 864.527C1225.02 864.527 1225.84 864.28 1226.53 863.785C1227.22 863.29 1227.75 862.587 1228.13 861.676C1228.52 860.764 1228.71 859.684 1228.71 858.434V858.414C1228.71 857.164 1228.52 856.09 1228.13 855.191C1227.75 854.28 1227.21 853.583 1226.51 853.102C1225.82 852.607 1225.01 852.359 1224.08 852.359C1223.15 852.359 1222.33 852.607 1221.62 853.102C1220.92 853.583 1220.38 854.273 1220 855.172C1219.62 856.07 1219.44 857.151 1219.44 858.414V858.434C1219.44 859.684 1219.62 860.764 1220 861.676C1220.38 862.587 1220.92 863.29 1221.62 863.785C1222.33 864.28 1223.15 864.527 1224.08 864.527Z" fill="#4AB21E"/>
<g filter="url(#filter2_i_5_33)">
<rect x="669" y="832" width="178" height="50" rx="10" fill="#FEFCD4"/>
</g>
<path d="M682.346 871.43C680.588 871.43 679.071 870.993 677.795 870.121C676.519 869.249 675.536 867.999 674.846 866.371C674.169 864.743 673.831 862.797 673.831 860.531V860.512C673.831 858.233 674.176 856.286 674.866 854.672C675.556 853.044 676.532 851.801 677.795 850.941C679.071 850.069 680.588 849.633 682.346 849.633C683.336 849.633 684.247 849.796 685.081 850.121C685.914 850.447 686.643 850.915 687.268 851.527C687.906 852.126 688.414 852.849 688.792 853.695H688.909V842.816H694.612V871H688.909V867.426H688.792C688.427 868.259 687.932 868.975 687.307 869.574C686.682 870.16 685.953 870.616 685.12 870.941C684.286 871.267 683.362 871.43 682.346 871.43ZM684.26 866.703C685.185 866.703 685.999 866.456 686.702 865.961C687.405 865.453 687.952 864.737 688.342 863.812C688.733 862.888 688.928 861.794 688.928 860.531V860.512C688.928 859.249 688.726 858.161 688.323 857.25C687.932 856.326 687.385 855.616 686.682 855.121C685.992 854.613 685.185 854.359 684.26 854.359C683.31 854.359 682.489 854.607 681.799 855.102C681.109 855.596 680.575 856.306 680.198 857.23C679.82 858.142 679.631 859.236 679.631 860.512V860.531C679.631 861.794 679.814 862.888 680.178 863.812C680.556 864.737 681.09 865.453 681.78 865.961C682.483 866.456 683.31 866.703 684.26 866.703ZM707.952 871.43C705.816 871.43 703.98 870.993 702.444 870.121C700.907 869.236 699.722 867.979 698.889 866.352C698.069 864.724 697.659 862.797 697.659 860.57V860.551C697.659 858.324 698.069 856.397 698.889 854.77C699.722 853.129 700.888 851.866 702.385 850.98C703.896 850.082 705.673 849.633 707.717 849.633C709.762 849.633 711.526 850.069 713.01 850.941C714.508 851.801 715.66 853.018 716.467 854.594C717.288 856.169 717.698 858.012 717.698 860.121V861.879H700.452V858.285H715.002L712.288 861.645V859.457C712.288 858.233 712.099 857.211 711.721 856.391C711.344 855.557 710.816 854.932 710.139 854.516C709.475 854.099 708.7 853.891 707.815 853.891C706.93 853.891 706.142 854.105 705.452 854.535C704.775 854.965 704.241 855.596 703.85 856.43C703.472 857.25 703.284 858.259 703.284 859.457V861.664C703.284 862.823 703.472 863.812 703.85 864.633C704.241 865.453 704.794 866.085 705.51 866.527C706.226 866.957 707.079 867.172 708.069 867.172C708.85 867.172 709.527 867.048 710.1 866.801C710.673 866.553 711.142 866.241 711.506 865.863C711.871 865.486 712.118 865.102 712.249 864.711L712.288 864.594H717.522L717.463 864.809C717.307 865.577 717.001 866.352 716.545 867.133C716.09 867.914 715.471 868.63 714.69 869.281C713.922 869.932 712.978 870.453 711.858 870.844C710.751 871.234 709.449 871.43 707.952 871.43ZM725.393 871L718.147 850.062H724.241L728.616 865.961H728.733L733.049 850.062H739.006L731.819 871H725.393ZM741.331 862.035V857.055H753.987V862.035H741.331ZM758.342 871V850.062H764.045V853.578H764.163C764.592 852.38 765.321 851.423 766.35 850.707C767.392 849.991 768.616 849.633 770.022 849.633C770.999 849.633 771.877 849.802 772.659 850.141C773.44 850.479 774.097 850.967 774.631 851.605C775.178 852.243 775.562 853.025 775.784 853.949H775.901C776.213 853.064 776.682 852.302 777.307 851.664C777.945 851.013 778.694 850.512 779.553 850.16C780.426 849.809 781.376 849.633 782.405 849.633C783.772 849.633 784.97 849.926 785.999 850.512C787.027 851.098 787.828 851.918 788.401 852.973C788.974 854.027 789.26 855.264 789.26 856.684V871H783.557V858.109C783.557 857.302 783.42 856.618 783.147 856.059C782.887 855.499 782.502 855.076 781.995 854.789C781.5 854.503 780.881 854.359 780.139 854.359C779.423 854.359 778.792 854.522 778.245 854.848C777.711 855.173 777.294 855.629 776.995 856.215C776.695 856.801 776.545 857.484 776.545 858.266V871H771.057V857.934C771.057 857.178 770.92 856.534 770.647 856C770.374 855.466 769.983 855.062 769.475 854.789C768.98 854.503 768.381 854.359 767.678 854.359C766.962 854.359 766.331 854.529 765.784 854.867C765.237 855.206 764.807 855.674 764.495 856.273C764.195 856.872 764.045 857.569 764.045 858.363V871H758.342ZM792.991 871V850.062H798.694V871H792.991ZM795.842 847.367C794.983 847.367 794.26 847.074 793.674 846.488C793.088 845.902 792.795 845.206 792.795 844.398C792.795 843.578 793.088 842.882 793.674 842.309C794.26 841.723 794.983 841.43 795.842 841.43C796.702 841.43 797.424 841.723 798.01 842.309C798.596 842.882 798.889 843.578 798.889 844.398C798.889 845.206 798.596 845.902 798.01 846.488C797.424 847.074 796.702 847.367 795.842 847.367ZM811.135 871.43C809.208 871.43 807.568 871.15 806.213 870.59C804.859 870.03 803.798 869.255 803.03 868.266C802.275 867.263 801.819 866.104 801.663 864.789L801.643 864.613H807.209L807.249 864.789C807.431 865.609 807.841 866.247 808.479 866.703C809.117 867.159 810.002 867.387 811.135 867.387C811.864 867.387 812.483 867.302 812.991 867.133C813.499 866.951 813.889 866.697 814.163 866.371C814.449 866.046 814.592 865.655 814.592 865.199V865.18C814.592 864.62 814.39 864.171 813.987 863.832C813.583 863.493 812.867 863.207 811.838 862.973L808.284 862.23C806.93 861.944 805.797 861.534 804.885 861C803.987 860.453 803.31 859.783 802.854 858.988C802.398 858.181 802.17 857.257 802.17 856.215V856.195C802.17 854.854 802.528 853.695 803.245 852.719C803.961 851.742 804.976 850.987 806.292 850.453C807.62 849.906 809.169 849.633 810.94 849.633C812.789 849.633 814.358 849.932 815.647 850.531C816.949 851.117 817.945 851.911 818.635 852.914C819.338 853.917 819.709 855.03 819.749 856.254V856.449H814.495L814.475 856.293C814.384 855.538 814.032 854.913 813.42 854.418C812.821 853.91 811.995 853.656 810.94 853.656C810.289 853.656 809.722 853.747 809.241 853.93C808.759 854.112 808.388 854.372 808.127 854.711C807.867 855.036 807.737 855.427 807.737 855.883V855.902C807.737 856.254 807.821 856.573 807.991 856.859C808.173 857.133 808.472 857.374 808.889 857.582C809.306 857.79 809.866 857.973 810.569 858.129L814.124 858.891C816.324 859.346 817.9 860.03 818.85 860.941C819.814 861.853 820.295 863.077 820.295 864.613V864.633C820.295 866 819.905 867.191 819.124 868.207C818.342 869.223 817.262 870.017 815.881 870.59C814.514 871.15 812.932 871.43 811.135 871.43ZM829.338 871.332C827.945 871.332 826.721 871.065 825.667 870.531C824.612 869.984 823.785 869.236 823.186 868.285C822.6 867.322 822.307 866.228 822.307 865.004V864.965C822.307 863.689 822.626 862.602 823.264 861.703C823.902 860.792 824.827 860.076 826.038 859.555C827.249 859.034 828.72 858.715 830.452 858.598L838.616 858.09V861.645L831.311 862.113C830.217 862.178 829.384 862.439 828.811 862.895C828.238 863.337 827.952 863.93 827.952 864.672V864.711C827.952 865.479 828.245 866.085 828.831 866.527C829.417 866.957 830.204 867.172 831.194 867.172C832.04 867.172 832.795 867.009 833.459 866.684C834.137 866.345 834.664 865.889 835.042 865.316C835.432 864.73 835.627 864.073 835.627 863.344V856.996C835.627 856.072 835.334 855.342 834.749 854.809C834.163 854.262 833.31 853.988 832.19 853.988C831.122 853.988 830.276 854.21 829.651 854.652C829.026 855.095 828.642 855.655 828.499 856.332L828.459 856.508H823.245L823.264 856.273C823.368 854.984 823.792 853.839 824.534 852.836C825.289 851.833 826.331 851.052 827.659 850.492C829 849.919 830.588 849.633 832.424 849.633C834.234 849.633 835.803 849.926 837.131 850.512C838.459 851.085 839.488 851.898 840.217 852.953C840.959 854.008 841.331 855.238 841.331 856.645V871H835.627V867.875H835.51C835.12 868.591 834.612 869.21 833.987 869.73C833.375 870.238 832.678 870.635 831.897 870.922C831.116 871.195 830.263 871.332 829.338 871.332Z" fill="#4AB21E"/>
<g filter="url(#filter3_i_5_33)">
<rect x="377" y="833" width="162" height="50" rx="10" fill="#FEFCD4"/>
</g>
<path d="M390.346 869.43C388.588 869.43 387.071 868.993 385.795 868.121C384.519 867.249 383.536 865.999 382.846 864.371C382.169 862.743 381.831 860.797 381.831 858.531V858.512C381.831 856.233 382.176 854.286 382.866 852.672C383.556 851.044 384.532 849.801 385.795 848.941C387.071 848.069 388.588 847.633 390.346 847.633C391.336 847.633 392.247 847.796 393.081 848.121C393.914 848.447 394.643 848.915 395.268 849.527C395.906 850.126 396.414 850.849 396.792 851.695H396.909V840.816H402.612V869H396.909V865.426H396.792C396.427 866.259 395.932 866.975 395.307 867.574C394.682 868.16 393.953 868.616 393.12 868.941C392.286 869.267 391.362 869.43 390.346 869.43ZM392.26 864.703C393.185 864.703 393.999 864.456 394.702 863.961C395.405 863.453 395.952 862.737 396.342 861.812C396.733 860.888 396.928 859.794 396.928 858.531V858.512C396.928 857.249 396.726 856.161 396.323 855.25C395.932 854.326 395.385 853.616 394.682 853.121C393.992 852.613 393.185 852.359 392.26 852.359C391.31 852.359 390.489 852.607 389.799 853.102C389.109 853.596 388.575 854.306 388.198 855.23C387.82 856.142 387.631 857.236 387.631 858.512V858.531C387.631 859.794 387.814 860.888 388.178 861.812C388.556 862.737 389.09 863.453 389.78 863.961C390.483 864.456 391.31 864.703 392.26 864.703ZM415.952 869.43C413.816 869.43 411.98 868.993 410.444 868.121C408.907 867.236 407.723 865.979 406.889 864.352C406.069 862.724 405.659 860.797 405.659 858.57V858.551C405.659 856.324 406.069 854.397 406.889 852.77C407.723 851.129 408.888 849.866 410.385 848.98C411.896 848.082 413.673 847.633 415.717 847.633C417.762 847.633 419.526 848.069 421.01 848.941C422.508 849.801 423.66 851.018 424.467 852.594C425.288 854.169 425.698 856.012 425.698 858.121V859.879H408.452V856.285H423.002L420.288 859.645V857.457C420.288 856.233 420.099 855.211 419.721 854.391C419.344 853.557 418.816 852.932 418.139 852.516C417.475 852.099 416.7 851.891 415.815 851.891C414.93 851.891 414.142 852.105 413.452 852.535C412.775 852.965 412.241 853.596 411.85 854.43C411.473 855.25 411.284 856.259 411.284 857.457V859.664C411.284 860.823 411.473 861.812 411.85 862.633C412.241 863.453 412.794 864.085 413.51 864.527C414.226 864.957 415.079 865.172 416.069 865.172C416.85 865.172 417.527 865.048 418.1 864.801C418.673 864.553 419.142 864.241 419.506 863.863C419.871 863.486 420.118 863.102 420.249 862.711L420.288 862.594H425.522L425.463 862.809C425.307 863.577 425.001 864.352 424.545 865.133C424.09 865.914 423.471 866.63 422.69 867.281C421.922 867.932 420.978 868.453 419.858 868.844C418.751 869.234 417.449 869.43 415.952 869.43ZM433.393 869L426.147 848.062H432.241L436.616 863.961H436.733L441.049 848.062H447.006L439.819 869H433.393ZM448.999 869V848.062H454.702V851.578H454.819C455.249 850.38 455.978 849.423 457.006 848.707C458.048 847.991 459.272 847.633 460.678 847.633C461.655 847.633 462.534 847.802 463.315 848.141C464.096 848.479 464.754 848.967 465.288 849.605C465.835 850.243 466.219 851.025 466.44 851.949H466.557C466.87 851.064 467.338 850.302 467.963 849.664C468.601 849.013 469.35 848.512 470.21 848.16C471.082 847.809 472.032 847.633 473.061 847.633C474.428 847.633 475.626 847.926 476.655 848.512C477.683 849.098 478.484 849.918 479.057 850.973C479.63 852.027 479.917 853.264 479.917 854.684V869H474.213V856.109C474.213 855.302 474.077 854.618 473.803 854.059C473.543 853.499 473.159 853.076 472.651 852.789C472.156 852.503 471.538 852.359 470.795 852.359C470.079 852.359 469.448 852.522 468.901 852.848C468.367 853.173 467.95 853.629 467.651 854.215C467.351 854.801 467.202 855.484 467.202 856.266V869H461.713V855.934C461.713 855.178 461.577 854.534 461.303 854C461.03 853.466 460.639 853.062 460.131 852.789C459.637 852.503 459.038 852.359 458.335 852.359C457.618 852.359 456.987 852.529 456.44 852.867C455.893 853.206 455.463 853.674 455.151 854.273C454.851 854.872 454.702 855.569 454.702 856.363V869H448.999ZM483.647 869V848.062H489.35V869H483.647ZM486.499 845.367C485.639 845.367 484.917 845.074 484.331 844.488C483.745 843.902 483.452 843.206 483.452 842.398C483.452 841.578 483.745 840.882 484.331 840.309C484.917 839.723 485.639 839.43 486.499 839.43C487.358 839.43 488.081 839.723 488.667 840.309C489.252 840.882 489.545 841.578 489.545 842.398C489.545 843.206 489.252 843.902 488.667 844.488C488.081 845.074 487.358 845.367 486.499 845.367ZM501.792 869.43C499.864 869.43 498.224 869.15 496.87 868.59C495.515 868.03 494.454 867.255 493.686 866.266C492.931 865.263 492.475 864.104 492.319 862.789L492.299 862.613H497.866L497.905 862.789C498.087 863.609 498.497 864.247 499.135 864.703C499.773 865.159 500.659 865.387 501.792 865.387C502.521 865.387 503.139 865.302 503.647 865.133C504.155 864.951 504.545 864.697 504.819 864.371C505.105 864.046 505.249 863.655 505.249 863.199V863.18C505.249 862.62 505.047 862.171 504.643 861.832C504.239 861.493 503.523 861.207 502.495 860.973L498.94 860.23C497.586 859.944 496.453 859.534 495.542 859C494.643 858.453 493.966 857.783 493.51 856.988C493.055 856.181 492.827 855.257 492.827 854.215V854.195C492.827 852.854 493.185 851.695 493.901 850.719C494.617 849.742 495.633 848.987 496.948 848.453C498.276 847.906 499.825 847.633 501.596 847.633C503.445 847.633 505.014 847.932 506.303 848.531C507.605 849.117 508.601 849.911 509.292 850.914C509.995 851.917 510.366 853.03 510.405 854.254V854.449H505.151L505.131 854.293C505.04 853.538 504.689 852.913 504.077 852.418C503.478 851.91 502.651 851.656 501.596 851.656C500.945 851.656 500.379 851.747 499.897 851.93C499.415 852.112 499.044 852.372 498.784 852.711C498.523 853.036 498.393 853.427 498.393 853.883V853.902C498.393 854.254 498.478 854.573 498.647 854.859C498.829 855.133 499.129 855.374 499.545 855.582C499.962 855.79 500.522 855.973 501.225 856.129L504.78 856.891C506.98 857.346 508.556 858.03 509.506 858.941C510.47 859.853 510.952 861.077 510.952 862.613V862.633C510.952 864 510.561 865.191 509.78 866.207C508.999 867.223 507.918 868.017 506.538 868.59C505.17 869.15 503.588 869.43 501.792 869.43ZM519.995 869.332C518.601 869.332 517.377 869.065 516.323 868.531C515.268 867.984 514.441 867.236 513.842 866.285C513.256 865.322 512.963 864.228 512.963 863.004V862.965C512.963 861.689 513.282 860.602 513.92 859.703C514.558 858.792 515.483 858.076 516.694 857.555C517.905 857.034 519.376 856.715 521.108 856.598L529.272 856.09V859.645L521.967 860.113C520.874 860.178 520.04 860.439 519.467 860.895C518.894 861.337 518.608 861.93 518.608 862.672V862.711C518.608 863.479 518.901 864.085 519.487 864.527C520.073 864.957 520.861 865.172 521.85 865.172C522.696 865.172 523.452 865.009 524.116 864.684C524.793 864.345 525.32 863.889 525.698 863.316C526.088 862.73 526.284 862.073 526.284 861.344V854.996C526.284 854.072 525.991 853.342 525.405 852.809C524.819 852.262 523.966 851.988 522.846 851.988C521.779 851.988 520.932 852.21 520.307 852.652C519.682 853.095 519.298 853.655 519.155 854.332L519.116 854.508H513.901L513.92 854.273C514.025 852.984 514.448 851.839 515.19 850.836C515.945 849.833 516.987 849.052 518.315 848.492C519.656 847.919 521.245 847.633 523.081 847.633C524.89 847.633 526.46 847.926 527.788 848.512C529.116 849.085 530.144 849.898 530.874 850.953C531.616 852.008 531.987 853.238 531.987 854.645V869H526.284V865.875H526.167C525.776 866.591 525.268 867.21 524.643 867.73C524.031 868.238 523.335 868.635 522.553 868.922C521.772 869.195 520.919 869.332 519.995 869.332Z" fill="#4AB21E"/>
<path d="M130 78.25C137.989 78.25 144.453 84.5472 144.453 92.3008C144.453 100.054 137.989 106.352 130 106.352C122.011 106.351 115.547 100.054 115.547 92.3008C115.547 84.5473 122.011 78.2501 130 78.25Z" fill="#FFBD2D" stroke="#DF9C18" stroke-width="0.5"/>
<path d="M175.296 78.25C183.285 78.25 189.749 84.5472 189.75 92.3008C189.75 100.054 183.285 106.352 175.296 106.352C167.308 106.351 160.843 100.054 160.843 92.3008C160.843 84.5473 167.308 78.2501 175.296 78.25Z" fill="#2ACB40" stroke="#29AB2A" stroke-width="0.5"/>
<path d="M84.7031 78.25C92.692 78.25 99.1562 84.5472 99.1562 92.3008C99.1562 100.054 92.6921 106.352 84.7031 106.352C76.7143 106.351 70.25 100.054 70.25 92.3008C70.2501 84.5473 76.7143 78.2501 84.7031 78.25Z" fill="#FE6057" stroke="#F9504A" stroke-width="0.5"/>
<defs>
<filter id="filter0_d_5_33" x="-10" y="-4" width="1532" height="989" filterUnits="userSpaceOnUse" color-interpolation-filters="sRGB">
<feFlood flood-opacity="0" result="BackgroundImageFix"/>
<feColorMatrix in="SourceAlpha" type="matrix" values="0 0 0 0 0 0 0 0 0 0 0 0 0 0 0 0 0 0 127 0" result="hardAlpha"/>
<feMorphology radius="5" operator="dilate" in="SourceAlpha" result="effect1_dropShadow_5_33"/>
<feOffset/>
<feGaussianBlur stdDeviation="25"/>
<feComposite in2="hardAlpha" operator="out"/>
<feColorMatrix type="matrix" values="0 0 0 0 0 0 0 0 0 0 0 0 0 0 0 0 0 0 0.25 0"/>
<feBlend mode="normal" in2="BackgroundImageFix" result="effect1_dropShadow_5_33"/>
<feBlend mode="normal" in="SourceGraphic" in2="effect1_dropShadow_5_33" result="shape"/>
</filter>
<filter id="filter1_i_5_33" x="979" y="830" width="261" height="54" filterUnits="userSpaceOnUse" color-interpolation-filters="sRGB">
<feFlood flood-opacity="0" result="BackgroundImageFix"/>
<feBlend mode="normal" in="SourceGraphic" in2="BackgroundImageFix" result="shape"/>
<feColorMatrix in="SourceAlpha" type="matrix" values="0 0 0 0 0 0 0 0 0 0 0 0 0 0 0 0 0 0 127 0" result="hardAlpha"/>
<feOffset dy="4"/>
<feGaussianBlur stdDeviation="2"/>
<feComposite in2="hardAlpha" operator="arithmetic" k2="-1" k3="1"/>
<feColorMatrix type="matrix" values="0 0 0 0 0 0 0 0 0 0 0 0 0 0 0 0 0 0 0.25 0"/>
<feBlend mode="normal" in2="shape" result="effect1_innerShadow_5_33"/>
</filter>
<filter id="filter2_i_5_33" x="669" y="832" width="178" height="54" filterUnits="userSpaceOnUse" color-interpolation-filters="sRGB">
<feFlood flood-opacity="0" result="BackgroundImageFix"/>
<feBlend mode="normal" in="SourceGraphic" in2="BackgroundImageFix" result="shape"/>
<feColorMatrix in="SourceAlpha" type="matrix" values="0 0 0 0 0 0 0 0 0 0 0 0 0 0 0 0 0 0 127 0" result="hardAlpha"/>
<feOffset dy="4"/>
<feGaussianBlur stdDeviation="2"/>
<feComposite in2="hardAlpha" operator="arithmetic" k2="-1" k3="1"/>
<feColorMatrix type="matrix" values="0 0 0 0 0 0 0 0 0 0 0 0 0 0 0 0 0 0 0.25 0"/>
<feBlend mode="normal" in2="shape" result="effect1_innerShadow_5_33"/>
</filter>
<filter id="filter3_i_5_33" x="377" y="833" width="162" height="54" filterUnits="userSpaceOnUse" color-interpolation-filters="sRGB">
<feFlood flood-opacity="0" result="BackgroundImageFix"/>
<feBlend mode="normal" in="SourceGraphic" in2="BackgroundImageFix" result="shape"/>
<feColorMatrix in="SourceAlpha" type="matrix" values="0 0 0 0 0 0 0 0 0 0 0 0 0 0 0 0 0 0 127 0" result="hardAlpha"/>
<feOffset dy="4"/>
<feGaussianBlur stdDeviation="2"/>
<feComposite in2="hardAlpha" operator="arithmetic" k2="-1" k3="1"/>
<feColorMatrix type="matrix" values="0 0 0 0 0 0 0 0 0 0 0 0 0 0 0 0 0 0 0.25 0"/>
<feBlend mode="normal" in2="shape" result="effect1_innerShadow_5_33"/>
</filter>
</defs>
</svg>
