<svg width="1512" height="982" viewBox="0 0 1512 982" fill="none" xmlns="http://www.w3.org/2000/svg">
<g filter="url(#filter0_d_5_33)">
<rect x="45" y="51" width="1422" height="879" rx="20" fill="white"/>
</g>
<rect x="45" y="134" width="1422" height="644" fill="#FEFCD4"/>
<path d="M626.133 98.207H632.246C632.272 98.6367 632.396 99.0534 632.617 99.457C632.839 99.8607 633.151 100.225 633.555 100.551C633.971 100.876 634.473 101.13 635.059 101.312C635.658 101.495 636.354 101.586 637.148 101.586C638.125 101.586 638.932 101.456 639.57 101.195C640.221 100.935 640.71 100.577 641.035 100.121C641.361 99.6523 641.523 99.1185 641.523 98.5195C641.523 97.6862 641.185 97.0482 640.508 96.6055C639.844 96.1628 638.861 95.8047 637.559 95.5312L633.789 94.7109C632.474 94.4505 631.283 94.0273 630.215 93.4414C629.147 92.8424 628.294 92.0286 627.656 91C627.018 89.9714 626.699 88.6823 626.699 87.1328C626.699 85.362 627.155 83.8581 628.066 82.6211C628.978 81.3841 630.215 80.4466 631.777 79.8086C633.34 79.1576 635.111 78.832 637.09 78.832C639.238 78.832 641.074 79.1966 642.598 79.9258C644.134 80.6419 645.312 81.612 646.133 82.8359C646.953 84.0599 647.37 85.4336 647.383 86.957H641.465C641.426 86.3971 641.243 85.8698 640.918 85.375C640.592 84.8802 640.111 84.4766 639.473 84.1641C638.848 83.8385 638.053 83.6758 637.09 83.6758C635.814 83.6758 634.824 83.9492 634.121 84.4961C633.431 85.0299 633.086 85.7396 633.086 86.625C633.086 87.3411 633.392 87.9271 634.004 88.3828C634.629 88.8385 635.521 89.1771 636.68 89.3984L640.527 90.1992C641.816 90.4466 643.014 90.8503 644.121 91.4102C645.228 91.9701 646.12 92.7708 646.797 93.8125C647.487 94.8411 647.832 96.1953 647.832 97.875C647.832 99.6198 647.402 101.137 646.543 102.426C645.684 103.715 644.44 104.717 642.812 105.434C641.185 106.137 639.212 106.488 636.895 106.488C634.863 106.488 633.158 106.247 631.777 105.766C630.41 105.271 629.31 104.62 628.477 103.812C627.656 102.992 627.064 102.094 626.699 101.117C626.335 100.141 626.146 99.1706 626.133 98.207ZM653.496 85.1406V80.2969H659.512V85.1406H663.496V89.8672H659.512V98.9688C659.512 99.8932 659.74 100.538 660.195 100.902C660.651 101.254 661.361 101.43 662.324 101.43C662.572 101.43 662.812 101.43 663.047 101.43C663.281 101.417 663.451 101.404 663.555 101.391V105.902C663.32 105.928 662.956 105.961 662.461 106C661.979 106.052 661.432 106.078 660.82 106.078C659.036 106.078 657.598 105.883 656.504 105.492C655.41 105.089 654.609 104.444 654.102 103.559C653.594 102.673 653.34 101.508 653.34 100.062V89.8672H650.312V85.1406H653.496ZM673.125 106.312C671.094 106.312 669.434 105.753 668.145 104.633C666.868 103.513 666.23 101.964 666.23 99.9844C666.23 98.0833 666.868 96.5729 668.145 95.4531C669.434 94.3203 671.296 93.7539 673.73 93.7539H678.574V92.0156C678.574 91.1562 678.32 90.4987 677.812 90.043C677.305 89.5872 676.608 89.3594 675.723 89.3594C675.137 89.3594 674.629 89.4635 674.199 89.6719C673.77 89.8672 673.438 90.1471 673.203 90.5117C672.969 90.8763 672.839 91.293 672.812 91.7617H666.992C667.031 90.9154 667.201 90.082 667.5 89.2617C667.812 88.4414 668.301 87.6992 668.965 87.0352C669.642 86.3581 670.54 85.8242 671.66 85.4336C672.78 85.0299 674.167 84.8281 675.82 84.8281C677.487 84.8281 678.991 85.082 680.332 85.5898C681.673 86.0846 682.734 86.8659 683.516 87.9336C684.297 88.9883 684.688 90.375 684.688 92.0938V106H678.867V103.5H678.574C678.34 103.982 677.988 104.438 677.52 104.867C677.064 105.284 676.471 105.629 675.742 105.902C675.026 106.176 674.154 106.312 673.125 106.312ZM675.273 101.977C675.859 101.977 676.406 101.866 676.914 101.645C677.422 101.41 677.826 101.085 678.125 100.668C678.424 100.251 678.574 99.763 678.574 99.2031V97.1328H675.371C674.395 97.1328 673.652 97.3542 673.145 97.7969C672.637 98.2266 672.383 98.793 672.383 99.4961C672.383 100.329 672.676 100.954 673.262 101.371C673.861 101.775 674.531 101.977 675.273 101.977ZM689.082 106V85.1406H695.312V88.207H695.586C695.716 87.7383 695.977 87.25 696.367 86.7422C696.758 86.2214 697.279 85.7786 697.93 85.4141C698.594 85.0365 699.382 84.8477 700.293 84.8477C700.736 84.8477 701.107 84.8607 701.406 84.8867C701.719 84.9128 701.973 84.9583 702.168 85.0234V90.3164C701.947 90.2383 701.628 90.1797 701.211 90.1406C700.794 90.0885 700.352 90.0625 699.883 90.0625C698.815 90.0625 697.956 90.2578 697.305 90.6484C696.667 91.0391 696.204 91.5859 695.918 92.2891C695.632 92.9922 695.488 93.806 695.488 94.7305V106H689.082ZM707.715 85.1406V80.2969H713.73V85.1406H717.715V89.8672H713.73V98.9688C713.73 99.8932 713.958 100.538 714.414 100.902C714.87 101.254 715.579 101.43 716.543 101.43C716.79 101.43 717.031 101.43 717.266 101.43C717.5 101.417 717.669 101.404 717.773 101.391V105.902C717.539 105.928 717.174 105.961 716.68 106C716.198 106.052 715.651 106.078 715.039 106.078C713.255 106.078 711.816 105.883 710.723 105.492C709.629 105.089 708.828 104.444 708.32 103.559C707.812 102.673 707.559 101.508 707.559 100.062V89.8672H704.531V85.1406H707.715ZM721.934 106V85.1406H728.164V106H721.934ZM721.68 79.8867C721.68 78.9622 722.012 78.2266 722.676 77.6797C723.34 77.1328 724.134 76.8594 725.059 76.8594C725.983 76.8594 726.771 77.1328 727.422 77.6797C728.086 78.2266 728.418 78.9622 728.418 79.8867C728.418 80.8112 728.086 81.5534 727.422 82.1133C726.771 82.6732 725.983 82.9531 725.059 82.9531C724.134 82.9531 723.34 82.6732 722.676 82.1133C722.012 81.5534 721.68 80.8112 721.68 79.8867ZM732.949 106V85.1406H738.984V88.3633H739.258C739.466 87.8685 739.818 87.3477 740.312 86.8008C740.807 86.2539 741.465 85.7917 742.285 85.4141C743.118 85.0234 744.121 84.8281 745.293 84.8281C747.402 84.8281 749.102 85.4792 750.391 86.7812C751.68 88.0703 752.324 89.9909 752.324 92.543V106H746.113V94.0078C746.113 92.9922 745.944 92.1979 745.605 91.625C745.267 91.0391 744.831 90.6289 744.297 90.3945C743.776 90.1471 743.229 90.0234 742.656 90.0234C741.953 90.0234 741.335 90.1862 740.801 90.5117C740.28 90.8372 739.876 91.306 739.59 91.918C739.303 92.5169 739.16 93.2331 739.16 94.0664V106H732.949ZM765.938 109.262C767.174 109.262 768.125 108.917 768.789 108.227C769.453 107.549 769.785 106.573 769.785 105.297V102.387H769.492C769.31 102.855 769.043 103.292 768.691 103.695C768.34 104.086 767.917 104.431 767.422 104.73C766.927 105.03 766.361 105.264 765.723 105.434C765.098 105.59 764.414 105.668 763.672 105.668C762.122 105.668 760.768 105.297 759.609 104.555C758.451 103.812 757.552 102.706 756.914 101.234C756.276 99.763 755.957 97.9466 755.957 95.7852V94.7695C755.957 92.6081 756.276 90.7982 756.914 89.3398C757.552 87.8815 758.444 86.7812 759.59 86.0391C760.749 85.2839 762.109 84.9062 763.672 84.9062C764.648 84.9062 765.527 85.056 766.309 85.3555C767.103 85.6419 767.773 86.0391 768.32 86.5469C768.867 87.0547 769.271 87.6406 769.531 88.3047H769.824V85.1406H775.996V105.824C775.996 107.309 775.69 108.546 775.078 109.535C774.479 110.538 773.678 111.339 772.676 111.938C771.673 112.549 770.573 112.979 769.375 113.227C768.19 113.487 767.005 113.617 765.82 113.617C763.685 113.617 761.934 113.318 760.566 112.719C759.199 112.133 758.177 111.345 757.5 110.355C756.823 109.379 756.452 108.311 756.387 107.152H762.305C762.422 107.582 762.643 107.953 762.969 108.266C763.294 108.591 763.711 108.839 764.219 109.008C764.727 109.177 765.299 109.262 765.938 109.262ZM766.094 89.75C765.339 89.75 764.681 89.9453 764.121 90.3359C763.561 90.7135 763.125 91.2865 762.812 92.0547C762.513 92.8099 762.363 93.7539 762.363 94.8867V96.0586C762.363 97.1654 762.513 98.1094 762.812 98.8906C763.125 99.6589 763.561 100.238 764.121 100.629C764.681 101.02 765.339 101.215 766.094 101.215C766.849 101.215 767.5 101.02 768.047 100.629C768.594 100.225 769.017 99.6393 769.316 98.8711C769.629 98.1029 769.785 97.1654 769.785 96.0586V94.8867C769.785 93.7669 769.629 92.8294 769.316 92.0742C769.004 91.306 768.574 90.7266 768.027 90.3359C767.48 89.9453 766.836 89.75 766.094 89.75ZM787.266 98.207H793.379C793.405 98.6367 793.529 99.0534 793.75 99.457C793.971 99.8607 794.284 100.225 794.688 100.551C795.104 100.876 795.605 101.13 796.191 101.312C796.79 101.495 797.487 101.586 798.281 101.586C799.258 101.586 800.065 101.456 800.703 101.195C801.354 100.935 801.842 100.577 802.168 100.121C802.493 99.6523 802.656 99.1185 802.656 98.5195C802.656 97.6862 802.318 97.0482 801.641 96.6055C800.977 96.1628 799.993 95.8047 798.691 95.5312L794.922 94.7109C793.607 94.4505 792.415 94.0273 791.348 93.4414C790.28 92.8424 789.427 92.0286 788.789 91C788.151 89.9714 787.832 88.6823 787.832 87.1328C787.832 85.362 788.288 83.8581 789.199 82.6211C790.111 81.3841 791.348 80.4466 792.91 79.8086C794.473 79.1576 796.243 78.832 798.223 78.832C800.371 78.832 802.207 79.1966 803.73 79.9258C805.267 80.6419 806.445 81.612 807.266 82.8359C808.086 84.0599 808.503 85.4336 808.516 86.957H802.598C802.559 86.3971 802.376 85.8698 802.051 85.375C801.725 84.8802 801.243 84.4766 800.605 84.1641C799.98 83.8385 799.186 83.6758 798.223 83.6758C796.947 83.6758 795.957 83.9492 795.254 84.4961C794.564 85.0299 794.219 85.7396 794.219 86.625C794.219 87.3411 794.525 87.9271 795.137 88.3828C795.762 88.8385 796.654 89.1771 797.812 89.3984L801.66 90.1992C802.949 90.4466 804.147 90.8503 805.254 91.4102C806.361 91.9701 807.253 92.7708 807.93 93.8125C808.62 94.8411 808.965 96.1953 808.965 97.875C808.965 99.6198 808.535 101.137 807.676 102.426C806.816 103.715 805.573 104.717 803.945 105.434C802.318 106.137 800.345 106.488 798.027 106.488C795.996 106.488 794.29 106.247 792.91 105.766C791.543 105.271 790.443 104.62 789.609 103.812C788.789 102.992 788.197 102.094 787.832 101.117C787.467 100.141 787.279 99.1706 787.266 98.207ZM821.66 84.7695C823.77 84.7695 825.56 85.1992 827.031 86.0586C828.503 86.918 829.622 88.1029 830.391 89.6133C831.159 91.1237 831.543 92.8555 831.543 94.8086V96.1562C831.543 98.2526 831.159 100.069 830.391 101.605C829.622 103.142 828.503 104.327 827.031 105.16C825.56 105.98 823.77 106.391 821.66 106.391C819.551 106.391 817.754 105.98 816.27 105.16C814.798 104.327 813.672 103.148 812.891 101.625C812.122 100.089 811.738 98.2721 811.738 96.1758V94.8477C811.738 92.8945 812.122 91.1628 812.891 89.6523C813.672 88.1289 814.798 86.9375 816.27 86.0781C817.754 85.2057 819.551 84.7695 821.66 84.7695ZM821.641 89.418C820.768 89.418 820.065 89.6654 819.531 90.1602C819.01 90.6419 818.633 91.293 818.398 92.1133C818.164 92.9206 818.047 93.806 818.047 94.7695V96.3516C818.047 97.25 818.158 98.1094 818.379 98.9297C818.613 99.75 818.991 100.421 819.512 100.941C820.046 101.462 820.755 101.723 821.641 101.723C822.539 101.723 823.249 101.469 823.77 100.961C824.29 100.44 824.661 99.7695 824.883 98.9492C825.117 98.1289 825.234 97.263 825.234 96.3516V94.7695C825.234 93.806 825.117 92.9206 824.883 92.1133C824.648 91.293 824.271 90.6419 823.75 90.1602C823.229 89.6654 822.526 89.418 821.641 89.418ZM844.316 84.7695C846.426 84.7695 848.216 85.1992 849.688 86.0586C851.159 86.918 852.279 88.1029 853.047 89.6133C853.815 91.1237 854.199 92.8555 854.199 94.8086V96.1562C854.199 98.2526 853.815 100.069 853.047 101.605C852.279 103.142 851.159 104.327 849.688 105.16C848.216 105.98 846.426 106.391 844.316 106.391C842.207 106.391 840.41 105.98 838.926 105.16C837.454 104.327 836.328 103.148 835.547 101.625C834.779 100.089 834.395 98.2721 834.395 96.1758V94.8477C834.395 92.8945 834.779 91.1628 835.547 89.6523C836.328 88.1289 837.454 86.9375 838.926 86.0781C840.41 85.2057 842.207 84.7695 844.316 84.7695ZM844.297 89.418C843.424 89.418 842.721 89.6654 842.188 90.1602C841.667 90.6419 841.289 91.293 841.055 92.1133C840.82 92.9206 840.703 93.806 840.703 94.7695V96.3516C840.703 97.25 840.814 98.1094 841.035 98.9297C841.27 99.75 841.647 100.421 842.168 100.941C842.702 101.462 843.411 101.723 844.297 101.723C845.195 101.723 845.905 101.469 846.426 100.961C846.947 100.44 847.318 99.7695 847.539 98.9492C847.773 98.1289 847.891 97.263 847.891 96.3516V94.7695C847.891 93.806 847.773 92.9206 847.539 92.1133C847.305 91.293 846.927 90.6419 846.406 90.1602C845.885 89.6654 845.182 89.418 844.297 89.418ZM857.91 106V85.1406H863.945V88.3633H864.219C864.427 87.8685 864.779 87.3477 865.273 86.8008C865.768 86.2539 866.426 85.7917 867.246 85.4141C868.079 85.0234 869.082 84.8281 870.254 84.8281C872.363 84.8281 874.062 85.4792 875.352 86.7812C876.641 88.0703 877.285 89.9909 877.285 92.543V106H871.074V94.0078C871.074 92.9922 870.905 92.1979 870.566 91.625C870.228 91.0391 869.792 90.6289 869.258 90.3945C868.737 90.1471 868.19 90.0234 867.617 90.0234C866.914 90.0234 866.296 90.1862 865.762 90.5117C865.241 90.8372 864.837 91.306 864.551 91.918C864.264 92.5169 864.121 93.2331 864.121 94.0664V106H857.91Z" fill="#525252"/>
<g filter="url(#filter1_i_5_33)">
<rect x="979" y="830" width="261" height="50" rx="10" fill="#FEFCD4"/>
</g>
<path d="M979.592 869V848.062H985.295V851.578H985.413C985.842 850.38 986.571 849.423 987.6 848.707C988.642 847.991 989.866 847.633 991.272 847.633C992.249 847.633 993.127 847.802 993.909 848.141C994.69 848.479 995.347 848.967 995.881 849.605C996.428 850.243 996.812 851.025 997.034 851.949H997.151C997.463 851.064 997.932 850.302 998.557 849.664C999.195 849.013 999.944 848.512 1000.8 848.16C1001.68 847.809 1002.63 847.633 1003.65 847.633C1005.02 847.633 1006.22 847.926 1007.25 848.512C1008.28 849.098 1009.08 849.918 1009.65 850.973C1010.22 852.027 1010.51 853.264 1010.51 854.684V869H1004.81V856.109C1004.81 855.302 1004.67 854.618 1004.4 854.059C1004.14 853.499 1003.75 853.076 1003.24 852.789C1002.75 852.503 1002.13 852.359 1001.39 852.359C1000.67 852.359 1000.04 852.522 999.495 852.848C998.961 853.173 998.544 853.629 998.245 854.215C997.945 854.801 997.795 855.484 997.795 856.266V869H992.307V855.934C992.307 855.178 992.17 854.534 991.897 854C991.624 853.466 991.233 853.062 990.725 852.789C990.23 852.503 989.631 852.359 988.928 852.359C988.212 852.359 987.581 852.529 987.034 852.867C986.487 853.206 986.057 853.674 985.745 854.273C985.445 854.872 985.295 855.569 985.295 856.363V869H979.592ZM1014.24 869V848.062H1019.94V869H1014.24ZM1017.09 845.367C1016.23 845.367 1015.51 845.074 1014.92 844.488C1014.34 843.902 1014.05 843.206 1014.05 842.398C1014.05 841.578 1014.34 840.882 1014.92 840.309C1015.51 839.723 1016.23 839.43 1017.09 839.43C1017.95 839.43 1018.67 839.723 1019.26 840.309C1019.85 840.882 1020.14 841.578 1020.14 842.398C1020.14 843.206 1019.85 843.902 1019.26 844.488C1018.67 845.074 1017.95 845.367 1017.09 845.367ZM1032.39 869.43C1030.46 869.43 1028.82 869.15 1027.46 868.59C1026.11 868.03 1025.05 867.255 1024.28 866.266C1023.52 865.263 1023.07 864.104 1022.91 862.789L1022.89 862.613H1028.46L1028.5 862.789C1028.68 863.609 1029.09 864.247 1029.73 864.703C1030.37 865.159 1031.25 865.387 1032.39 865.387C1033.11 865.387 1033.73 865.302 1034.24 865.133C1034.75 864.951 1035.14 864.697 1035.41 864.371C1035.7 864.046 1035.84 863.655 1035.84 863.199V863.18C1035.84 862.62 1035.64 862.171 1035.24 861.832C1034.83 861.493 1034.12 861.207 1033.09 860.973L1029.53 860.23C1028.18 859.944 1027.05 859.534 1026.14 859C1025.24 858.453 1024.56 857.783 1024.1 856.988C1023.65 856.181 1023.42 855.257 1023.42 854.215V854.195C1023.42 852.854 1023.78 851.695 1024.49 850.719C1025.21 849.742 1026.23 848.987 1027.54 848.453C1028.87 847.906 1030.42 847.633 1032.19 847.633C1034.04 847.633 1035.61 847.932 1036.9 848.531C1038.2 849.117 1039.2 849.911 1039.89 850.914C1040.59 851.917 1040.96 853.03 1041 854.254V854.449H1035.74L1035.73 854.293C1035.63 853.538 1035.28 852.913 1034.67 852.418C1034.07 851.91 1033.24 851.656 1032.19 851.656C1031.54 851.656 1030.97 851.747 1030.49 851.93C1030.01 852.112 1029.64 852.372 1029.38 852.711C1029.12 853.036 1028.99 853.427 1028.99 853.883V853.902C1028.99 854.254 1029.07 854.573 1029.24 854.859C1029.42 855.133 1029.72 855.374 1030.14 855.582C1030.56 855.79 1031.12 855.973 1031.82 856.129L1035.37 856.891C1037.57 857.346 1039.15 858.03 1040.1 858.941C1041.06 859.853 1041.55 861.077 1041.55 862.613V862.633C1041.55 864 1041.15 865.191 1040.37 866.207C1039.59 867.223 1038.51 868.017 1037.13 868.59C1035.76 869.15 1034.18 869.43 1032.39 869.43ZM1050.59 869.332C1049.2 869.332 1047.97 869.065 1046.92 868.531C1045.86 867.984 1045.03 867.236 1044.44 866.285C1043.85 865.322 1043.56 864.228 1043.56 863.004V862.965C1043.56 861.689 1043.88 860.602 1044.51 859.703C1045.15 858.792 1046.08 858.076 1047.29 857.555C1048.5 857.034 1049.97 856.715 1051.7 856.598L1059.87 856.09V859.645L1052.56 860.113C1051.47 860.178 1050.63 860.439 1050.06 860.895C1049.49 861.337 1049.2 861.93 1049.2 862.672V862.711C1049.2 863.479 1049.49 864.085 1050.08 864.527C1050.67 864.957 1051.45 865.172 1052.44 865.172C1053.29 865.172 1054.05 865.009 1054.71 864.684C1055.39 864.345 1055.91 863.889 1056.29 863.316C1056.68 862.73 1056.88 862.073 1056.88 861.344V854.996C1056.88 854.072 1056.58 853.342 1056 852.809C1055.41 852.262 1054.56 851.988 1053.44 851.988C1052.37 851.988 1051.53 852.21 1050.9 852.652C1050.28 853.095 1049.89 853.655 1049.75 854.332L1049.71 854.508H1044.49L1044.51 854.273C1044.62 852.984 1045.04 851.839 1045.78 850.836C1046.54 849.833 1047.58 849.052 1048.91 848.492C1050.25 847.919 1051.84 847.633 1053.67 847.633C1055.48 847.633 1057.05 847.926 1058.38 848.512C1059.71 849.085 1060.74 849.898 1061.47 850.953C1062.21 852.008 1062.58 853.238 1062.58 854.645V869H1056.88V865.875H1056.76C1056.37 866.591 1055.86 867.21 1055.24 867.73C1054.62 868.238 1053.93 868.635 1053.15 868.922C1052.37 869.195 1051.51 869.332 1050.59 869.332ZM1066.27 869V848.062H1071.98V851.578H1072.09C1072.52 850.38 1073.25 849.423 1074.28 848.707C1075.32 847.991 1076.55 847.633 1077.95 847.633C1078.93 847.633 1079.81 847.802 1080.59 848.141C1081.37 848.479 1082.03 848.967 1082.56 849.605C1083.11 850.243 1083.49 851.025 1083.71 851.949H1083.83C1084.14 851.064 1084.61 850.302 1085.24 849.664C1085.87 849.013 1086.62 848.512 1087.48 848.16C1088.36 847.809 1089.31 847.633 1090.33 847.633C1091.7 847.633 1092.9 847.926 1093.93 848.512C1094.96 849.098 1095.76 849.918 1096.33 850.973C1096.9 852.027 1097.19 853.264 1097.19 854.684V869H1091.49V856.109C1091.49 855.302 1091.35 854.618 1091.08 854.059C1090.82 853.499 1090.43 853.076 1089.92 852.789C1089.43 852.503 1088.81 852.359 1088.07 852.359C1087.35 852.359 1086.72 852.522 1086.17 852.848C1085.64 853.173 1085.22 853.629 1084.92 854.215C1084.62 854.801 1084.48 855.484 1084.48 856.266V869H1078.99V855.934C1078.99 855.178 1078.85 854.534 1078.58 854C1078.3 853.466 1077.91 853.062 1077.4 852.789C1076.91 852.503 1076.31 852.359 1075.61 852.359C1074.89 852.359 1074.26 852.529 1073.71 852.867C1073.17 853.206 1072.74 853.674 1072.42 854.273C1072.12 854.872 1071.98 855.569 1071.98 856.363V869H1066.27ZM1100.92 869V848.062H1106.62V869H1100.92ZM1103.77 845.367C1102.91 845.367 1102.19 845.074 1101.6 844.488C1101.02 843.902 1100.73 843.206 1100.73 842.398C1100.73 841.578 1101.02 840.882 1101.6 840.309C1102.19 839.723 1102.91 839.43 1103.77 839.43C1104.63 839.43 1105.35 839.723 1105.94 840.309C1106.53 840.882 1106.82 841.578 1106.82 842.398C1106.82 843.206 1106.53 843.902 1105.94 844.488C1105.35 845.074 1104.63 845.367 1103.77 845.367ZM1119.06 869.43C1117.14 869.43 1115.5 869.15 1114.14 868.59C1112.79 868.03 1111.73 867.255 1110.96 866.266C1110.2 865.263 1109.75 864.104 1109.59 862.789L1109.57 862.613H1115.14L1115.18 862.789C1115.36 863.609 1115.77 864.247 1116.41 864.703C1117.05 865.159 1117.93 865.387 1119.06 865.387C1119.79 865.387 1120.41 865.302 1120.92 865.133C1121.43 864.951 1121.82 864.697 1122.09 864.371C1122.38 864.046 1122.52 863.655 1122.52 863.199V863.18C1122.52 862.62 1122.32 862.171 1121.92 861.832C1121.51 861.493 1120.8 861.207 1119.77 860.973L1116.21 860.23C1114.86 859.944 1113.73 859.534 1112.81 859C1111.92 858.453 1111.24 857.783 1110.78 856.988C1110.33 856.181 1110.1 855.257 1110.1 854.215V854.195C1110.1 852.854 1110.46 851.695 1111.17 850.719C1111.89 849.742 1112.91 848.987 1114.22 848.453C1115.55 847.906 1117.1 847.633 1118.87 847.633C1120.72 847.633 1122.29 847.932 1123.58 848.531C1124.88 849.117 1125.87 849.911 1126.56 850.914C1127.27 851.917 1127.64 853.03 1127.68 854.254V854.449H1122.42L1122.4 854.293C1122.31 853.538 1121.96 852.913 1121.35 852.418C1120.75 851.91 1119.92 851.656 1118.87 851.656C1118.22 851.656 1117.65 851.747 1117.17 851.93C1116.69 852.112 1116.32 852.372 1116.06 852.711C1115.8 853.036 1115.67 853.427 1115.67 853.883V853.902C1115.67 854.254 1115.75 854.573 1115.92 854.859C1116.1 855.133 1116.4 855.374 1116.82 855.582C1117.24 855.79 1117.8 855.973 1118.5 856.129L1122.05 856.891C1124.25 857.346 1125.83 858.03 1126.78 858.941C1127.74 859.853 1128.23 861.077 1128.23 862.613V862.633C1128.23 864 1127.83 865.191 1127.05 866.207C1126.27 867.223 1125.19 868.017 1123.81 868.59C1122.44 869.15 1120.86 869.43 1119.06 869.43ZM1137.27 869.332C1135.87 869.332 1134.65 869.065 1133.6 868.531C1132.54 867.984 1131.71 867.236 1131.12 866.285C1130.53 865.322 1130.24 864.228 1130.24 863.004V862.965C1130.24 861.689 1130.56 860.602 1131.19 859.703C1131.83 858.792 1132.76 858.076 1133.97 857.555C1135.18 857.034 1136.65 856.715 1138.38 856.598L1146.55 856.09V859.645L1139.24 860.113C1138.15 860.178 1137.31 860.439 1136.74 860.895C1136.17 861.337 1135.88 861.93 1135.88 862.672V862.711C1135.88 863.479 1136.17 864.085 1136.76 864.527C1137.35 864.957 1138.13 865.172 1139.12 865.172C1139.97 865.172 1140.73 865.009 1141.39 864.684C1142.07 864.345 1142.59 863.889 1142.97 863.316C1143.36 862.73 1143.56 862.073 1143.56 861.344V854.996C1143.56 854.072 1143.26 853.342 1142.68 852.809C1142.09 852.262 1141.24 851.988 1140.12 851.988C1139.05 851.988 1138.21 852.21 1137.58 852.652C1136.96 853.095 1136.57 853.655 1136.43 854.332L1136.39 854.508H1131.17L1131.19 854.273C1131.3 852.984 1131.72 851.839 1132.46 850.836C1133.22 849.833 1134.26 849.052 1135.59 848.492C1136.93 847.919 1138.52 847.633 1140.35 847.633C1142.16 847.633 1143.73 847.926 1145.06 848.512C1146.39 849.085 1147.42 849.898 1148.15 850.953C1148.89 852.008 1149.26 853.238 1149.26 854.645V869H1143.56V865.875H1143.44C1143.05 866.591 1142.54 867.21 1141.92 867.73C1141.3 868.238 1140.61 868.635 1139.83 868.922C1139.05 869.195 1138.19 869.332 1137.27 869.332ZM1155.92 869.332C1155.03 869.332 1154.29 869.026 1153.67 868.414C1153.06 867.802 1152.76 867.053 1152.76 866.168C1152.76 865.283 1153.06 864.534 1153.67 863.922C1154.29 863.31 1155.03 863.004 1155.92 863.004C1156.81 863.004 1157.55 863.31 1158.17 863.922C1158.78 864.534 1159.08 865.283 1159.08 866.168C1159.08 867.053 1158.78 867.802 1158.17 868.414C1157.55 869.026 1156.81 869.332 1155.92 869.332ZM1162.6 875.836V848.062H1168.3V851.715H1168.44C1168.82 850.868 1169.31 850.139 1169.92 849.527C1170.55 848.915 1171.27 848.447 1172.09 848.121C1172.93 847.796 1173.84 847.633 1174.83 847.633C1176.6 847.633 1178.12 848.069 1179.4 848.941C1180.67 849.801 1181.66 851.044 1182.35 852.672C1183.04 854.299 1183.38 856.246 1183.38 858.512V858.531C1183.38 860.797 1183.04 862.743 1182.35 864.371C1181.67 865.999 1180.7 867.249 1179.44 868.121C1178.17 868.993 1176.66 869.43 1174.9 869.43C1173.92 869.43 1173 869.267 1172.15 868.941C1171.3 868.616 1170.57 868.16 1169.94 867.574C1169.32 866.975 1168.81 866.259 1168.42 865.426H1168.3V875.836H1162.6ZM1172.95 864.703C1173.9 864.703 1174.72 864.456 1175.41 863.961C1176.1 863.453 1176.64 862.737 1177.01 861.812C1177.39 860.888 1177.58 859.794 1177.58 858.531V858.512C1177.58 857.236 1177.39 856.135 1177.01 855.211C1176.64 854.286 1176.1 853.583 1175.39 853.102C1174.7 852.607 1173.89 852.359 1172.95 852.359C1172.03 852.359 1171.21 852.613 1170.51 853.121C1169.81 853.616 1169.26 854.326 1168.87 855.25C1168.48 856.161 1168.28 857.255 1168.28 858.531V858.551C1168.28 859.801 1168.48 860.888 1168.87 861.812C1169.27 862.737 1169.82 863.453 1170.51 863.961C1171.21 864.456 1172.03 864.703 1172.95 864.703ZM1186.35 869V848.062H1192.05V851.5H1192.17C1192.72 850.302 1193.52 849.358 1194.59 848.668C1195.66 847.978 1196.98 847.633 1198.56 847.633C1200.86 847.633 1202.64 848.329 1203.89 849.723C1205.15 851.103 1205.78 853.023 1205.78 855.484V869H1200.08V856.656C1200.08 855.289 1199.76 854.234 1199.1 853.492C1198.47 852.737 1197.51 852.359 1196.23 852.359C1195.39 852.359 1194.65 852.555 1194.03 852.945C1193.4 853.323 1192.91 853.857 1192.56 854.547C1192.22 855.237 1192.05 856.044 1192.05 856.969V869H1186.35ZM1219.18 876.266C1217.27 876.266 1215.59 875.999 1214.16 875.465C1212.74 874.944 1211.61 874.234 1210.76 873.336C1209.93 872.438 1209.42 871.428 1209.24 870.309L1209.22 870.133H1214.77L1214.83 870.27C1215.06 870.777 1215.55 871.227 1216.29 871.617C1217.03 872.008 1218 872.203 1219.18 872.203C1220.65 872.203 1221.77 871.852 1222.54 871.148C1223.31 870.445 1223.69 869.508 1223.69 868.336V865.133H1223.58C1223.21 865.862 1222.72 866.493 1222.09 867.027C1221.47 867.561 1220.73 867.978 1219.89 868.277C1219.05 868.564 1218.13 868.707 1217.11 868.707C1215.37 868.707 1213.86 868.29 1212.58 867.457C1211.32 866.624 1210.34 865.432 1209.65 863.883C1208.97 862.32 1208.64 860.458 1208.64 858.297V858.277C1208.64 856.051 1208.98 854.143 1209.67 852.555C1210.37 850.966 1211.36 849.749 1212.64 848.902C1213.92 848.056 1215.44 847.633 1217.21 847.633C1218.2 847.633 1219.1 847.796 1219.92 848.121C1220.74 848.447 1221.46 848.909 1222.07 849.508C1222.7 850.107 1223.2 850.816 1223.58 851.637H1223.69V848.062H1229.4V868.414C1229.4 869.964 1228.98 871.324 1228.15 872.496C1227.33 873.681 1226.15 874.605 1224.61 875.27C1223.09 875.934 1221.28 876.266 1219.18 876.266ZM1219.08 864.527C1220.02 864.527 1220.84 864.28 1221.53 863.785C1222.22 863.29 1222.75 862.587 1223.13 861.676C1223.52 860.764 1223.71 859.684 1223.71 858.434V858.414C1223.71 857.164 1223.52 856.09 1223.13 855.191C1222.75 854.28 1222.21 853.583 1221.51 853.102C1220.82 852.607 1220.01 852.359 1219.08 852.359C1218.15 852.359 1217.33 852.607 1216.62 853.102C1215.92 853.583 1215.38 854.273 1215 855.172C1214.62 856.07 1214.44 857.151 1214.44 858.414V858.434C1214.44 859.684 1214.62 860.764 1215 861.676C1215.38 862.587 1215.92 863.29 1216.62 863.785C1217.33 864.28 1218.15 864.527 1219.08 864.527Z" fill="#4AB21E"/>
<g filter="url(#filter2_i_5_33)">
<rect x="671" y="832" width="178" height="50" rx="10" fill="#FEFCD4"/>
</g>
<path d="M684.346 871.43C682.588 871.43 681.071 870.993 679.795 870.121C678.519 869.249 677.536 867.999 676.846 866.371C676.169 864.743 675.831 862.797 675.831 860.531V860.512C675.831 858.233 676.176 856.286 676.866 854.672C677.556 853.044 678.532 851.801 679.795 850.941C681.071 850.069 682.588 849.633 684.346 849.633C685.336 849.633 686.247 849.796 687.081 850.121C687.914 850.447 688.643 850.915 689.268 851.527C689.906 852.126 690.414 852.849 690.792 853.695H690.909V842.816H696.612V871H690.909V867.426H690.792C690.427 868.259 689.932 868.975 689.307 869.574C688.682 870.16 687.953 870.616 687.12 870.941C686.286 871.267 685.362 871.43 684.346 871.43ZM686.26 866.703C687.185 866.703 687.999 866.456 688.702 865.961C689.405 865.453 689.952 864.737 690.342 863.812C690.733 862.888 690.928 861.794 690.928 860.531V860.512C690.928 859.249 690.726 858.161 690.323 857.25C689.932 856.326 689.385 855.616 688.682 855.121C687.992 854.613 687.185 854.359 686.26 854.359C685.31 854.359 684.489 854.607 683.799 855.102C683.109 855.596 682.575 856.306 682.198 857.23C681.82 858.142 681.631 859.236 681.631 860.512V860.531C681.631 861.794 681.814 862.888 682.178 863.812C682.556 864.737 683.09 865.453 683.78 865.961C684.483 866.456 685.31 866.703 686.26 866.703ZM709.952 871.43C707.816 871.43 705.98 870.993 704.444 870.121C702.907 869.236 701.722 867.979 700.889 866.352C700.069 864.724 699.659 862.797 699.659 860.57V860.551C699.659 858.324 700.069 856.397 700.889 854.77C701.722 853.129 702.888 851.866 704.385 850.98C705.896 850.082 707.673 849.633 709.717 849.633C711.762 849.633 713.526 850.069 715.01 850.941C716.508 851.801 717.66 853.018 718.467 854.594C719.288 856.169 719.698 858.012 719.698 860.121V861.879H702.452V858.285H717.002L714.288 861.645V859.457C714.288 858.233 714.099 857.211 713.721 856.391C713.344 855.557 712.816 854.932 712.139 854.516C711.475 854.099 710.7 853.891 709.815 853.891C708.93 853.891 708.142 854.105 707.452 854.535C706.775 854.965 706.241 855.596 705.85 856.43C705.472 857.25 705.284 858.259 705.284 859.457V861.664C705.284 862.823 705.472 863.812 705.85 864.633C706.241 865.453 706.794 866.085 707.51 866.527C708.226 866.957 709.079 867.172 710.069 867.172C710.85 867.172 711.527 867.048 712.1 866.801C712.673 866.553 713.142 866.241 713.506 865.863C713.871 865.486 714.118 865.102 714.249 864.711L714.288 864.594H719.522L719.463 864.809C719.307 865.577 719.001 866.352 718.545 867.133C718.09 867.914 717.471 868.63 716.69 869.281C715.922 869.932 714.978 870.453 713.858 870.844C712.751 871.234 711.449 871.43 709.952 871.43ZM727.393 871L720.147 850.062H726.241L730.616 865.961H730.733L735.049 850.062H741.006L733.819 871H727.393ZM743.331 862.035V857.055H755.987V862.035H743.331ZM760.342 871V850.062H766.045V853.578H766.163C766.592 852.38 767.321 851.423 768.35 850.707C769.392 849.991 770.616 849.633 772.022 849.633C772.999 849.633 773.877 849.802 774.659 850.141C775.44 850.479 776.097 850.967 776.631 851.605C777.178 852.243 777.562 853.025 777.784 853.949H777.901C778.213 853.064 778.682 852.302 779.307 851.664C779.945 851.013 780.694 850.512 781.553 850.16C782.426 849.809 783.376 849.633 784.405 849.633C785.772 849.633 786.97 849.926 787.999 850.512C789.027 851.098 789.828 851.918 790.401 852.973C790.974 854.027 791.26 855.264 791.26 856.684V871H785.557V858.109C785.557 857.302 785.42 856.618 785.147 856.059C784.887 855.499 784.502 855.076 783.995 854.789C783.5 854.503 782.881 854.359 782.139 854.359C781.423 854.359 780.792 854.522 780.245 854.848C779.711 855.173 779.294 855.629 778.995 856.215C778.695 856.801 778.545 857.484 778.545 858.266V871H773.057V857.934C773.057 857.178 772.92 856.534 772.647 856C772.374 855.466 771.983 855.062 771.475 854.789C770.98 854.503 770.381 854.359 769.678 854.359C768.962 854.359 768.331 854.529 767.784 854.867C767.237 855.206 766.807 855.674 766.495 856.273C766.195 856.872 766.045 857.569 766.045 858.363V871H760.342ZM794.991 871V850.062H800.694V871H794.991ZM797.842 847.367C796.983 847.367 796.26 847.074 795.674 846.488C795.088 845.902 794.795 845.206 794.795 844.398C794.795 843.578 795.088 842.882 795.674 842.309C796.26 841.723 796.983 841.43 797.842 841.43C798.702 841.43 799.424 841.723 800.01 842.309C800.596 842.882 800.889 843.578 800.889 844.398C800.889 845.206 800.596 845.902 800.01 846.488C799.424 847.074 798.702 847.367 797.842 847.367ZM813.135 871.43C811.208 871.43 809.568 871.15 808.213 870.59C806.859 870.03 805.798 869.255 805.03 868.266C804.275 867.263 803.819 866.104 803.663 864.789L803.643 864.613H809.209L809.249 864.789C809.431 865.609 809.841 866.247 810.479 866.703C811.117 867.159 812.002 867.387 813.135 867.387C813.864 867.387 814.483 867.302 814.991 867.133C815.499 866.951 815.889 866.697 816.163 866.371C816.449 866.046 816.592 865.655 816.592 865.199V865.18C816.592 864.62 816.39 864.171 815.987 863.832C815.583 863.493 814.867 863.207 813.838 862.973L810.284 862.23C808.93 861.944 807.797 861.534 806.885 861C805.987 860.453 805.31 859.783 804.854 858.988C804.398 858.181 804.17 857.257 804.17 856.215V856.195C804.17 854.854 804.528 853.695 805.245 852.719C805.961 851.742 806.976 850.987 808.292 850.453C809.62 849.906 811.169 849.633 812.94 849.633C814.789 849.633 816.358 849.932 817.647 850.531C818.949 851.117 819.945 851.911 820.635 852.914C821.338 853.917 821.709 855.03 821.749 856.254V856.449H816.495L816.475 856.293C816.384 855.538 816.032 854.913 815.42 854.418C814.821 853.91 813.995 853.656 812.94 853.656C812.289 853.656 811.722 853.747 811.241 853.93C810.759 854.112 810.388 854.372 810.127 854.711C809.867 855.036 809.737 855.427 809.737 855.883V855.902C809.737 856.254 809.821 856.573 809.991 856.859C810.173 857.133 810.472 857.374 810.889 857.582C811.306 857.79 811.866 857.973 812.569 858.129L816.124 858.891C818.324 859.346 819.9 860.03 820.85 860.941C821.814 861.853 822.295 863.077 822.295 864.613V864.633C822.295 866 821.905 867.191 821.124 868.207C820.342 869.223 819.262 870.017 817.881 870.59C816.514 871.15 814.932 871.43 813.135 871.43ZM831.338 871.332C829.945 871.332 828.721 871.065 827.667 870.531C826.612 869.984 825.785 869.236 825.186 868.285C824.6 867.322 824.307 866.228 824.307 865.004V864.965C824.307 863.689 824.626 862.602 825.264 861.703C825.902 860.792 826.827 860.076 828.038 859.555C829.249 859.034 830.72 858.715 832.452 858.598L840.616 858.09V861.645L833.311 862.113C832.217 862.178 831.384 862.439 830.811 862.895C830.238 863.337 829.952 863.93 829.952 864.672V864.711C829.952 865.479 830.245 866.085 830.831 866.527C831.417 866.957 832.204 867.172 833.194 867.172C834.04 867.172 834.795 867.009 835.459 866.684C836.137 866.345 836.664 865.889 837.042 865.316C837.432 864.73 837.627 864.073 837.627 863.344V856.996C837.627 856.072 837.334 855.342 836.749 854.809C836.163 854.262 835.31 853.988 834.19 853.988C833.122 853.988 832.276 854.21 831.651 854.652C831.026 855.095 830.642 855.655 830.499 856.332L830.459 856.508H825.245L825.264 856.273C825.368 854.984 825.792 853.839 826.534 852.836C827.289 851.833 828.331 851.052 829.659 850.492C831 849.919 832.588 849.633 834.424 849.633C836.234 849.633 837.803 849.926 839.131 850.512C840.459 851.085 841.488 851.898 842.217 852.953C842.959 854.008 843.331 855.238 843.331 856.645V871H837.627V867.875H837.51C837.12 868.591 836.612 869.21 835.987 869.73C835.375 870.238 834.678 870.635 833.897 870.922C833.116 871.195 832.263 871.332 831.338 871.332Z" fill="#4AB21E"/>
<g filter="url(#filter3_i_5_33)">
<rect x="378" y="833" width="162" height="50" rx="10" fill="#FEFCD4"/>
</g>
<path d="M391.346 869.43C389.588 869.43 388.071 868.993 386.795 868.121C385.519 867.249 384.536 865.999 383.846 864.371C383.169 862.743 382.831 860.797 382.831 858.531V858.512C382.831 856.233 383.176 854.286 383.866 852.672C384.556 851.044 385.532 849.801 386.795 848.941C388.071 848.069 389.588 847.633 391.346 847.633C392.336 847.633 393.247 847.796 394.081 848.121C394.914 848.447 395.643 848.915 396.268 849.527C396.906 850.126 397.414 850.849 397.792 851.695H397.909V840.816H403.612V869H397.909V865.426H397.792C397.427 866.259 396.932 866.975 396.307 867.574C395.682 868.16 394.953 868.616 394.12 868.941C393.286 869.267 392.362 869.43 391.346 869.43ZM393.26 864.703C394.185 864.703 394.999 864.456 395.702 863.961C396.405 863.453 396.952 862.737 397.342 861.812C397.733 860.888 397.928 859.794 397.928 858.531V858.512C397.928 857.249 397.726 856.161 397.323 855.25C396.932 854.326 396.385 853.616 395.682 853.121C394.992 852.613 394.185 852.359 393.26 852.359C392.31 852.359 391.489 852.607 390.799 853.102C390.109 853.596 389.575 854.306 389.198 855.23C388.82 856.142 388.631 857.236 388.631 858.512V858.531C388.631 859.794 388.814 860.888 389.178 861.812C389.556 862.737 390.09 863.453 390.78 863.961C391.483 864.456 392.31 864.703 393.26 864.703ZM416.952 869.43C414.816 869.43 412.98 868.993 411.444 868.121C409.907 867.236 408.723 865.979 407.889 864.352C407.069 862.724 406.659 860.797 406.659 858.57V858.551C406.659 856.324 407.069 854.397 407.889 852.77C408.723 851.129 409.888 849.866 411.385 848.98C412.896 848.082 414.673 847.633 416.717 847.633C418.762 847.633 420.526 848.069 422.01 848.941C423.508 849.801 424.66 851.018 425.467 852.594C426.288 854.169 426.698 856.012 426.698 858.121V859.879H409.452V856.285H424.002L421.288 859.645V857.457C421.288 856.233 421.099 855.211 420.721 854.391C420.344 853.557 419.816 852.932 419.139 852.516C418.475 852.099 417.7 851.891 416.815 851.891C415.93 851.891 415.142 852.105 414.452 852.535C413.775 852.965 413.241 853.596 412.85 854.43C412.473 855.25 412.284 856.259 412.284 857.457V859.664C412.284 860.823 412.473 861.812 412.85 862.633C413.241 863.453 413.794 864.085 414.51 864.527C415.226 864.957 416.079 865.172 417.069 865.172C417.85 865.172 418.527 865.048 419.1 864.801C419.673 864.553 420.142 864.241 420.506 863.863C420.871 863.486 421.118 863.102 421.249 862.711L421.288 862.594H426.522L426.463 862.809C426.307 863.577 426.001 864.352 425.545 865.133C425.09 865.914 424.471 866.63 423.69 867.281C422.922 867.932 421.978 868.453 420.858 868.844C419.751 869.234 418.449 869.43 416.952 869.43ZM434.393 869L427.147 848.062H433.241L437.616 863.961H437.733L442.049 848.062H448.006L440.819 869H434.393ZM449.999 869V848.062H455.702V851.578H455.819C456.249 850.38 456.978 849.423 458.006 848.707C459.048 847.991 460.272 847.633 461.678 847.633C462.655 847.633 463.534 847.802 464.315 848.141C465.096 848.479 465.754 848.967 466.288 849.605C466.835 850.243 467.219 851.025 467.44 851.949H467.557C467.87 851.064 468.338 850.302 468.963 849.664C469.601 849.013 470.35 848.512 471.21 848.16C472.082 847.809 473.032 847.633 474.061 847.633C475.428 847.633 476.626 847.926 477.655 848.512C478.683 849.098 479.484 849.918 480.057 850.973C480.63 852.027 480.917 853.264 480.917 854.684V869H475.213V856.109C475.213 855.302 475.077 854.618 474.803 854.059C474.543 853.499 474.159 853.076 473.651 852.789C473.156 852.503 472.538 852.359 471.795 852.359C471.079 852.359 470.448 852.522 469.901 852.848C469.367 853.173 468.95 853.629 468.651 854.215C468.351 854.801 468.202 855.484 468.202 856.266V869H462.713V855.934C462.713 855.178 462.577 854.534 462.303 854C462.03 853.466 461.639 853.062 461.131 852.789C460.637 852.503 460.038 852.359 459.335 852.359C458.618 852.359 457.987 852.529 457.44 852.867C456.893 853.206 456.463 853.674 456.151 854.273C455.851 854.872 455.702 855.569 455.702 856.363V869H449.999ZM484.647 869V848.062H490.35V869H484.647ZM487.499 845.367C486.639 845.367 485.917 845.074 485.331 844.488C484.745 843.902 484.452 843.206 484.452 842.398C484.452 841.578 484.745 840.882 485.331 840.309C485.917 839.723 486.639 839.43 487.499 839.43C488.358 839.43 489.081 839.723 489.667 840.309C490.252 840.882 490.545 841.578 490.545 842.398C490.545 843.206 490.252 843.902 489.667 844.488C489.081 845.074 488.358 845.367 487.499 845.367ZM502.792 869.43C500.864 869.43 499.224 869.15 497.87 868.59C496.515 868.03 495.454 867.255 494.686 866.266C493.931 865.263 493.475 864.104 493.319 862.789L493.299 862.613H498.866L498.905 862.789C499.087 863.609 499.497 864.247 500.135 864.703C500.773 865.159 501.659 865.387 502.792 865.387C503.521 865.387 504.139 865.302 504.647 865.133C505.155 864.951 505.545 864.697 505.819 864.371C506.105 864.046 506.249 863.655 506.249 863.199V863.18C506.249 862.62 506.047 862.171 505.643 861.832C505.239 861.493 504.523 861.207 503.495 860.973L499.94 860.23C498.586 859.944 497.453 859.534 496.542 859C495.643 858.453 494.966 857.783 494.51 856.988C494.055 856.181 493.827 855.257 493.827 854.215V854.195C493.827 852.854 494.185 851.695 494.901 850.719C495.617 849.742 496.633 848.987 497.948 848.453C499.276 847.906 500.825 847.633 502.596 847.633C504.445 847.633 506.014 847.932 507.303 848.531C508.605 849.117 509.601 849.911 510.292 850.914C510.995 851.917 511.366 853.03 511.405 854.254V854.449H506.151L506.131 854.293C506.04 853.538 505.689 852.913 505.077 852.418C504.478 851.91 503.651 851.656 502.596 851.656C501.945 851.656 501.379 851.747 500.897 851.93C500.415 852.112 500.044 852.372 499.784 852.711C499.523 853.036 499.393 853.427 499.393 853.883V853.902C499.393 854.254 499.478 854.573 499.647 854.859C499.829 855.133 500.129 855.374 500.545 855.582C500.962 855.79 501.522 855.973 502.225 856.129L505.78 856.891C507.98 857.346 509.556 858.03 510.506 858.941C511.47 859.853 511.952 861.077 511.952 862.613V862.633C511.952 864 511.561 865.191 510.78 866.207C509.999 867.223 508.918 868.017 507.538 868.59C506.17 869.15 504.588 869.43 502.792 869.43ZM520.995 869.332C519.601 869.332 518.377 869.065 517.323 868.531C516.268 867.984 515.441 867.236 514.842 866.285C514.256 865.322 513.963 864.228 513.963 863.004V862.965C513.963 861.689 514.282 860.602 514.92 859.703C515.558 858.792 516.483 858.076 517.694 857.555C518.905 857.034 520.376 856.715 522.108 856.598L530.272 856.09V859.645L522.967 860.113C521.874 860.178 521.04 860.439 520.467 860.895C519.894 861.337 519.608 861.93 519.608 862.672V862.711C519.608 863.479 519.901 864.085 520.487 864.527C521.073 864.957 521.861 865.172 522.85 865.172C523.696 865.172 524.452 865.009 525.116 864.684C525.793 864.345 526.32 863.889 526.698 863.316C527.088 862.73 527.284 862.073 527.284 861.344V854.996C527.284 854.072 526.991 853.342 526.405 852.809C525.819 852.262 524.966 851.988 523.846 851.988C522.779 851.988 521.932 852.21 521.307 852.652C520.682 853.095 520.298 853.655 520.155 854.332L520.116 854.508H514.901L514.92 854.273C515.025 852.984 515.448 851.839 516.19 850.836C516.945 849.833 517.987 849.052 519.315 848.492C520.656 847.919 522.245 847.633 524.081 847.633C525.89 847.633 527.46 847.926 528.788 848.512C530.116 849.085 531.144 849.898 531.874 850.953C532.616 852.008 532.987 853.238 532.987 854.645V869H527.284V865.875H527.167C526.776 866.591 526.268 867.21 525.643 867.73C525.031 868.238 524.335 868.635 523.553 868.922C522.772 869.195 521.919 869.332 520.995 869.332Z" fill="#4AB21E"/>
<path d="M130 78.25C137.989 78.25 144.453 84.5472 144.453 92.3008C144.453 100.054 137.989 106.352 130 106.352C122.011 106.351 115.547 100.054 115.547 92.3008C115.547 84.5473 122.011 78.2501 130 78.25Z" fill="#FFBD2D" stroke="#DF9C18" stroke-width="0.5"/>
<path d="M175.296 78.25C183.285 78.25 189.749 84.5472 189.75 92.3008C189.75 100.054 183.285 106.352 175.296 106.352C167.308 106.351 160.843 100.054 160.843 92.3008C160.843 84.5473 167.308 78.2501 175.296 78.25Z" fill="#2ACB40" stroke="#29AB2A" stroke-width="0.5"/>
<path d="M84.7031 78.25C92.692 78.25 99.1562 84.5472 99.1562 92.3008C99.1562 100.054 92.6921 106.352 84.7031 106.352C76.7143 106.351 70.25 100.054 70.25 92.3008C70.2501 84.5473 76.7143 78.2501 84.7031 78.25Z" fill="#FE6057" stroke="#F9504A" stroke-width="0.5"/>
<defs>
<filter id="filter0_d_5_33" x="-10" y="-4" width="1532" height="989" filterUnits="userSpaceOnUse" color-interpolation-filters="sRGB">
<feFlood flood-opacity="0" result="BackgroundImageFix"/>
<feColorMatrix in="SourceAlpha" type="matrix" values="0 0 0 0 0 0 0 0 0 0 0 0 0 0 0 0 0 0 127 0" result="hardAlpha"/>
<feMorphology radius="5" operator="dilate" in="SourceAlpha" result="effect1_dropShadow_5_33"/>
<feOffset/>
<feGaussianBlur stdDeviation="25"/>
<feComposite in2="hardAlpha" operator="out"/>
<feColorMatrix type="matrix" values="0 0 0 0 0 0 0 0 0 0 0 0 0 0 0 0 0 0 0.25 0"/>
<feBlend mode="normal" in2="BackgroundImageFix" result="effect1_dropShadow_5_33"/>
<feBlend mode="normal" in="SourceGraphic" in2="effect1_dropShadow_5_33" result="shape"/>
</filter>
<filter id="filter1_i_5_33" x="979" y="830" width="261" height="54" filterUnits="userSpaceOnUse" color-interpolation-filters="sRGB">
<feFlood flood-opacity="0" result="BackgroundImageFix"/>
<feBlend mode="normal" in="SourceGraphic" in2="BackgroundImageFix" result="shape"/>
<feColorMatrix in="SourceAlpha" type="matrix" values="0 0 0 0 0 0 0 0 0 0 0 0 0 0 0 0 0 0 127 0" result="hardAlpha"/>
<feOffset dy="4"/>
<feGaussianBlur stdDeviation="2"/>
<feComposite in2="hardAlpha" operator="arithmetic" k2="-1" k3="1"/>
<feColorMatrix type="matrix" values="0 0 0 0 0 0 0 0 0 0 0 0 0 0 0 0 0 0 0.25 0"/>
<feBlend mode="normal" in2="shape" result="effect1_innerShadow_5_33"/>
</filter>
<filter id="filter2_i_5_33" x="671" y="832" width="178" height="54" filterUnits="userSpaceOnUse" color-interpolation-filters="sRGB">
<feFlood flood-opacity="0" result="BackgroundImageFix"/>
<feBlend mode="normal" in="SourceGraphic" in2="BackgroundImageFix" result="shape"/>
<feColorMatrix in="SourceAlpha" type="matrix" values="0 0 0 0 0 0 0 0 0 0 0 0 0 0 0 0 0 0 127 0" result="hardAlpha"/>
<feOffset dy="4"/>
<feGaussianBlur stdDeviation="2"/>
<feComposite in2="hardAlpha" operator="arithmetic" k2="-1" k3="1"/>
<feColorMatrix type="matrix" values="0 0 0 0 0 0 0 0 0 0 0 0 0 0 0 0 0 0 0.25 0"/>
<feBlend mode="normal" in2="shape" result="effect1_innerShadow_5_33"/>
</filter>
<filter id="filter3_i_5_33" x="378" y="833" width="162" height="54" filterUnits="userSpaceOnUse" color-interpolation-filters="sRGB">
<feFlood flood-opacity="0" result="BackgroundImageFix"/>
<feBlend mode="normal" in="SourceGraphic" in2="BackgroundImageFix" result="shape"/>
<feColorMatrix in="SourceAlpha" type="matrix" values="0 0 0 0 0 0 0 0 0 0 0 0 0 0 0 0 0 0 127 0" result="hardAlpha"/>
<feOffset dy="4"/>
<feGaussianBlur stdDeviation="2"/>
<feComposite in2="hardAlpha" operator="arithmetic" k2="-1" k3="1"/>
<feColorMatrix type="matrix" values="0 0 0 0 0 0 0 0 0 0 0 0 0 0 0 0 0 0 0.25 0"/>
<feBlend mode="normal" in2="shape" result="effect1_innerShadow_5_33"/>
</filter>
</defs>
</svg>
