<svg width="1512" height="982" viewBox="0 0 1512 982" fill="none" xmlns="http://www.w3.org/2000/svg">
<g filter="url(#filter0_d_5_33)">
<rect x="45" y="51" width="1422" height="879" rx="20" fill="white"/>
</g>
<rect x="45" y="134" width="1422" height="644" fill="#FEFCD4"/>
<path d="M616.133 98.207H622.246C622.272 98.6367 622.396 99.0534 622.617 99.457C622.839 99.8607 623.151 100.225 623.555 100.551C623.971 100.876 624.473 101.13 625.059 101.312C625.658 101.495 626.354 101.586 627.148 101.586C628.125 101.586 628.932 101.456 629.57 101.195C630.221 100.935 630.71 100.577 631.035 100.121C631.361 99.6523 631.523 99.1185 631.523 98.5195C631.523 97.6862 631.185 97.0482 630.508 96.6055C629.844 96.1628 628.861 95.8047 627.559 95.5312L623.789 94.7109C622.474 94.4505 621.283 94.0273 620.215 93.4414C619.147 92.8424 618.294 92.0286 617.656 91C617.018 89.9714 616.699 88.6823 616.699 87.1328C616.699 85.362 617.155 83.8581 618.066 82.6211C618.978 81.3841 620.215 80.4466 621.777 79.8086C623.34 79.1576 625.111 78.832 627.09 78.832C629.238 78.832 631.074 79.1966 632.598 79.9258C634.134 80.6419 635.312 81.612 636.133 82.8359C636.953 84.0599 637.37 85.4336 637.383 86.957H631.465C631.426 86.3971 631.243 85.8698 630.918 85.375C630.592 84.8802 630.111 84.4766 629.473 84.1641C628.848 83.8385 628.053 83.6758 627.09 83.6758C625.814 83.6758 624.824 83.9492 624.121 84.4961C623.431 85.0299 623.086 85.7396 623.086 86.625C623.086 87.3411 623.392 87.9271 624.004 88.3828C624.629 88.8385 625.521 89.1771 626.68 89.3984L630.527 90.1992C631.816 90.4466 633.014 90.8503 634.121 91.4102C635.228 91.9701 636.12 92.7708 636.797 93.8125C637.487 94.8411 637.832 96.1953 637.832 97.875C637.832 99.6198 637.402 101.137 636.543 102.426C635.684 103.715 634.44 104.717 632.812 105.434C631.185 106.137 629.212 106.488 626.895 106.488C624.863 106.488 623.158 106.247 621.777 105.766C620.41 105.271 619.31 104.62 618.477 103.812C617.656 102.992 617.064 102.094 616.699 101.117C616.335 100.141 616.146 99.1706 616.133 98.207ZM643.496 85.1406V80.2969H649.512V85.1406H653.496V89.8672H649.512V98.9688C649.512 99.8932 649.74 100.538 650.195 100.902C650.651 101.254 651.361 101.43 652.324 101.43C652.572 101.43 652.812 101.43 653.047 101.43C653.281 101.417 653.451 101.404 653.555 101.391V105.902C653.32 105.928 652.956 105.961 652.461 106C651.979 106.052 651.432 106.078 650.82 106.078C649.036 106.078 647.598 105.883 646.504 105.492C645.41 105.089 644.609 104.444 644.102 103.559C643.594 102.673 643.34 101.508 643.34 100.062V89.8672H640.312V85.1406H643.496ZM657.52 106V85.1406H663.75V88.207H664.023C664.154 87.7383 664.414 87.25 664.805 86.7422C665.195 86.2214 665.716 85.7786 666.367 85.4141C667.031 85.0365 667.819 84.8477 668.73 84.8477C669.173 84.8477 669.544 84.8607 669.844 84.8867C670.156 84.9128 670.41 84.9583 670.605 85.0234V90.3164C670.384 90.2383 670.065 90.1797 669.648 90.1406C669.232 90.0885 668.789 90.0625 668.32 90.0625C667.253 90.0625 666.393 90.2578 665.742 90.6484C665.104 91.0391 664.642 91.5859 664.355 92.2891C664.069 92.9922 663.926 93.806 663.926 94.7305V106H657.52ZM682.363 106.391C680.41 106.391 678.691 106.013 677.207 105.258C675.723 104.49 674.564 103.363 673.73 101.879C672.897 100.382 672.48 98.526 672.48 96.3125V94.6523C672.48 92.4909 672.904 90.681 673.75 89.2227C674.596 87.7513 675.742 86.6445 677.188 85.9023C678.646 85.1471 680.293 84.7695 682.129 84.7695C684.069 84.7695 685.749 85.1732 687.168 85.9805C688.6 86.7878 689.707 87.9401 690.488 89.4375C691.283 90.9219 691.68 92.6927 691.68 94.75V96.8398H678.555V97.543C678.555 98.8711 678.919 99.9128 679.648 100.668C680.391 101.423 681.296 101.801 682.363 101.801C682.988 101.801 683.548 101.703 684.043 101.508C684.538 101.312 684.948 101.033 685.273 100.668C685.599 100.303 685.801 99.8607 685.879 99.3398H691.543C691.465 100.16 691.23 100.987 690.84 101.82C690.449 102.641 689.883 103.396 689.141 104.086C688.411 104.776 687.48 105.336 686.348 105.766C685.228 106.182 683.9 106.391 682.363 106.391ZM678.555 93.2461H685.723C685.723 93.2461 685.723 93.2396 685.723 93.2266C685.723 92.4583 685.573 91.7747 685.273 91.1758C684.987 90.5638 684.577 90.082 684.043 89.7305C683.509 89.3789 682.884 89.2031 682.168 89.2031C681.452 89.2031 680.82 89.3789 680.273 89.7305C679.74 90.082 679.316 90.5638 679.004 91.1758C678.704 91.7747 678.555 92.4583 678.555 93.2266C678.555 93.2396 678.555 93.2461 678.555 93.2461ZM701.25 106.312C699.219 106.312 697.559 105.753 696.27 104.633C694.993 103.513 694.355 101.964 694.355 99.9844C694.355 98.0833 694.993 96.5729 696.27 95.4531C697.559 94.3203 699.421 93.7539 701.855 93.7539H706.699V92.0156C706.699 91.1562 706.445 90.4987 705.938 90.043C705.43 89.5872 704.733 89.3594 703.848 89.3594C703.262 89.3594 702.754 89.4635 702.324 89.6719C701.895 89.8672 701.562 90.1471 701.328 90.5117C701.094 90.8763 700.964 91.293 700.938 91.7617H695.117C695.156 90.9154 695.326 90.082 695.625 89.2617C695.938 88.4414 696.426 87.6992 697.09 87.0352C697.767 86.3581 698.665 85.8242 699.785 85.4336C700.905 85.0299 702.292 84.8281 703.945 84.8281C705.612 84.8281 707.116 85.082 708.457 85.5898C709.798 86.0846 710.859 86.8659 711.641 87.9336C712.422 88.9883 712.812 90.375 712.812 92.0938V106H706.992V103.5H706.699C706.465 103.982 706.113 104.438 705.645 104.867C705.189 105.284 704.596 105.629 703.867 105.902C703.151 106.176 702.279 106.312 701.25 106.312ZM703.398 101.977C703.984 101.977 704.531 101.866 705.039 101.645C705.547 101.41 705.951 101.085 706.25 100.668C706.549 100.251 706.699 99.763 706.699 99.2031V97.1328H703.496C702.52 97.1328 701.777 97.3542 701.27 97.7969C700.762 98.2266 700.508 98.793 700.508 99.4961C700.508 100.329 700.801 100.954 701.387 101.371C701.986 101.775 702.656 101.977 703.398 101.977ZM717.207 106V85.1406H723.242V88.4023H723.555C723.724 87.8685 724.03 87.3281 724.473 86.7812C724.928 86.2344 725.54 85.7721 726.309 85.3945C727.077 85.0169 728.021 84.8281 729.141 84.8281C730.195 84.8281 731.107 84.9909 731.875 85.3164C732.656 85.6289 733.294 86.0651 733.789 86.625C734.297 87.1719 734.655 87.8099 734.863 88.5391H735.117C735.326 87.9531 735.697 87.3802 736.23 86.8203C736.777 86.2474 737.487 85.7721 738.359 85.3945C739.232 85.0169 740.254 84.8281 741.426 84.8281C743.561 84.8281 745.202 85.4661 746.348 86.7422C747.507 88.0052 748.086 89.6589 748.086 91.7031V106H741.875V93.5977C741.875 92.7122 741.738 92.0026 741.465 91.4688C741.191 90.9219 740.82 90.5247 740.352 90.2773C739.883 90.0169 739.355 89.8867 738.77 89.8867C738.145 89.8867 737.591 90.0299 737.109 90.3164C736.641 90.6029 736.276 91.0326 736.016 91.6055C735.755 92.1654 735.625 92.875 735.625 93.7344V106H729.668V93.7148C729.668 92.7383 729.525 91.9766 729.238 91.4297C728.952 90.8828 728.568 90.4922 728.086 90.2578C727.617 90.0104 727.103 89.8867 726.543 89.8867C725.983 89.8867 725.462 90.0169 724.98 90.2773C724.512 90.5247 724.134 90.9284 723.848 91.4883C723.561 92.0482 723.418 92.7839 723.418 93.6953V106H717.207ZM778.574 100.902V106H760.684V79.3398H778.574V84.4375H767.051V90.2383H777.852V94.9258H767.051V100.902H778.574ZM782.637 106V85.1406H788.672V88.3633H788.945C789.154 87.8685 789.505 87.3477 790 86.8008C790.495 86.2539 791.152 85.7917 791.973 85.4141C792.806 85.0234 793.809 84.8281 794.98 84.8281C797.09 84.8281 798.789 85.4792 800.078 86.7812C801.367 88.0703 802.012 89.9909 802.012 92.543V106H795.801V94.0078C795.801 92.9922 795.632 92.1979 795.293 91.625C794.954 91.0391 794.518 90.6289 793.984 90.3945C793.464 90.1471 792.917 90.0234 792.344 90.0234C791.641 90.0234 791.022 90.1862 790.488 90.5117C789.967 90.8372 789.564 91.306 789.277 91.918C788.991 92.5169 788.848 93.2331 788.848 94.0664V106H782.637ZM813.34 84.9062C814.303 84.9062 815.176 85.0495 815.957 85.3359C816.738 85.6224 817.409 86.0195 817.969 86.5273C818.529 87.0352 818.952 87.6276 819.238 88.3047H819.492V77.9336H825.742V106H819.551V102.738H819.277C819.069 103.259 818.776 103.741 818.398 104.184C818.021 104.613 817.578 104.978 817.07 105.277C816.562 105.577 815.996 105.811 815.371 105.98C814.746 106.137 814.069 106.215 813.34 106.215C811.725 106.215 810.339 105.831 809.18 105.062C808.021 104.281 807.129 103.155 806.504 101.684C805.892 100.212 805.586 98.4479 805.586 96.3906V94.7109C805.586 92.6667 805.898 90.9154 806.523 89.457C807.148 87.9987 808.04 86.8789 809.199 86.0977C810.371 85.3034 811.751 84.9062 813.34 84.9062ZM815.703 89.75C815 89.75 814.368 89.9388 813.809 90.3164C813.249 90.694 812.806 91.2669 812.48 92.0352C812.168 92.8034 812.012 93.7604 812.012 94.9062V96.2344C812.012 97.3932 812.168 98.3568 812.48 99.125C812.806 99.8932 813.249 100.466 813.809 100.844C814.368 101.221 815.007 101.41 815.723 101.41C816.478 101.41 817.142 101.215 817.715 100.824C818.288 100.434 818.73 99.8607 819.043 99.1055C819.355 98.3372 819.512 97.3867 819.512 96.2539V94.9062C819.512 93.7995 819.355 92.862 819.043 92.0938C818.73 91.3255 818.288 90.7461 817.715 90.3555C817.142 89.9518 816.471 89.75 815.703 89.75ZM830.605 106V85.1406H836.836V106H830.605ZM830.352 79.8867C830.352 78.9622 830.684 78.2266 831.348 77.6797C832.012 77.1328 832.806 76.8594 833.73 76.8594C834.655 76.8594 835.443 77.1328 836.094 77.6797C836.758 78.2266 837.09 78.9622 837.09 79.8867C837.09 80.8112 836.758 81.5534 836.094 82.1133C835.443 82.6732 834.655 82.9531 833.73 82.9531C832.806 82.9531 832.012 82.6732 831.348 82.1133C830.684 81.5534 830.352 80.8112 830.352 79.8867ZM841.621 106V85.1406H847.656V88.3633H847.93C848.138 87.8685 848.49 87.3477 848.984 86.8008C849.479 86.2539 850.137 85.7917 850.957 85.4141C851.79 85.0234 852.793 84.8281 853.965 84.8281C856.074 84.8281 857.773 85.4792 859.062 86.7812C860.352 88.0703 860.996 89.9909 860.996 92.543V106H854.785V94.0078C854.785 92.9922 854.616 92.1979 854.277 91.625C853.939 91.0391 853.503 90.6289 852.969 90.3945C852.448 90.1471 851.901 90.0234 851.328 90.0234C850.625 90.0234 850.007 90.1862 849.473 90.5117C848.952 90.8372 848.548 91.306 848.262 91.918C847.975 92.5169 847.832 93.2331 847.832 94.0664V106H841.621ZM874.609 109.262C875.846 109.262 876.797 108.917 877.461 108.227C878.125 107.549 878.457 106.573 878.457 105.297V102.387H878.164C877.982 102.855 877.715 103.292 877.363 103.695C877.012 104.086 876.589 104.431 876.094 104.73C875.599 105.03 875.033 105.264 874.395 105.434C873.77 105.59 873.086 105.668 872.344 105.668C870.794 105.668 869.44 105.297 868.281 104.555C867.122 103.812 866.224 102.706 865.586 101.234C864.948 99.763 864.629 97.9466 864.629 95.7852V94.7695C864.629 92.6081 864.948 90.7982 865.586 89.3398C866.224 87.8815 867.116 86.7812 868.262 86.0391C869.421 85.2839 870.781 84.9062 872.344 84.9062C873.32 84.9062 874.199 85.056 874.98 85.3555C875.775 85.6419 876.445 86.0391 876.992 86.5469C877.539 87.0547 877.943 87.6406 878.203 88.3047H878.496V85.1406H884.668V105.824C884.668 107.309 884.362 108.546 883.75 109.535C883.151 110.538 882.35 111.339 881.348 111.938C880.345 112.549 879.245 112.979 878.047 113.227C876.862 113.487 875.677 113.617 874.492 113.617C872.357 113.617 870.605 113.318 869.238 112.719C867.871 112.133 866.849 111.345 866.172 110.355C865.495 109.379 865.124 108.311 865.059 107.152H870.977C871.094 107.582 871.315 107.953 871.641 108.266C871.966 108.591 872.383 108.839 872.891 109.008C873.398 109.177 873.971 109.262 874.609 109.262ZM874.766 89.75C874.01 89.75 873.353 89.9453 872.793 90.3359C872.233 90.7135 871.797 91.2865 871.484 92.0547C871.185 92.8099 871.035 93.7539 871.035 94.8867V96.0586C871.035 97.1654 871.185 98.1094 871.484 98.8906C871.797 99.6589 872.233 100.238 872.793 100.629C873.353 101.02 874.01 101.215 874.766 101.215C875.521 101.215 876.172 101.02 876.719 100.629C877.266 100.225 877.689 99.6393 877.988 98.8711C878.301 98.1029 878.457 97.1654 878.457 96.0586V94.8867C878.457 93.7669 878.301 92.8294 877.988 92.0742C877.676 91.306 877.246 90.7266 876.699 90.3359C876.152 89.9453 875.508 89.75 874.766 89.75Z" fill="#525252"/>
<g filter="url(#filter1_i_5_33)">
<rect x="968" y="830" width="261" height="50" rx="10" fill="#FEFCD4"/>
</g>
<path d="M968.592 869V848.062H974.295V851.578H974.413C974.842 850.38 975.571 849.423 976.6 848.707C977.642 847.991 978.866 847.633 980.272 847.633C981.249 847.633 982.127 847.802 982.909 848.141C983.69 848.479 984.347 848.967 984.881 849.605C985.428 850.243 985.812 851.025 986.034 851.949H986.151C986.463 851.064 986.932 850.302 987.557 849.664C988.195 849.013 988.944 848.512 989.803 848.16C990.676 847.809 991.626 847.633 992.655 847.633C994.022 847.633 995.22 847.926 996.249 848.512C997.277 849.098 998.078 849.918 998.651 850.973C999.224 852.027 999.51 853.264 999.51 854.684V869H993.807V856.109C993.807 855.302 993.67 854.618 993.397 854.059C993.137 853.499 992.752 853.076 992.245 852.789C991.75 852.503 991.131 852.359 990.389 852.359C989.673 852.359 989.042 852.522 988.495 852.848C987.961 853.173 987.544 853.629 987.245 854.215C986.945 854.801 986.795 855.484 986.795 856.266V869H981.307V855.934C981.307 855.178 981.17 854.534 980.897 854C980.624 853.466 980.233 853.062 979.725 852.789C979.23 852.503 978.631 852.359 977.928 852.359C977.212 852.359 976.581 852.529 976.034 852.867C975.487 853.206 975.057 853.674 974.745 854.273C974.445 854.872 974.295 855.569 974.295 856.363V869H968.592ZM1003.24 869V848.062H1008.94V869H1003.24ZM1006.09 845.367C1005.23 845.367 1004.51 845.074 1003.92 844.488C1003.34 843.902 1003.05 843.206 1003.05 842.398C1003.05 841.578 1003.34 840.882 1003.92 840.309C1004.51 839.723 1005.23 839.43 1006.09 839.43C1006.95 839.43 1007.67 839.723 1008.26 840.309C1008.85 840.882 1009.14 841.578 1009.14 842.398C1009.14 843.206 1008.85 843.902 1008.26 844.488C1007.67 845.074 1006.95 845.367 1006.09 845.367ZM1021.39 869.43C1019.46 869.43 1017.82 869.15 1016.46 868.59C1015.11 868.03 1014.05 867.255 1013.28 866.266C1012.52 865.263 1012.07 864.104 1011.91 862.789L1011.89 862.613H1017.46L1017.5 862.789C1017.68 863.609 1018.09 864.247 1018.73 864.703C1019.37 865.159 1020.25 865.387 1021.39 865.387C1022.11 865.387 1022.73 865.302 1023.24 865.133C1023.75 864.951 1024.14 864.697 1024.41 864.371C1024.7 864.046 1024.84 863.655 1024.84 863.199V863.18C1024.84 862.62 1024.64 862.171 1024.24 861.832C1023.83 861.493 1023.12 861.207 1022.09 860.973L1018.53 860.23C1017.18 859.944 1016.05 859.534 1015.14 859C1014.24 858.453 1013.56 857.783 1013.1 856.988C1012.65 856.181 1012.42 855.257 1012.42 854.215V854.195C1012.42 852.854 1012.78 851.695 1013.49 850.719C1014.21 849.742 1015.23 848.987 1016.54 848.453C1017.87 847.906 1019.42 847.633 1021.19 847.633C1023.04 847.633 1024.61 847.932 1025.9 848.531C1027.2 849.117 1028.2 849.911 1028.89 850.914C1029.59 851.917 1029.96 853.03 1030 854.254V854.449H1024.74L1024.73 854.293C1024.63 853.538 1024.28 852.913 1023.67 852.418C1023.07 851.91 1022.24 851.656 1021.19 851.656C1020.54 851.656 1019.97 851.747 1019.49 851.93C1019.01 852.112 1018.64 852.372 1018.38 852.711C1018.12 853.036 1017.99 853.427 1017.99 853.883V853.902C1017.99 854.254 1018.07 854.573 1018.24 854.859C1018.42 855.133 1018.72 855.374 1019.14 855.582C1019.56 855.79 1020.12 855.973 1020.82 856.129L1024.37 856.891C1026.57 857.346 1028.15 858.03 1029.1 858.941C1030.06 859.853 1030.55 861.077 1030.55 862.613V862.633C1030.55 864 1030.15 865.191 1029.37 866.207C1028.59 867.223 1027.51 868.017 1026.13 868.59C1024.76 869.15 1023.18 869.43 1021.39 869.43ZM1039.59 869.332C1038.2 869.332 1036.97 869.065 1035.92 868.531C1034.86 867.984 1034.03 867.236 1033.44 866.285C1032.85 865.322 1032.56 864.228 1032.56 863.004V862.965C1032.56 861.689 1032.88 860.602 1033.51 859.703C1034.15 858.792 1035.08 858.076 1036.29 857.555C1037.5 857.034 1038.97 856.715 1040.7 856.598L1048.87 856.09V859.645L1041.56 860.113C1040.47 860.178 1039.63 860.439 1039.06 860.895C1038.49 861.337 1038.2 861.93 1038.2 862.672V862.711C1038.2 863.479 1038.49 864.085 1039.08 864.527C1039.67 864.957 1040.45 865.172 1041.44 865.172C1042.29 865.172 1043.05 865.009 1043.71 864.684C1044.39 864.345 1044.91 863.889 1045.29 863.316C1045.68 862.73 1045.88 862.073 1045.88 861.344V854.996C1045.88 854.072 1045.58 853.342 1045 852.809C1044.41 852.262 1043.56 851.988 1042.44 851.988C1041.37 851.988 1040.53 852.21 1039.9 852.652C1039.28 853.095 1038.89 853.655 1038.75 854.332L1038.71 854.508H1033.49L1033.51 854.273C1033.62 852.984 1034.04 851.839 1034.78 850.836C1035.54 849.833 1036.58 849.052 1037.91 848.492C1039.25 847.919 1040.84 847.633 1042.67 847.633C1044.48 847.633 1046.05 847.926 1047.38 848.512C1048.71 849.085 1049.74 849.898 1050.47 850.953C1051.21 852.008 1051.58 853.238 1051.58 854.645V869H1045.88V865.875H1045.76C1045.37 866.591 1044.86 867.21 1044.24 867.73C1043.62 868.238 1042.93 868.635 1042.15 868.922C1041.37 869.195 1040.51 869.332 1039.59 869.332ZM1055.27 869V848.062H1060.98V851.578H1061.09C1061.52 850.38 1062.25 849.423 1063.28 848.707C1064.32 847.991 1065.55 847.633 1066.95 847.633C1067.93 847.633 1068.81 847.802 1069.59 848.141C1070.37 848.479 1071.03 848.967 1071.56 849.605C1072.11 850.243 1072.49 851.025 1072.71 851.949H1072.83C1073.14 851.064 1073.61 850.302 1074.24 849.664C1074.87 849.013 1075.62 848.512 1076.48 848.16C1077.36 847.809 1078.31 847.633 1079.33 847.633C1080.7 847.633 1081.9 847.926 1082.93 848.512C1083.96 849.098 1084.76 849.918 1085.33 850.973C1085.9 852.027 1086.19 853.264 1086.19 854.684V869H1080.49V856.109C1080.49 855.302 1080.35 854.618 1080.08 854.059C1079.82 853.499 1079.43 853.076 1078.92 852.789C1078.43 852.503 1077.81 852.359 1077.07 852.359C1076.35 852.359 1075.72 852.522 1075.17 852.848C1074.64 853.173 1074.22 853.629 1073.92 854.215C1073.62 854.801 1073.48 855.484 1073.48 856.266V869H1067.99V855.934C1067.99 855.178 1067.85 854.534 1067.58 854C1067.3 853.466 1066.91 853.062 1066.4 852.789C1065.91 852.503 1065.31 852.359 1064.61 852.359C1063.89 852.359 1063.26 852.529 1062.71 852.867C1062.17 853.206 1061.74 853.674 1061.42 854.273C1061.12 854.872 1060.98 855.569 1060.98 856.363V869H1055.27ZM1089.92 869V848.062H1095.62V869H1089.92ZM1092.77 845.367C1091.91 845.367 1091.19 845.074 1090.6 844.488C1090.02 843.902 1089.73 843.206 1089.73 842.398C1089.73 841.578 1090.02 840.882 1090.6 840.309C1091.19 839.723 1091.91 839.43 1092.77 839.43C1093.63 839.43 1094.35 839.723 1094.94 840.309C1095.53 840.882 1095.82 841.578 1095.82 842.398C1095.82 843.206 1095.53 843.902 1094.94 844.488C1094.35 845.074 1093.63 845.367 1092.77 845.367ZM1108.06 869.43C1106.14 869.43 1104.5 869.15 1103.14 868.59C1101.79 868.03 1100.73 867.255 1099.96 866.266C1099.2 865.263 1098.75 864.104 1098.59 862.789L1098.57 862.613H1104.14L1104.18 862.789C1104.36 863.609 1104.77 864.247 1105.41 864.703C1106.05 865.159 1106.93 865.387 1108.06 865.387C1108.79 865.387 1109.41 865.302 1109.92 865.133C1110.43 864.951 1110.82 864.697 1111.09 864.371C1111.38 864.046 1111.52 863.655 1111.52 863.199V863.18C1111.52 862.62 1111.32 862.171 1110.92 861.832C1110.51 861.493 1109.8 861.207 1108.77 860.973L1105.21 860.23C1103.86 859.944 1102.73 859.534 1101.81 859C1100.92 858.453 1100.24 857.783 1099.78 856.988C1099.33 856.181 1099.1 855.257 1099.1 854.215V854.195C1099.1 852.854 1099.46 851.695 1100.17 850.719C1100.89 849.742 1101.91 848.987 1103.22 848.453C1104.55 847.906 1106.1 847.633 1107.87 847.633C1109.72 847.633 1111.29 847.932 1112.58 848.531C1113.88 849.117 1114.87 849.911 1115.56 850.914C1116.27 851.917 1116.64 853.03 1116.68 854.254V854.449H1111.42L1111.4 854.293C1111.31 853.538 1110.96 852.913 1110.35 852.418C1109.75 851.91 1108.92 851.656 1107.87 851.656C1107.22 851.656 1106.65 851.747 1106.17 851.93C1105.69 852.112 1105.32 852.372 1105.06 852.711C1104.8 853.036 1104.67 853.427 1104.67 853.883V853.902C1104.67 854.254 1104.75 854.573 1104.92 854.859C1105.1 855.133 1105.4 855.374 1105.82 855.582C1106.24 855.79 1106.8 855.973 1107.5 856.129L1111.05 856.891C1113.25 857.346 1114.83 858.03 1115.78 858.941C1116.74 859.853 1117.23 861.077 1117.23 862.613V862.633C1117.23 864 1116.83 865.191 1116.05 866.207C1115.27 867.223 1114.19 868.017 1112.81 868.59C1111.44 869.15 1109.86 869.43 1108.06 869.43ZM1126.27 869.332C1124.87 869.332 1123.65 869.065 1122.6 868.531C1121.54 867.984 1120.71 867.236 1120.12 866.285C1119.53 865.322 1119.24 864.228 1119.24 863.004V862.965C1119.24 861.689 1119.56 860.602 1120.19 859.703C1120.83 858.792 1121.76 858.076 1122.97 857.555C1124.18 857.034 1125.65 856.715 1127.38 856.598L1135.55 856.09V859.645L1128.24 860.113C1127.15 860.178 1126.31 860.439 1125.74 860.895C1125.17 861.337 1124.88 861.93 1124.88 862.672V862.711C1124.88 863.479 1125.17 864.085 1125.76 864.527C1126.35 864.957 1127.13 865.172 1128.12 865.172C1128.97 865.172 1129.73 865.009 1130.39 864.684C1131.07 864.345 1131.59 863.889 1131.97 863.316C1132.36 862.73 1132.56 862.073 1132.56 861.344V854.996C1132.56 854.072 1132.26 853.342 1131.68 852.809C1131.09 852.262 1130.24 851.988 1129.12 851.988C1128.05 851.988 1127.21 852.21 1126.58 852.652C1125.96 853.095 1125.57 853.655 1125.43 854.332L1125.39 854.508H1120.17L1120.19 854.273C1120.3 852.984 1120.72 851.839 1121.46 850.836C1122.22 849.833 1123.26 849.052 1124.59 848.492C1125.93 847.919 1127.52 847.633 1129.35 847.633C1131.16 847.633 1132.73 847.926 1134.06 848.512C1135.39 849.085 1136.42 849.898 1137.15 850.953C1137.89 852.008 1138.26 853.238 1138.26 854.645V869H1132.56V865.875H1132.44C1132.05 866.591 1131.54 867.21 1130.92 867.73C1130.3 868.238 1129.61 868.635 1128.83 868.922C1128.05 869.195 1127.19 869.332 1126.27 869.332ZM1144.92 869.332C1144.03 869.332 1143.29 869.026 1142.67 868.414C1142.06 867.802 1141.76 867.053 1141.76 866.168C1141.76 865.283 1142.06 864.534 1142.67 863.922C1143.29 863.31 1144.03 863.004 1144.92 863.004C1145.81 863.004 1146.55 863.31 1147.17 863.922C1147.78 864.534 1148.08 865.283 1148.08 866.168C1148.08 867.053 1147.78 867.802 1147.17 868.414C1146.55 869.026 1145.81 869.332 1144.92 869.332ZM1151.6 875.836V848.062H1157.3V851.715H1157.44C1157.82 850.868 1158.31 850.139 1158.92 849.527C1159.55 848.915 1160.27 848.447 1161.09 848.121C1161.93 847.796 1162.84 847.633 1163.83 847.633C1165.6 847.633 1167.12 848.069 1168.4 848.941C1169.67 849.801 1170.66 851.044 1171.35 852.672C1172.04 854.299 1172.38 856.246 1172.38 858.512V858.531C1172.38 860.797 1172.04 862.743 1171.35 864.371C1170.67 865.999 1169.7 867.249 1168.44 868.121C1167.17 868.993 1165.66 869.43 1163.9 869.43C1162.92 869.43 1162 869.267 1161.15 868.941C1160.3 868.616 1159.57 868.16 1158.94 867.574C1158.32 866.975 1157.81 866.259 1157.42 865.426H1157.3V875.836H1151.6ZM1161.95 864.703C1162.9 864.703 1163.72 864.456 1164.41 863.961C1165.1 863.453 1165.64 862.737 1166.01 861.812C1166.39 860.888 1166.58 859.794 1166.58 858.531V858.512C1166.58 857.236 1166.39 856.135 1166.01 855.211C1165.64 854.286 1165.1 853.583 1164.39 853.102C1163.7 852.607 1162.89 852.359 1161.95 852.359C1161.03 852.359 1160.21 852.613 1159.51 853.121C1158.81 853.616 1158.26 854.326 1157.87 855.25C1157.48 856.161 1157.28 857.255 1157.28 858.531V858.551C1157.28 859.801 1157.48 860.888 1157.87 861.812C1158.27 862.737 1158.82 863.453 1159.51 863.961C1160.21 864.456 1161.03 864.703 1161.95 864.703ZM1175.35 869V848.062H1181.05V851.5H1181.17C1181.72 850.302 1182.52 849.358 1183.59 848.668C1184.66 847.978 1185.98 847.633 1187.56 847.633C1189.86 847.633 1191.64 848.329 1192.89 849.723C1194.15 851.103 1194.78 853.023 1194.78 855.484V869H1189.08V856.656C1189.08 855.289 1188.76 854.234 1188.1 853.492C1187.47 852.737 1186.51 852.359 1185.23 852.359C1184.39 852.359 1183.65 852.555 1183.03 852.945C1182.4 853.323 1181.91 853.857 1181.56 854.547C1181.22 855.237 1181.05 856.044 1181.05 856.969V869H1175.35ZM1208.18 876.266C1206.27 876.266 1204.59 875.999 1203.16 875.465C1201.74 874.944 1200.61 874.234 1199.76 873.336C1198.93 872.438 1198.42 871.428 1198.24 870.309L1198.22 870.133H1203.77L1203.83 870.27C1204.06 870.777 1204.55 871.227 1205.29 871.617C1206.03 872.008 1207 872.203 1208.18 872.203C1209.65 872.203 1210.77 871.852 1211.54 871.148C1212.31 870.445 1212.69 869.508 1212.69 868.336V865.133H1212.58C1212.21 865.862 1211.72 866.493 1211.09 867.027C1210.47 867.561 1209.73 867.978 1208.89 868.277C1208.05 868.564 1207.13 868.707 1206.11 868.707C1204.37 868.707 1202.86 868.29 1201.58 867.457C1200.32 866.624 1199.34 865.432 1198.65 863.883C1197.97 862.32 1197.64 860.458 1197.64 858.297V858.277C1197.64 856.051 1197.98 854.143 1198.67 852.555C1199.37 850.966 1200.36 849.749 1201.64 848.902C1202.92 848.056 1204.44 847.633 1206.21 847.633C1207.2 847.633 1208.1 847.796 1208.92 848.121C1209.74 848.447 1210.46 848.909 1211.07 849.508C1211.7 850.107 1212.2 850.816 1212.58 851.637H1212.69V848.062H1218.4V868.414C1218.4 869.964 1217.98 871.324 1217.15 872.496C1216.33 873.681 1215.15 874.605 1213.61 875.27C1212.09 875.934 1210.28 876.266 1208.18 876.266ZM1208.08 864.527C1209.02 864.527 1209.84 864.28 1210.53 863.785C1211.22 863.29 1211.75 862.587 1212.13 861.676C1212.52 860.764 1212.71 859.684 1212.71 858.434V858.414C1212.71 857.164 1212.52 856.09 1212.13 855.191C1211.75 854.28 1211.21 853.583 1210.51 853.102C1209.82 852.607 1209.01 852.359 1208.08 852.359C1207.15 852.359 1206.33 852.607 1205.62 853.102C1204.92 853.583 1204.38 854.273 1204 855.172C1203.62 856.07 1203.44 857.151 1203.44 858.414V858.434C1203.44 859.684 1203.62 860.764 1204 861.676C1204.38 862.587 1204.92 863.29 1205.62 863.785C1206.33 864.28 1207.15 864.527 1208.08 864.527Z" fill="#4AB21E"/>
<g filter="url(#filter2_i_5_33)">
<rect x="671" y="832" width="178" height="50" rx="10" fill="#FEFCD4"/>
</g>
<path d="M684.346 871.43C682.588 871.43 681.071 870.993 679.795 870.121C678.519 869.249 677.536 867.999 676.846 866.371C676.169 864.743 675.831 862.797 675.831 860.531V860.512C675.831 858.233 676.176 856.286 676.866 854.672C677.556 853.044 678.532 851.801 679.795 850.941C681.071 850.069 682.588 849.633 684.346 849.633C685.336 849.633 686.247 849.796 687.081 850.121C687.914 850.447 688.643 850.915 689.268 851.527C689.906 852.126 690.414 852.849 690.792 853.695H690.909V842.816H696.612V871H690.909V867.426H690.792C690.427 868.259 689.932 868.975 689.307 869.574C688.682 870.16 687.953 870.616 687.12 870.941C686.286 871.267 685.362 871.43 684.346 871.43ZM686.26 866.703C687.185 866.703 687.999 866.456 688.702 865.961C689.405 865.453 689.952 864.737 690.342 863.812C690.733 862.888 690.928 861.794 690.928 860.531V860.512C690.928 859.249 690.726 858.161 690.323 857.25C689.932 856.326 689.385 855.616 688.682 855.121C687.992 854.613 687.185 854.359 686.26 854.359C685.31 854.359 684.489 854.607 683.799 855.102C683.109 855.596 682.575 856.306 682.198 857.23C681.82 858.142 681.631 859.236 681.631 860.512V860.531C681.631 861.794 681.814 862.888 682.178 863.812C682.556 864.737 683.09 865.453 683.78 865.961C684.483 866.456 685.31 866.703 686.26 866.703ZM709.952 871.43C707.816 871.43 705.98 870.993 704.444 870.121C702.907 869.236 701.722 867.979 700.889 866.352C700.069 864.724 699.659 862.797 699.659 860.57V860.551C699.659 858.324 700.069 856.397 700.889 854.77C701.722 853.129 702.888 851.866 704.385 850.98C705.896 850.082 707.673 849.633 709.717 849.633C711.762 849.633 713.526 850.069 715.01 850.941C716.508 851.801 717.66 853.018 718.467 854.594C719.288 856.169 719.698 858.012 719.698 860.121V861.879H702.452V858.285H717.002L714.288 861.645V859.457C714.288 858.233 714.099 857.211 713.721 856.391C713.344 855.557 712.816 854.932 712.139 854.516C711.475 854.099 710.7 853.891 709.815 853.891C708.93 853.891 708.142 854.105 707.452 854.535C706.775 854.965 706.241 855.596 705.85 856.43C705.472 857.25 705.284 858.259 705.284 859.457V861.664C705.284 862.823 705.472 863.812 705.85 864.633C706.241 865.453 706.794 866.085 707.51 866.527C708.226 866.957 709.079 867.172 710.069 867.172C710.85 867.172 711.527 867.048 712.1 866.801C712.673 866.553 713.142 866.241 713.506 865.863C713.871 865.486 714.118 865.102 714.249 864.711L714.288 864.594H719.522L719.463 864.809C719.307 865.577 719.001 866.352 718.545 867.133C718.09 867.914 717.471 868.63 716.69 869.281C715.922 869.932 714.978 870.453 713.858 870.844C712.751 871.234 711.449 871.43 709.952 871.43ZM727.393 871L720.147 850.062H726.241L730.616 865.961H730.733L735.049 850.062H741.006L733.819 871H727.393ZM743.331 862.035V857.055H755.987V862.035H743.331ZM760.342 871V850.062H766.045V853.578H766.163C766.592 852.38 767.321 851.423 768.35 850.707C769.392 849.991 770.616 849.633 772.022 849.633C772.999 849.633 773.877 849.802 774.659 850.141C775.44 850.479 776.097 850.967 776.631 851.605C777.178 852.243 777.562 853.025 777.784 853.949H777.901C778.213 853.064 778.682 852.302 779.307 851.664C779.945 851.013 780.694 850.512 781.553 850.16C782.426 849.809 783.376 849.633 784.405 849.633C785.772 849.633 786.97 849.926 787.999 850.512C789.027 851.098 789.828 851.918 790.401 852.973C790.974 854.027 791.26 855.264 791.26 856.684V871H785.557V858.109C785.557 857.302 785.42 856.618 785.147 856.059C784.887 855.499 784.502 855.076 783.995 854.789C783.5 854.503 782.881 854.359 782.139 854.359C781.423 854.359 780.792 854.522 780.245 854.848C779.711 855.173 779.294 855.629 778.995 856.215C778.695 856.801 778.545 857.484 778.545 858.266V871H773.057V857.934C773.057 857.178 772.92 856.534 772.647 856C772.374 855.466 771.983 855.062 771.475 854.789C770.98 854.503 770.381 854.359 769.678 854.359C768.962 854.359 768.331 854.529 767.784 854.867C767.237 855.206 766.807 855.674 766.495 856.273C766.195 856.872 766.045 857.569 766.045 858.363V871H760.342ZM794.991 871V850.062H800.694V871H794.991ZM797.842 847.367C796.983 847.367 796.26 847.074 795.674 846.488C795.088 845.902 794.795 845.206 794.795 844.398C794.795 843.578 795.088 842.882 795.674 842.309C796.26 841.723 796.983 841.43 797.842 841.43C798.702 841.43 799.424 841.723 800.01 842.309C800.596 842.882 800.889 843.578 800.889 844.398C800.889 845.206 800.596 845.902 800.01 846.488C799.424 847.074 798.702 847.367 797.842 847.367ZM813.135 871.43C811.208 871.43 809.568 871.15 808.213 870.59C806.859 870.03 805.798 869.255 805.03 868.266C804.275 867.263 803.819 866.104 803.663 864.789L803.643 864.613H809.209L809.249 864.789C809.431 865.609 809.841 866.247 810.479 866.703C811.117 867.159 812.002 867.387 813.135 867.387C813.864 867.387 814.483 867.302 814.991 867.133C815.499 866.951 815.889 866.697 816.163 866.371C816.449 866.046 816.592 865.655 816.592 865.199V865.18C816.592 864.62 816.39 864.171 815.987 863.832C815.583 863.493 814.867 863.207 813.838 862.973L810.284 862.23C808.93 861.944 807.797 861.534 806.885 861C805.987 860.453 805.31 859.783 804.854 858.988C804.398 858.181 804.17 857.257 804.17 856.215V856.195C804.17 854.854 804.528 853.695 805.245 852.719C805.961 851.742 806.976 850.987 808.292 850.453C809.62 849.906 811.169 849.633 812.94 849.633C814.789 849.633 816.358 849.932 817.647 850.531C818.949 851.117 819.945 851.911 820.635 852.914C821.338 853.917 821.709 855.03 821.749 856.254V856.449H816.495L816.475 856.293C816.384 855.538 816.032 854.913 815.42 854.418C814.821 853.91 813.995 853.656 812.94 853.656C812.289 853.656 811.722 853.747 811.241 853.93C810.759 854.112 810.388 854.372 810.127 854.711C809.867 855.036 809.737 855.427 809.737 855.883V855.902C809.737 856.254 809.821 856.573 809.991 856.859C810.173 857.133 810.472 857.374 810.889 857.582C811.306 857.79 811.866 857.973 812.569 858.129L816.124 858.891C818.324 859.346 819.9 860.03 820.85 860.941C821.814 861.853 822.295 863.077 822.295 864.613V864.633C822.295 866 821.905 867.191 821.124 868.207C820.342 869.223 819.262 870.017 817.881 870.59C816.514 871.15 814.932 871.43 813.135 871.43ZM831.338 871.332C829.945 871.332 828.721 871.065 827.667 870.531C826.612 869.984 825.785 869.236 825.186 868.285C824.6 867.322 824.307 866.228 824.307 865.004V864.965C824.307 863.689 824.626 862.602 825.264 861.703C825.902 860.792 826.827 860.076 828.038 859.555C829.249 859.034 830.72 858.715 832.452 858.598L840.616 858.09V861.645L833.311 862.113C832.217 862.178 831.384 862.439 830.811 862.895C830.238 863.337 829.952 863.93 829.952 864.672V864.711C829.952 865.479 830.245 866.085 830.831 866.527C831.417 866.957 832.204 867.172 833.194 867.172C834.04 867.172 834.795 867.009 835.459 866.684C836.137 866.345 836.664 865.889 837.042 865.316C837.432 864.73 837.627 864.073 837.627 863.344V856.996C837.627 856.072 837.334 855.342 836.749 854.809C836.163 854.262 835.31 853.988 834.19 853.988C833.122 853.988 832.276 854.21 831.651 854.652C831.026 855.095 830.642 855.655 830.499 856.332L830.459 856.508H825.245L825.264 856.273C825.368 854.984 825.792 853.839 826.534 852.836C827.289 851.833 828.331 851.052 829.659 850.492C831 849.919 832.588 849.633 834.424 849.633C836.234 849.633 837.803 849.926 839.131 850.512C840.459 851.085 841.488 851.898 842.217 852.953C842.959 854.008 843.331 855.238 843.331 856.645V871H837.627V867.875H837.51C837.12 868.591 836.612 869.21 835.987 869.73C835.375 870.238 834.678 870.635 833.897 870.922C833.116 871.195 832.263 871.332 831.338 871.332Z" fill="#4AB21E"/>
<g filter="url(#filter3_i_5_33)">
<rect x="384" y="833" width="162" height="50" rx="10" fill="#FEFCD4"/>
</g>
<path d="M397.346 869.43C395.588 869.43 394.071 868.993 392.795 868.121C391.519 867.249 390.536 865.999 389.846 864.371C389.169 862.743 388.831 860.797 388.831 858.531V858.512C388.831 856.233 389.176 854.286 389.866 852.672C390.556 851.044 391.532 849.801 392.795 848.941C394.071 848.069 395.588 847.633 397.346 847.633C398.336 847.633 399.247 847.796 400.081 848.121C400.914 848.447 401.643 848.915 402.268 849.527C402.906 850.126 403.414 850.849 403.792 851.695H403.909V840.816H409.612V869H403.909V865.426H403.792C403.427 866.259 402.932 866.975 402.307 867.574C401.682 868.16 400.953 868.616 400.12 868.941C399.286 869.267 398.362 869.43 397.346 869.43ZM399.26 864.703C400.185 864.703 400.999 864.456 401.702 863.961C402.405 863.453 402.952 862.737 403.342 861.812C403.733 860.888 403.928 859.794 403.928 858.531V858.512C403.928 857.249 403.726 856.161 403.323 855.25C402.932 854.326 402.385 853.616 401.682 853.121C400.992 852.613 400.185 852.359 399.26 852.359C398.31 852.359 397.489 852.607 396.799 853.102C396.109 853.596 395.575 854.306 395.198 855.23C394.82 856.142 394.631 857.236 394.631 858.512V858.531C394.631 859.794 394.814 860.888 395.178 861.812C395.556 862.737 396.09 863.453 396.78 863.961C397.483 864.456 398.31 864.703 399.26 864.703ZM422.952 869.43C420.816 869.43 418.98 868.993 417.444 868.121C415.907 867.236 414.723 865.979 413.889 864.352C413.069 862.724 412.659 860.797 412.659 858.57V858.551C412.659 856.324 413.069 854.397 413.889 852.77C414.723 851.129 415.888 849.866 417.385 848.98C418.896 848.082 420.673 847.633 422.717 847.633C424.762 847.633 426.526 848.069 428.01 848.941C429.508 849.801 430.66 851.018 431.467 852.594C432.288 854.169 432.698 856.012 432.698 858.121V859.879H415.452V856.285H430.002L427.288 859.645V857.457C427.288 856.233 427.099 855.211 426.721 854.391C426.344 853.557 425.816 852.932 425.139 852.516C424.475 852.099 423.7 851.891 422.815 851.891C421.93 851.891 421.142 852.105 420.452 852.535C419.775 852.965 419.241 853.596 418.85 854.43C418.473 855.25 418.284 856.259 418.284 857.457V859.664C418.284 860.823 418.473 861.812 418.85 862.633C419.241 863.453 419.794 864.085 420.51 864.527C421.226 864.957 422.079 865.172 423.069 865.172C423.85 865.172 424.527 865.048 425.1 864.801C425.673 864.553 426.142 864.241 426.506 863.863C426.871 863.486 427.118 863.102 427.249 862.711L427.288 862.594H432.522L432.463 862.809C432.307 863.577 432.001 864.352 431.545 865.133C431.09 865.914 430.471 866.63 429.69 867.281C428.922 867.932 427.978 868.453 426.858 868.844C425.751 869.234 424.449 869.43 422.952 869.43ZM440.393 869L433.147 848.062H439.241L443.616 863.961H443.733L448.049 848.062H454.006L446.819 869H440.393ZM455.999 869V848.062H461.702V851.578H461.819C462.249 850.38 462.978 849.423 464.006 848.707C465.048 847.991 466.272 847.633 467.678 847.633C468.655 847.633 469.534 847.802 470.315 848.141C471.096 848.479 471.754 848.967 472.288 849.605C472.835 850.243 473.219 851.025 473.44 851.949H473.557C473.87 851.064 474.338 850.302 474.963 849.664C475.601 849.013 476.35 848.512 477.21 848.16C478.082 847.809 479.032 847.633 480.061 847.633C481.428 847.633 482.626 847.926 483.655 848.512C484.683 849.098 485.484 849.918 486.057 850.973C486.63 852.027 486.917 853.264 486.917 854.684V869H481.213V856.109C481.213 855.302 481.077 854.618 480.803 854.059C480.543 853.499 480.159 853.076 479.651 852.789C479.156 852.503 478.538 852.359 477.795 852.359C477.079 852.359 476.448 852.522 475.901 852.848C475.367 853.173 474.95 853.629 474.651 854.215C474.351 854.801 474.202 855.484 474.202 856.266V869H468.713V855.934C468.713 855.178 468.577 854.534 468.303 854C468.03 853.466 467.639 853.062 467.131 852.789C466.637 852.503 466.038 852.359 465.335 852.359C464.618 852.359 463.987 852.529 463.44 852.867C462.893 853.206 462.463 853.674 462.151 854.273C461.851 854.872 461.702 855.569 461.702 856.363V869H455.999ZM490.647 869V848.062H496.35V869H490.647ZM493.499 845.367C492.639 845.367 491.917 845.074 491.331 844.488C490.745 843.902 490.452 843.206 490.452 842.398C490.452 841.578 490.745 840.882 491.331 840.309C491.917 839.723 492.639 839.43 493.499 839.43C494.358 839.43 495.081 839.723 495.667 840.309C496.252 840.882 496.545 841.578 496.545 842.398C496.545 843.206 496.252 843.902 495.667 844.488C495.081 845.074 494.358 845.367 493.499 845.367ZM508.792 869.43C506.864 869.43 505.224 869.15 503.87 868.59C502.515 868.03 501.454 867.255 500.686 866.266C499.931 865.263 499.475 864.104 499.319 862.789L499.299 862.613H504.866L504.905 862.789C505.087 863.609 505.497 864.247 506.135 864.703C506.773 865.159 507.659 865.387 508.792 865.387C509.521 865.387 510.139 865.302 510.647 865.133C511.155 864.951 511.545 864.697 511.819 864.371C512.105 864.046 512.249 863.655 512.249 863.199V863.18C512.249 862.62 512.047 862.171 511.643 861.832C511.239 861.493 510.523 861.207 509.495 860.973L505.94 860.23C504.586 859.944 503.453 859.534 502.542 859C501.643 858.453 500.966 857.783 500.51 856.988C500.055 856.181 499.827 855.257 499.827 854.215V854.195C499.827 852.854 500.185 851.695 500.901 850.719C501.617 849.742 502.633 848.987 503.948 848.453C505.276 847.906 506.825 847.633 508.596 847.633C510.445 847.633 512.014 847.932 513.303 848.531C514.605 849.117 515.601 849.911 516.292 850.914C516.995 851.917 517.366 853.03 517.405 854.254V854.449H512.151L512.131 854.293C512.04 853.538 511.689 852.913 511.077 852.418C510.478 851.91 509.651 851.656 508.596 851.656C507.945 851.656 507.379 851.747 506.897 851.93C506.415 852.112 506.044 852.372 505.784 852.711C505.523 853.036 505.393 853.427 505.393 853.883V853.902C505.393 854.254 505.478 854.573 505.647 854.859C505.829 855.133 506.129 855.374 506.545 855.582C506.962 855.79 507.522 855.973 508.225 856.129L511.78 856.891C513.98 857.346 515.556 858.03 516.506 858.941C517.47 859.853 517.952 861.077 517.952 862.613V862.633C517.952 864 517.561 865.191 516.78 866.207C515.999 867.223 514.918 868.017 513.538 868.59C512.17 869.15 510.588 869.43 508.792 869.43ZM526.995 869.332C525.601 869.332 524.377 869.065 523.323 868.531C522.268 867.984 521.441 867.236 520.842 866.285C520.256 865.322 519.963 864.228 519.963 863.004V862.965C519.963 861.689 520.282 860.602 520.92 859.703C521.558 858.792 522.483 858.076 523.694 857.555C524.905 857.034 526.376 856.715 528.108 856.598L536.272 856.09V859.645L528.967 860.113C527.874 860.178 527.04 860.439 526.467 860.895C525.894 861.337 525.608 861.93 525.608 862.672V862.711C525.608 863.479 525.901 864.085 526.487 864.527C527.073 864.957 527.861 865.172 528.85 865.172C529.696 865.172 530.452 865.009 531.116 864.684C531.793 864.345 532.32 863.889 532.698 863.316C533.088 862.73 533.284 862.073 533.284 861.344V854.996C533.284 854.072 532.991 853.342 532.405 852.809C531.819 852.262 530.966 851.988 529.846 851.988C528.779 851.988 527.932 852.21 527.307 852.652C526.682 853.095 526.298 853.655 526.155 854.332L526.116 854.508H520.901L520.92 854.273C521.025 852.984 521.448 851.839 522.19 850.836C522.945 849.833 523.987 849.052 525.315 848.492C526.656 847.919 528.245 847.633 530.081 847.633C531.89 847.633 533.46 847.926 534.788 848.512C536.116 849.085 537.144 849.898 537.874 850.953C538.616 852.008 538.987 853.238 538.987 854.645V869H533.284V865.875H533.167C532.776 866.591 532.268 867.21 531.643 867.73C531.031 868.238 530.335 868.635 529.553 868.922C528.772 869.195 527.919 869.332 526.995 869.332Z" fill="#4AB21E"/>
<path d="M130 78.25C137.989 78.25 144.453 84.5472 144.453 92.3008C144.453 100.054 137.989 106.352 130 106.352C122.011 106.351 115.547 100.054 115.547 92.3008C115.547 84.5473 122.011 78.2501 130 78.25Z" fill="#FFBD2D" stroke="#DF9C18" stroke-width="0.5"/>
<path d="M175.296 78.25C183.285 78.25 189.749 84.5472 189.75 92.3008C189.75 100.054 183.285 106.352 175.296 106.352C167.308 106.351 160.843 100.054 160.843 92.3008C160.843 84.5473 167.308 78.2501 175.296 78.25Z" fill="#2ACB40" stroke="#29AB2A" stroke-width="0.5"/>
<path d="M84.7031 78.25C92.692 78.25 99.1562 84.5472 99.1562 92.3008C99.1562 100.054 92.6921 106.352 84.7031 106.352C76.7143 106.351 70.25 100.054 70.25 92.3008C70.2501 84.5473 76.7143 78.2501 84.7031 78.25Z" fill="#FE6057" stroke="#F9504A" stroke-width="0.5"/>
<defs>
<filter id="filter0_d_5_33" x="-10" y="-4" width="1532" height="989" filterUnits="userSpaceOnUse" color-interpolation-filters="sRGB">
<feFlood flood-opacity="0" result="BackgroundImageFix"/>
<feColorMatrix in="SourceAlpha" type="matrix" values="0 0 0 0 0 0 0 0 0 0 0 0 0 0 0 0 0 0 127 0" result="hardAlpha"/>
<feMorphology radius="5" operator="dilate" in="SourceAlpha" result="effect1_dropShadow_5_33"/>
<feOffset/>
<feGaussianBlur stdDeviation="25"/>
<feComposite in2="hardAlpha" operator="out"/>
<feColorMatrix type="matrix" values="0 0 0 0 0 0 0 0 0 0 0 0 0 0 0 0 0 0 0.25 0"/>
<feBlend mode="normal" in2="BackgroundImageFix" result="effect1_dropShadow_5_33"/>
<feBlend mode="normal" in="SourceGraphic" in2="effect1_dropShadow_5_33" result="shape"/>
</filter>
<filter id="filter1_i_5_33" x="968" y="830" width="261" height="54" filterUnits="userSpaceOnUse" color-interpolation-filters="sRGB">
<feFlood flood-opacity="0" result="BackgroundImageFix"/>
<feBlend mode="normal" in="SourceGraphic" in2="BackgroundImageFix" result="shape"/>
<feColorMatrix in="SourceAlpha" type="matrix" values="0 0 0 0 0 0 0 0 0 0 0 0 0 0 0 0 0 0 127 0" result="hardAlpha"/>
<feOffset dy="4"/>
<feGaussianBlur stdDeviation="2"/>
<feComposite in2="hardAlpha" operator="arithmetic" k2="-1" k3="1"/>
<feColorMatrix type="matrix" values="0 0 0 0 0 0 0 0 0 0 0 0 0 0 0 0 0 0 0.25 0"/>
<feBlend mode="normal" in2="shape" result="effect1_innerShadow_5_33"/>
</filter>
<filter id="filter2_i_5_33" x="671" y="832" width="178" height="54" filterUnits="userSpaceOnUse" color-interpolation-filters="sRGB">
<feFlood flood-opacity="0" result="BackgroundImageFix"/>
<feBlend mode="normal" in="SourceGraphic" in2="BackgroundImageFix" result="shape"/>
<feColorMatrix in="SourceAlpha" type="matrix" values="0 0 0 0 0 0 0 0 0 0 0 0 0 0 0 0 0 0 127 0" result="hardAlpha"/>
<feOffset dy="4"/>
<feGaussianBlur stdDeviation="2"/>
<feComposite in2="hardAlpha" operator="arithmetic" k2="-1" k3="1"/>
<feColorMatrix type="matrix" values="0 0 0 0 0 0 0 0 0 0 0 0 0 0 0 0 0 0 0.25 0"/>
<feBlend mode="normal" in2="shape" result="effect1_innerShadow_5_33"/>
</filter>
<filter id="filter3_i_5_33" x="384" y="833" width="162" height="54" filterUnits="userSpaceOnUse" color-interpolation-filters="sRGB">
<feFlood flood-opacity="0" result="BackgroundImageFix"/>
<feBlend mode="normal" in="SourceGraphic" in2="BackgroundImageFix" result="shape"/>
<feColorMatrix in="SourceAlpha" type="matrix" values="0 0 0 0 0 0 0 0 0 0 0 0 0 0 0 0 0 0 127 0" result="hardAlpha"/>
<feOffset dy="4"/>
<feGaussianBlur stdDeviation="2"/>
<feComposite in2="hardAlpha" operator="arithmetic" k2="-1" k3="1"/>
<feColorMatrix type="matrix" values="0 0 0 0 0 0 0 0 0 0 0 0 0 0 0 0 0 0 0.25 0"/>
<feBlend mode="normal" in2="shape" result="effect1_innerShadow_5_33"/>
</filter>
</defs>
</svg>
