<svg width="1020" height="252" viewBox="0 0 1020 252" fill="none" xmlns="http://www.w3.org/2000/svg">
<rect x="7.5" y="79.5" width="1005" height="165" rx="82.5" fill="#FEFCD4" stroke="#4AB31E" stroke-width="15"/>
<path d="M349.495 207.245C350.913 206.636 351.907 205.229 351.907 203.591V192.842C351.907 192.45 351.939 192.042 351.989 191.628C351.961 191.636 351.935 191.642 351.907 191.648C351.907 191.648 345.923 191.648 344.726 191.648C341.735 191.648 339.142 190.454 337.945 188.065C336.549 185.477 335.951 181.098 332.361 178.71C331.762 178.312 332.161 177.715 333.358 177.715C334.554 177.914 337.147 179.506 338.743 181.696C340.538 183.885 342.333 185.677 345.524 185.677C350.485 185.677 353.143 185.428 354.743 184.572C356.606 181.807 359.185 179.705 361.879 179.705V179.655C350.574 179.293 343.352 175.543 339.99 169.753C332.68 169.836 326.315 170.559 322.683 171.16C322.567 170.509 322.468 169.854 322.382 169.195C325.966 168.606 332.041 167.907 339.026 167.774C338.803 167.225 338.609 166.661 338.446 166.084C331.443 165.73 325.4 166.007 322.117 166.277C322.077 165.616 322.023 164.958 322.015 164.289C325.304 164.02 331.184 163.751 338.007 164.068C337.849 163.073 337.748 162.055 337.748 160.997C337.748 157.613 338.944 154.03 341.138 151.044C340.141 147.66 338.745 140.494 341.537 137.907C346.922 137.907 350.712 140.494 352.507 142.087C355.896 140.692 359.685 139.895 363.874 139.895C368.062 139.895 371.852 140.692 375.043 142.085C376.838 140.492 380.628 137.905 386.013 137.905C389.005 140.692 387.409 147.857 386.412 151.042C388.606 154.028 389.803 157.412 389.603 160.995C389.603 161.958 389.513 162.887 389.384 163.799C396.362 163.457 402.402 163.731 405.747 164.002C405.743 164.673 405.681 165.328 405.645 165.991C402.312 165.716 396.121 165.433 388.973 165.813C388.795 166.482 388.58 167.133 388.325 167.764C395.397 167.856 401.618 168.538 405.374 169.136C405.288 169.796 405.188 170.451 405.073 171.1C401.259 170.491 394.759 169.779 387.363 169.743C384.042 175.471 376.952 179.207 365.868 179.643V179.705C371.054 179.705 375.841 187.468 375.841 192.842V203.591C375.841 205.229 376.834 206.636 378.252 207.245C396.524 201.21 409.748 184.012 409.748 163.781C409.748 138.538 389.17 118 363.874 118C338.577 118 318 138.538 318 163.781C318 184.012 331.224 201.21 349.495 207.245Z" fill="black"/>
<path d="M673.737 207.953L624.319 208C613.447 208.01 604.544 199.124 604.531 188.252L604.485 138.834C604.475 127.962 613.36 119.059 624.232 119.047L673.65 119C684.522 118.99 693.425 127.876 693.438 138.748L693.485 188.166C693.497 199.04 684.609 207.943 673.737 207.953Z" fill="url(#paint0_radial_8_97)"/>
<path d="M673.737 207.953L624.319 208C613.447 208.01 604.544 199.124 604.531 188.252L604.485 138.834C604.475 127.962 613.36 119.059 624.232 119.047L673.65 119C684.522 118.99 693.425 127.876 693.438 138.748L693.485 188.166C693.497 199.04 684.609 207.943 673.737 207.953Z" fill="url(#paint1_radial_8_97)"/>
<path d="M648.986 180.798C639.45 180.798 631.689 173.039 631.689 163.501C631.689 153.963 639.45 146.205 648.986 146.205C658.521 146.205 666.282 153.963 666.282 163.501C666.282 173.039 658.521 180.798 648.986 180.798ZM648.986 151.147C642.173 151.147 636.631 156.689 636.631 163.501C636.631 170.314 642.173 175.856 648.986 175.856C655.798 175.856 661.34 170.314 661.34 163.501C661.34 156.689 655.798 151.147 648.986 151.147Z" fill="white"/>
<path d="M667.518 148.676C669.565 148.676 671.224 147.016 671.224 144.969C671.224 142.922 669.565 141.263 667.518 141.263C665.471 141.263 663.811 142.922 663.811 144.969C663.811 147.016 665.471 148.676 667.518 148.676Z" fill="white"/>
<path d="M663.811 195.623H634.16C624.625 195.623 616.864 187.865 616.864 178.327V148.676C616.864 139.138 624.625 131.379 634.16 131.379H663.811C673.347 131.379 681.108 139.138 681.108 148.676V178.327C681.108 187.865 673.347 195.623 663.811 195.623ZM634.16 136.321C627.348 136.321 621.806 141.863 621.806 148.676V178.327C621.806 185.139 627.348 190.681 634.16 190.681H663.811C670.624 190.681 676.166 185.139 676.166 178.327V148.676C676.166 141.863 670.624 136.321 663.811 136.321H634.16Z" fill="white"/>
<path d="M59 116L52 132.62V193H73V204.667H84.6667L96.3333 193H112.667L136 169.667V116H59ZM126.667 165L115 176.667H94L82.3333 188.333V176.667H68.3333V125.333H126.667V165Z" fill="#8E24AA"/>
<path d="M112.667 162.667H101V139.333H112.667V162.667Z" fill="#8E24AA"/>
<path d="M94 162.667H82.3333V139.333H94V162.667Z" fill="#8E24AA"/>
<g filter="url(#filter0_i_8_97)">
<rect x="146" y="139" width="162" height="50" rx="10" fill="#FEFCD4"/>
</g>
<path d="M159.346 175.43C157.588 175.43 156.071 174.993 154.795 174.121C153.519 173.249 152.536 171.999 151.846 170.371C151.169 168.743 150.831 166.797 150.831 164.531V164.512C150.831 162.233 151.176 160.286 151.866 158.672C152.556 157.044 153.532 155.801 154.795 154.941C156.071 154.069 157.588 153.633 159.346 153.633C160.336 153.633 161.247 153.796 162.081 154.121C162.914 154.447 163.643 154.915 164.268 155.527C164.906 156.126 165.414 156.849 165.792 157.695H165.909V146.816H171.612V175H165.909V171.426H165.792C165.427 172.259 164.932 172.975 164.307 173.574C163.682 174.16 162.953 174.616 162.12 174.941C161.286 175.267 160.362 175.43 159.346 175.43ZM161.26 170.703C162.185 170.703 162.999 170.456 163.702 169.961C164.405 169.453 164.952 168.737 165.342 167.812C165.733 166.888 165.928 165.794 165.928 164.531V164.512C165.928 163.249 165.726 162.161 165.323 161.25C164.932 160.326 164.385 159.616 163.682 159.121C162.992 158.613 162.185 158.359 161.26 158.359C160.31 158.359 159.489 158.607 158.799 159.102C158.109 159.596 157.575 160.306 157.198 161.23C156.82 162.142 156.631 163.236 156.631 164.512V164.531C156.631 165.794 156.814 166.888 157.178 167.812C157.556 168.737 158.09 169.453 158.78 169.961C159.483 170.456 160.31 170.703 161.26 170.703ZM184.952 175.43C182.816 175.43 180.98 174.993 179.444 174.121C177.907 173.236 176.723 171.979 175.889 170.352C175.069 168.724 174.659 166.797 174.659 164.57V164.551C174.659 162.324 175.069 160.397 175.889 158.77C176.723 157.129 177.888 155.866 179.385 154.98C180.896 154.082 182.673 153.633 184.717 153.633C186.762 153.633 188.526 154.069 190.01 154.941C191.508 155.801 192.66 157.018 193.467 158.594C194.288 160.169 194.698 162.012 194.698 164.121V165.879H177.452V162.285H192.002L189.288 165.645V163.457C189.288 162.233 189.099 161.211 188.721 160.391C188.344 159.557 187.816 158.932 187.139 158.516C186.475 158.099 185.7 157.891 184.815 157.891C183.93 157.891 183.142 158.105 182.452 158.535C181.775 158.965 181.241 159.596 180.85 160.43C180.473 161.25 180.284 162.259 180.284 163.457V165.664C180.284 166.823 180.473 167.812 180.85 168.633C181.241 169.453 181.794 170.085 182.51 170.527C183.226 170.957 184.079 171.172 185.069 171.172C185.85 171.172 186.527 171.048 187.1 170.801C187.673 170.553 188.142 170.241 188.506 169.863C188.871 169.486 189.118 169.102 189.249 168.711L189.288 168.594H194.522L194.463 168.809C194.307 169.577 194.001 170.352 193.545 171.133C193.09 171.914 192.471 172.63 191.69 173.281C190.922 173.932 189.978 174.453 188.858 174.844C187.751 175.234 186.449 175.43 184.952 175.43ZM202.393 175L195.147 154.062H201.241L205.616 169.961H205.733L210.049 154.062H216.006L208.819 175H202.393ZM217.999 175V154.062H223.702V157.578H223.819C224.249 156.38 224.978 155.423 226.006 154.707C227.048 153.991 228.272 153.633 229.678 153.633C230.655 153.633 231.534 153.802 232.315 154.141C233.096 154.479 233.754 154.967 234.288 155.605C234.835 156.243 235.219 157.025 235.44 157.949H235.557C235.87 157.064 236.338 156.302 236.963 155.664C237.601 155.013 238.35 154.512 239.21 154.16C240.082 153.809 241.032 153.633 242.061 153.633C243.428 153.633 244.626 153.926 245.655 154.512C246.683 155.098 247.484 155.918 248.057 156.973C248.63 158.027 248.917 159.264 248.917 160.684V175H243.213V162.109C243.213 161.302 243.077 160.618 242.803 160.059C242.543 159.499 242.159 159.076 241.651 158.789C241.156 158.503 240.538 158.359 239.795 158.359C239.079 158.359 238.448 158.522 237.901 158.848C237.367 159.173 236.95 159.629 236.651 160.215C236.351 160.801 236.202 161.484 236.202 162.266V175H230.713V161.934C230.713 161.178 230.577 160.534 230.303 160C230.03 159.466 229.639 159.062 229.131 158.789C228.637 158.503 228.038 158.359 227.335 158.359C226.618 158.359 225.987 158.529 225.44 158.867C224.893 159.206 224.463 159.674 224.151 160.273C223.851 160.872 223.702 161.569 223.702 162.363V175H217.999ZM252.647 175V154.062H258.35V175H252.647ZM255.499 151.367C254.639 151.367 253.917 151.074 253.331 150.488C252.745 149.902 252.452 149.206 252.452 148.398C252.452 147.578 252.745 146.882 253.331 146.309C253.917 145.723 254.639 145.43 255.499 145.43C256.358 145.43 257.081 145.723 257.667 146.309C258.252 146.882 258.545 147.578 258.545 148.398C258.545 149.206 258.252 149.902 257.667 150.488C257.081 151.074 256.358 151.367 255.499 151.367ZM270.792 175.43C268.864 175.43 267.224 175.15 265.87 174.59C264.515 174.03 263.454 173.255 262.686 172.266C261.931 171.263 261.475 170.104 261.319 168.789L261.299 168.613H266.866L266.905 168.789C267.087 169.609 267.497 170.247 268.135 170.703C268.773 171.159 269.659 171.387 270.792 171.387C271.521 171.387 272.139 171.302 272.647 171.133C273.155 170.951 273.545 170.697 273.819 170.371C274.105 170.046 274.249 169.655 274.249 169.199V169.18C274.249 168.62 274.047 168.171 273.643 167.832C273.239 167.493 272.523 167.207 271.495 166.973L267.94 166.23C266.586 165.944 265.453 165.534 264.542 165C263.643 164.453 262.966 163.783 262.51 162.988C262.055 162.181 261.827 161.257 261.827 160.215V160.195C261.827 158.854 262.185 157.695 262.901 156.719C263.617 155.742 264.633 154.987 265.948 154.453C267.276 153.906 268.825 153.633 270.596 153.633C272.445 153.633 274.014 153.932 275.303 154.531C276.605 155.117 277.601 155.911 278.292 156.914C278.995 157.917 279.366 159.03 279.405 160.254V160.449H274.151L274.131 160.293C274.04 159.538 273.689 158.913 273.077 158.418C272.478 157.91 271.651 157.656 270.596 157.656C269.945 157.656 269.379 157.747 268.897 157.93C268.415 158.112 268.044 158.372 267.784 158.711C267.523 159.036 267.393 159.427 267.393 159.883V159.902C267.393 160.254 267.478 160.573 267.647 160.859C267.829 161.133 268.129 161.374 268.545 161.582C268.962 161.79 269.522 161.973 270.225 162.129L273.78 162.891C275.98 163.346 277.556 164.03 278.506 164.941C279.47 165.853 279.952 167.077 279.952 168.613V168.633C279.952 170 279.561 171.191 278.78 172.207C277.999 173.223 276.918 174.017 275.538 174.59C274.17 175.15 272.588 175.43 270.792 175.43ZM288.995 175.332C287.601 175.332 286.377 175.065 285.323 174.531C284.268 173.984 283.441 173.236 282.842 172.285C282.256 171.322 281.963 170.228 281.963 169.004V168.965C281.963 167.689 282.282 166.602 282.92 165.703C283.558 164.792 284.483 164.076 285.694 163.555C286.905 163.034 288.376 162.715 290.108 162.598L298.272 162.09V165.645L290.967 166.113C289.874 166.178 289.04 166.439 288.467 166.895C287.894 167.337 287.608 167.93 287.608 168.672V168.711C287.608 169.479 287.901 170.085 288.487 170.527C289.073 170.957 289.861 171.172 290.85 171.172C291.696 171.172 292.452 171.009 293.116 170.684C293.793 170.345 294.32 169.889 294.698 169.316C295.088 168.73 295.284 168.073 295.284 167.344V160.996C295.284 160.072 294.991 159.342 294.405 158.809C293.819 158.262 292.966 157.988 291.846 157.988C290.779 157.988 289.932 158.21 289.307 158.652C288.682 159.095 288.298 159.655 288.155 160.332L288.116 160.508H282.901L282.92 160.273C283.025 158.984 283.448 157.839 284.19 156.836C284.945 155.833 285.987 155.052 287.315 154.492C288.656 153.919 290.245 153.633 292.081 153.633C293.89 153.633 295.46 153.926 296.788 154.512C298.116 155.085 299.144 155.898 299.874 156.953C300.616 158.008 300.987 159.238 300.987 160.645V175H295.284V171.875H295.167C294.776 172.591 294.268 173.21 293.643 173.73C293.031 174.238 292.335 174.635 291.553 174.922C290.772 175.195 289.919 175.332 288.995 175.332Z" fill="#4AB21E"/>
<g filter="url(#filter1_i_8_97)">
<rect x="416" y="140" width="180.093" height="50" rx="10" fill="#FEFCD4"/>
</g>
<path d="M429.764 176.43C428.006 176.43 426.489 175.993 425.213 175.121C423.937 174.249 422.954 172.999 422.264 171.371C421.586 169.743 421.248 167.797 421.248 165.531V165.512C421.248 163.233 421.593 161.286 422.283 159.672C422.973 158.044 423.95 156.801 425.213 155.941C426.489 155.069 428.006 154.633 429.764 154.633C430.753 154.633 431.665 154.796 432.498 155.121C433.331 155.447 434.06 155.915 434.685 156.527C435.323 157.126 435.831 157.849 436.209 158.695H436.326V147.816H442.029V176H436.326V172.426H436.209C435.844 173.259 435.349 173.975 434.724 174.574C434.099 175.16 433.37 175.616 432.537 175.941C431.704 176.267 430.779 176.43 429.764 176.43ZM431.678 171.703C432.602 171.703 433.416 171.456 434.119 170.961C434.822 170.453 435.369 169.737 435.76 168.812C436.15 167.888 436.346 166.794 436.346 165.531V165.512C436.346 164.249 436.144 163.161 435.74 162.25C435.349 161.326 434.803 160.616 434.099 160.121C433.409 159.613 432.602 159.359 431.678 159.359C430.727 159.359 429.907 159.607 429.217 160.102C428.527 160.596 427.993 161.306 427.615 162.23C427.238 163.142 427.049 164.236 427.049 165.512V165.531C427.049 166.794 427.231 167.888 427.596 168.812C427.973 169.737 428.507 170.453 429.197 170.961C429.9 171.456 430.727 171.703 431.678 171.703ZM455.369 176.43C453.234 176.43 451.398 175.993 449.861 175.121C448.325 174.236 447.14 172.979 446.307 171.352C445.486 169.724 445.076 167.797 445.076 165.57V165.551C445.076 163.324 445.486 161.397 446.307 159.77C447.14 158.129 448.305 156.866 449.803 155.98C451.313 155.082 453.09 154.633 455.135 154.633C457.179 154.633 458.943 155.069 460.428 155.941C461.925 156.801 463.077 158.018 463.885 159.594C464.705 161.169 465.115 163.012 465.115 165.121V166.879H447.869V163.285H462.42L459.705 166.645V164.457C459.705 163.233 459.516 162.211 459.139 161.391C458.761 160.557 458.234 159.932 457.557 159.516C456.892 159.099 456.118 158.891 455.232 158.891C454.347 158.891 453.559 159.105 452.869 159.535C452.192 159.965 451.658 160.596 451.267 161.43C450.89 162.25 450.701 163.259 450.701 164.457V166.664C450.701 167.823 450.89 168.812 451.267 169.633C451.658 170.453 452.211 171.085 452.928 171.527C453.644 171.957 454.497 172.172 455.486 172.172C456.267 172.172 456.945 172.048 457.517 171.801C458.09 171.553 458.559 171.241 458.924 170.863C459.288 170.486 459.536 170.102 459.666 169.711L459.705 169.594H464.939L464.881 169.809C464.724 170.577 464.418 171.352 463.963 172.133C463.507 172.914 462.889 173.63 462.107 174.281C461.339 174.932 460.395 175.453 459.275 175.844C458.168 176.234 456.866 176.43 455.369 176.43ZM472.81 176L465.564 155.062H471.658L476.033 170.961H476.15L480.467 155.062H486.424L479.236 176H472.81ZM488.748 167.035V162.055H501.404V167.035H488.748ZM505.76 176V155.062H511.463V158.578H511.58C512.01 157.38 512.739 156.423 513.767 155.707C514.809 154.991 516.033 154.633 517.439 154.633C518.416 154.633 519.295 154.802 520.076 155.141C520.857 155.479 521.515 155.967 522.049 156.605C522.596 157.243 522.98 158.025 523.201 158.949H523.318C523.631 158.064 524.099 157.302 524.724 156.664C525.363 156.013 526.111 155.512 526.971 155.16C527.843 154.809 528.793 154.633 529.822 154.633C531.189 154.633 532.387 154.926 533.416 155.512C534.445 156.098 535.245 156.918 535.818 157.973C536.391 159.027 536.678 160.264 536.678 161.684V176H530.974V163.109C530.974 162.302 530.838 161.618 530.564 161.059C530.304 160.499 529.92 160.076 529.412 159.789C528.917 159.503 528.299 159.359 527.557 159.359C526.84 159.359 526.209 159.522 525.662 159.848C525.128 160.173 524.711 160.629 524.412 161.215C524.113 161.801 523.963 162.484 523.963 163.266V176H518.474V162.934C518.474 162.178 518.338 161.534 518.064 161C517.791 160.466 517.4 160.062 516.892 159.789C516.398 159.503 515.799 159.359 515.096 159.359C514.379 159.359 513.748 159.529 513.201 159.867C512.654 160.206 512.224 160.674 511.912 161.273C511.613 161.872 511.463 162.569 511.463 163.363V176H505.76ZM540.408 176V155.062H546.111V176H540.408ZM543.26 152.367C542.4 152.367 541.678 152.074 541.092 151.488C540.506 150.902 540.213 150.206 540.213 149.398C540.213 148.578 540.506 147.882 541.092 147.309C541.678 146.723 542.4 146.43 543.26 146.43C544.119 146.43 544.842 146.723 545.428 147.309C546.014 147.882 546.307 148.578 546.307 149.398C546.307 150.206 546.014 150.902 545.428 151.488C544.842 152.074 544.119 152.367 543.26 152.367ZM558.553 176.43C556.626 176.43 554.985 176.15 553.631 175.59C552.277 175.03 551.215 174.255 550.447 173.266C549.692 172.263 549.236 171.104 549.08 169.789L549.06 169.613H554.627L554.666 169.789C554.848 170.609 555.258 171.247 555.896 171.703C556.534 172.159 557.42 172.387 558.553 172.387C559.282 172.387 559.9 172.302 560.408 172.133C560.916 171.951 561.307 171.697 561.58 171.371C561.866 171.046 562.01 170.655 562.01 170.199V170.18C562.01 169.62 561.808 169.171 561.404 168.832C561.001 168.493 560.284 168.207 559.256 167.973L555.701 167.23C554.347 166.944 553.214 166.534 552.303 166C551.404 165.453 550.727 164.783 550.271 163.988C549.816 163.181 549.588 162.257 549.588 161.215V161.195C549.588 159.854 549.946 158.695 550.662 157.719C551.378 156.742 552.394 155.987 553.709 155.453C555.037 154.906 556.586 154.633 558.357 154.633C560.206 154.633 561.775 154.932 563.064 155.531C564.366 156.117 565.363 156.911 566.053 157.914C566.756 158.917 567.127 160.03 567.166 161.254V161.449H561.912L561.892 161.293C561.801 160.538 561.45 159.913 560.838 159.418C560.239 158.91 559.412 158.656 558.357 158.656C557.706 158.656 557.14 158.747 556.658 158.93C556.176 159.112 555.805 159.372 555.545 159.711C555.284 160.036 555.154 160.427 555.154 160.883V160.902C555.154 161.254 555.239 161.573 555.408 161.859C555.59 162.133 555.89 162.374 556.307 162.582C556.723 162.79 557.283 162.973 557.986 163.129L561.541 163.891C563.741 164.346 565.317 165.03 566.267 165.941C567.231 166.853 567.713 168.077 567.713 169.613V169.633C567.713 171 567.322 172.191 566.541 173.207C565.76 174.223 564.679 175.017 563.299 175.59C561.932 176.15 560.349 176.43 558.553 176.43ZM576.756 176.332C575.363 176.332 574.139 176.065 573.084 175.531C572.029 174.984 571.202 174.236 570.603 173.285C570.017 172.322 569.724 171.228 569.724 170.004V169.965C569.724 168.689 570.043 167.602 570.682 166.703C571.32 165.792 572.244 165.076 573.455 164.555C574.666 164.034 576.137 163.715 577.869 163.598L586.033 163.09V166.645L578.728 167.113C577.635 167.178 576.801 167.439 576.228 167.895C575.655 168.337 575.369 168.93 575.369 169.672V169.711C575.369 170.479 575.662 171.085 576.248 171.527C576.834 171.957 577.622 172.172 578.611 172.172C579.458 172.172 580.213 172.009 580.877 171.684C581.554 171.345 582.081 170.889 582.459 170.316C582.849 169.73 583.045 169.073 583.045 168.344V161.996C583.045 161.072 582.752 160.342 582.166 159.809C581.58 159.262 580.727 158.988 579.607 158.988C578.54 158.988 577.693 159.21 577.068 159.652C576.443 160.095 576.059 160.655 575.916 161.332L575.877 161.508H570.662L570.682 161.273C570.786 159.984 571.209 158.839 571.951 157.836C572.706 156.833 573.748 156.052 575.076 155.492C576.417 154.919 578.006 154.633 579.842 154.633C581.652 154.633 583.221 154.926 584.549 155.512C585.877 156.085 586.905 156.898 587.635 157.953C588.377 159.008 588.748 160.238 588.748 161.645V176H583.045V172.875H582.928C582.537 173.591 582.029 174.21 581.404 174.73C580.792 175.238 580.096 175.635 579.314 175.922C578.533 176.195 577.68 176.332 576.756 176.332Z" fill="#4AB21E"/>
<g filter="url(#filter2_i_8_97)">
<rect x="703" y="138" width="265" height="50" rx="10" fill="#FEFCD4"/>
</g>
<path d="M708.592 174V153.062H714.295V156.578H714.413C714.842 155.38 715.571 154.423 716.6 153.707C717.642 152.991 718.866 152.633 720.272 152.633C721.249 152.633 722.127 152.802 722.909 153.141C723.69 153.479 724.347 153.967 724.881 154.605C725.428 155.243 725.812 156.025 726.034 156.949H726.151C726.463 156.064 726.932 155.302 727.557 154.664C728.195 154.013 728.944 153.512 729.803 153.16C730.676 152.809 731.626 152.633 732.655 152.633C734.022 152.633 735.22 152.926 736.249 153.512C737.277 154.098 738.078 154.918 738.651 155.973C739.224 157.027 739.51 158.264 739.51 159.684V174H733.807V161.109C733.807 160.302 733.67 159.618 733.397 159.059C733.137 158.499 732.752 158.076 732.245 157.789C731.75 157.503 731.131 157.359 730.389 157.359C729.673 157.359 729.042 157.522 728.495 157.848C727.961 158.173 727.544 158.629 727.245 159.215C726.945 159.801 726.795 160.484 726.795 161.266V174H721.307V160.934C721.307 160.178 721.17 159.534 720.897 159C720.624 158.466 720.233 158.062 719.725 157.789C719.23 157.503 718.631 157.359 717.928 157.359C717.212 157.359 716.581 157.529 716.034 157.867C715.487 158.206 715.057 158.674 714.745 159.273C714.445 159.872 714.295 160.569 714.295 161.363V174H708.592ZM743.241 174V153.062H748.944V174H743.241ZM746.092 150.367C745.233 150.367 744.51 150.074 743.924 149.488C743.338 148.902 743.045 148.206 743.045 147.398C743.045 146.578 743.338 145.882 743.924 145.309C744.51 144.723 745.233 144.43 746.092 144.43C746.952 144.43 747.674 144.723 748.26 145.309C748.846 145.882 749.139 146.578 749.139 147.398C749.139 148.206 748.846 148.902 748.26 149.488C747.674 150.074 746.952 150.367 746.092 150.367ZM761.385 174.43C759.458 174.43 757.818 174.15 756.463 173.59C755.109 173.03 754.048 172.255 753.28 171.266C752.525 170.263 752.069 169.104 751.913 167.789L751.893 167.613H757.459L757.499 167.789C757.681 168.609 758.091 169.247 758.729 169.703C759.367 170.159 760.252 170.387 761.385 170.387C762.114 170.387 762.733 170.302 763.241 170.133C763.749 169.951 764.139 169.697 764.413 169.371C764.699 169.046 764.842 168.655 764.842 168.199V168.18C764.842 167.62 764.64 167.171 764.237 166.832C763.833 166.493 763.117 166.207 762.088 165.973L758.534 165.23C757.18 164.944 756.047 164.534 755.135 164C754.237 163.453 753.56 162.783 753.104 161.988C752.648 161.181 752.42 160.257 752.42 159.215V159.195C752.42 157.854 752.778 156.695 753.495 155.719C754.211 154.742 755.226 153.987 756.542 153.453C757.87 152.906 759.419 152.633 761.19 152.633C763.039 152.633 764.608 152.932 765.897 153.531C767.199 154.117 768.195 154.911 768.885 155.914C769.588 156.917 769.959 158.03 769.999 159.254V159.449H764.745L764.725 159.293C764.634 158.538 764.282 157.913 763.67 157.418C763.071 156.91 762.245 156.656 761.19 156.656C760.539 156.656 759.972 156.747 759.491 156.93C759.009 157.112 758.638 157.372 758.377 157.711C758.117 158.036 757.987 158.427 757.987 158.883V158.902C757.987 159.254 758.071 159.573 758.241 159.859C758.423 160.133 758.722 160.374 759.139 160.582C759.556 160.79 760.116 160.973 760.819 161.129L764.374 161.891C766.574 162.346 768.15 163.03 769.1 163.941C770.064 164.853 770.545 166.077 770.545 167.613V167.633C770.545 169 770.155 170.191 769.374 171.207C768.592 172.223 767.512 173.017 766.131 173.59C764.764 174.15 763.182 174.43 761.385 174.43ZM779.588 174.332C778.195 174.332 776.971 174.065 775.917 173.531C774.862 172.984 774.035 172.236 773.436 171.285C772.85 170.322 772.557 169.228 772.557 168.004V167.965C772.557 166.689 772.876 165.602 773.514 164.703C774.152 163.792 775.077 163.076 776.288 162.555C777.499 162.034 778.97 161.715 780.702 161.598L788.866 161.09V164.645L781.561 165.113C780.467 165.178 779.634 165.439 779.061 165.895C778.488 166.337 778.202 166.93 778.202 167.672V167.711C778.202 168.479 778.495 169.085 779.081 169.527C779.667 169.957 780.454 170.172 781.444 170.172C782.29 170.172 783.045 170.009 783.709 169.684C784.387 169.345 784.914 168.889 785.292 168.316C785.682 167.73 785.877 167.073 785.877 166.344V159.996C785.877 159.072 785.584 158.342 784.999 157.809C784.413 157.262 783.56 156.988 782.44 156.988C781.372 156.988 780.526 157.21 779.901 157.652C779.276 158.095 778.892 158.655 778.749 159.332L778.709 159.508H773.495L773.514 159.273C773.618 157.984 774.042 156.839 774.784 155.836C775.539 154.833 776.581 154.052 777.909 153.492C779.25 152.919 780.838 152.633 782.674 152.633C784.484 152.633 786.053 152.926 787.381 153.512C788.709 154.085 789.738 154.898 790.467 155.953C791.209 157.008 791.581 158.238 791.581 159.645V174H785.877V170.875H785.76C785.37 171.591 784.862 172.21 784.237 172.73C783.625 173.238 782.928 173.635 782.147 173.922C781.366 174.195 780.513 174.332 779.588 174.332ZM795.272 174V153.062H800.975V156.578H801.092C801.522 155.38 802.251 154.423 803.28 153.707C804.321 152.991 805.545 152.633 806.952 152.633C807.928 152.633 808.807 152.802 809.588 153.141C810.37 153.479 811.027 153.967 811.561 154.605C812.108 155.243 812.492 156.025 812.713 156.949H812.831C813.143 156.064 813.612 155.302 814.237 154.664C814.875 154.013 815.624 153.512 816.483 153.16C817.355 152.809 818.306 152.633 819.334 152.633C820.702 152.633 821.9 152.926 822.928 153.512C823.957 154.098 824.758 154.918 825.331 155.973C825.903 157.027 826.19 158.264 826.19 159.684V174H820.487V161.109C820.487 160.302 820.35 159.618 820.077 159.059C819.816 158.499 819.432 158.076 818.924 157.789C818.43 157.503 817.811 157.359 817.069 157.359C816.353 157.359 815.721 157.522 815.174 157.848C814.64 158.173 814.224 158.629 813.924 159.215C813.625 159.801 813.475 160.484 813.475 161.266V174H807.987V160.934C807.987 160.178 807.85 159.534 807.577 159C807.303 158.466 806.913 158.062 806.405 157.789C805.91 157.503 805.311 157.359 804.608 157.359C803.892 157.359 803.26 157.529 802.713 157.867C802.167 158.206 801.737 158.674 801.424 159.273C801.125 159.872 800.975 160.569 800.975 161.363V174H795.272ZM829.92 174V153.062H835.624V174H829.92ZM832.772 150.367C831.913 150.367 831.19 150.074 830.604 149.488C830.018 148.902 829.725 148.206 829.725 147.398C829.725 146.578 830.018 145.882 830.604 145.309C831.19 144.723 831.913 144.43 832.772 144.43C833.631 144.43 834.354 144.723 834.94 145.309C835.526 145.882 835.819 146.578 835.819 147.398C835.819 148.206 835.526 148.902 834.94 149.488C834.354 150.074 833.631 150.367 832.772 150.367ZM848.065 174.43C846.138 174.43 844.497 174.15 843.143 173.59C841.789 173.03 840.728 172.255 839.959 171.266C839.204 170.263 838.749 169.104 838.592 167.789L838.573 167.613H844.139L844.178 167.789C844.361 168.609 844.771 169.247 845.409 169.703C846.047 170.159 846.932 170.387 848.065 170.387C848.794 170.387 849.413 170.302 849.92 170.133C850.428 169.951 850.819 169.697 851.092 169.371C851.379 169.046 851.522 168.655 851.522 168.199V168.18C851.522 167.62 851.32 167.171 850.917 166.832C850.513 166.493 849.797 166.207 848.768 165.973L845.213 165.23C843.859 164.944 842.726 164.534 841.815 164C840.917 163.453 840.239 162.783 839.784 161.988C839.328 161.181 839.1 160.257 839.1 159.215V159.195C839.1 157.854 839.458 156.695 840.174 155.719C840.89 154.742 841.906 153.987 843.221 153.453C844.549 152.906 846.099 152.633 847.87 152.633C849.719 152.633 851.288 152.932 852.577 153.531C853.879 154.117 854.875 154.911 855.565 155.914C856.268 156.917 856.639 158.03 856.678 159.254V159.449H851.424L851.405 159.293C851.314 158.538 850.962 157.913 850.35 157.418C849.751 156.91 848.924 156.656 847.87 156.656C847.219 156.656 846.652 156.747 846.17 156.93C845.689 157.112 845.318 157.372 845.057 157.711C844.797 158.036 844.667 158.427 844.667 158.883V158.902C844.667 159.254 844.751 159.573 844.92 159.859C845.103 160.133 845.402 160.374 845.819 160.582C846.236 160.79 846.795 160.973 847.499 161.129L851.053 161.891C853.254 162.346 854.829 163.03 855.78 163.941C856.743 164.853 857.225 166.077 857.225 167.613V167.633C857.225 169 856.834 170.191 856.053 171.207C855.272 172.223 854.191 173.017 852.811 173.59C851.444 174.15 849.862 174.43 848.065 174.43ZM866.268 174.332C864.875 174.332 863.651 174.065 862.596 173.531C861.542 172.984 860.715 172.236 860.116 171.285C859.53 170.322 859.237 169.228 859.237 168.004V167.965C859.237 166.689 859.556 165.602 860.194 164.703C860.832 163.792 861.756 163.076 862.967 162.555C864.178 162.034 865.65 161.715 867.381 161.598L875.545 161.09V164.645L868.241 165.113C867.147 165.178 866.314 165.439 865.741 165.895C865.168 166.337 864.881 166.93 864.881 167.672V167.711C864.881 168.479 865.174 169.085 865.76 169.527C866.346 169.957 867.134 170.172 868.124 170.172C868.97 170.172 869.725 170.009 870.389 169.684C871.066 169.345 871.594 168.889 871.971 168.316C872.362 167.73 872.557 167.073 872.557 166.344V159.996C872.557 159.072 872.264 158.342 871.678 157.809C871.092 157.262 870.239 156.988 869.12 156.988C868.052 156.988 867.206 157.21 866.581 157.652C865.956 158.095 865.571 158.655 865.428 159.332L865.389 159.508H860.174L860.194 159.273C860.298 157.984 860.721 156.839 861.463 155.836C862.219 154.833 863.26 154.052 864.588 153.492C865.93 152.919 867.518 152.633 869.354 152.633C871.164 152.633 872.733 152.926 874.061 153.512C875.389 154.085 876.418 154.898 877.147 155.953C877.889 157.008 878.26 158.238 878.26 159.645V174H872.557V170.875H872.44C872.049 171.591 871.542 172.21 870.917 172.73C870.305 173.238 869.608 173.635 868.827 173.922C868.045 174.195 867.193 174.332 866.268 174.332ZM884.92 174.332C884.035 174.332 883.286 174.026 882.674 173.414C882.062 172.802 881.756 172.053 881.756 171.168C881.756 170.283 882.062 169.534 882.674 168.922C883.286 168.31 884.035 168.004 884.92 168.004C885.806 168.004 886.555 168.31 887.167 168.922C887.778 169.534 888.084 170.283 888.084 171.168C888.084 172.053 887.778 172.802 887.167 173.414C886.555 174.026 885.806 174.332 884.92 174.332ZM891.6 180.836V153.062H897.303V156.715H897.44C897.818 155.868 898.312 155.139 898.924 154.527C899.549 153.915 900.272 153.447 901.092 153.121C901.926 152.796 902.837 152.633 903.827 152.633C905.597 152.633 907.121 153.069 908.397 153.941C909.673 154.801 910.656 156.044 911.346 157.672C912.036 159.299 912.381 161.246 912.381 163.512V163.531C912.381 165.797 912.036 167.743 911.346 169.371C910.669 170.999 909.699 172.249 908.436 173.121C907.173 173.993 905.663 174.43 903.905 174.43C902.915 174.43 901.997 174.267 901.151 173.941C900.305 173.616 899.569 173.16 898.944 172.574C898.319 171.975 897.811 171.259 897.42 170.426H897.303V180.836H891.6ZM901.952 169.703C902.902 169.703 903.722 169.456 904.413 168.961C905.103 168.453 905.637 167.737 906.014 166.812C906.392 165.888 906.581 164.794 906.581 163.531V163.512C906.581 162.236 906.392 161.135 906.014 160.211C905.637 159.286 905.096 158.583 904.393 158.102C903.703 157.607 902.889 157.359 901.952 157.359C901.027 157.359 900.213 157.613 899.51 158.121C898.807 158.616 898.26 159.326 897.87 160.25C897.479 161.161 897.284 162.255 897.284 163.531V163.551C897.284 164.801 897.479 165.888 897.87 166.812C898.273 167.737 898.82 168.453 899.51 168.961C900.213 169.456 901.027 169.703 901.952 169.703ZM915.35 174V153.062H921.053V156.5H921.17C921.717 155.302 922.525 154.358 923.592 153.668C924.66 152.978 925.982 152.633 927.557 152.633C929.862 152.633 931.639 153.329 932.889 154.723C934.152 156.103 934.784 158.023 934.784 160.484V174H929.081V161.656C929.081 160.289 928.755 159.234 928.104 158.492C927.466 157.737 926.509 157.359 925.233 157.359C924.387 157.359 923.651 157.555 923.026 157.945C922.401 158.323 921.913 158.857 921.561 159.547C921.222 160.237 921.053 161.044 921.053 161.969V174H915.35ZM948.182 181.266C946.268 181.266 944.595 180.999 943.163 180.465C941.743 179.944 940.611 179.234 939.764 178.336C938.931 177.438 938.423 176.428 938.241 175.309L938.221 175.133H943.768L943.827 175.27C944.061 175.777 944.549 176.227 945.292 176.617C946.034 177.008 946.997 177.203 948.182 177.203C949.653 177.203 950.773 176.852 951.542 176.148C952.31 175.445 952.694 174.508 952.694 173.336V170.133H952.577C952.212 170.862 951.717 171.493 951.092 172.027C950.467 172.561 949.732 172.978 948.885 173.277C948.052 173.564 947.127 173.707 946.112 173.707C944.367 173.707 942.857 173.29 941.581 172.457C940.318 171.624 939.341 170.432 938.651 168.883C937.974 167.32 937.635 165.458 937.635 163.297V163.277C937.635 161.051 937.98 159.143 938.67 157.555C939.374 155.966 940.363 154.749 941.639 153.902C942.915 153.056 944.439 152.633 946.209 152.633C947.199 152.633 948.104 152.796 948.924 153.121C949.745 153.447 950.461 153.909 951.073 154.508C951.698 155.107 952.199 155.816 952.577 156.637H952.694V153.062H958.397V173.414C958.397 174.964 957.98 176.324 957.147 177.496C956.327 178.681 955.148 179.605 953.612 180.27C952.088 180.934 950.278 181.266 948.182 181.266ZM948.084 169.527C949.022 169.527 949.836 169.28 950.526 168.785C951.216 168.29 951.75 167.587 952.127 166.676C952.518 165.764 952.713 164.684 952.713 163.434V163.414C952.713 162.164 952.518 161.09 952.127 160.191C951.75 159.28 951.209 158.583 950.506 158.102C949.816 157.607 949.009 157.359 948.084 157.359C947.147 157.359 946.327 157.607 945.624 158.102C944.92 158.583 944.38 159.273 944.002 160.172C943.625 161.07 943.436 162.151 943.436 163.414V163.434C943.436 164.684 943.625 165.764 944.002 166.676C944.38 167.587 944.92 168.29 945.624 168.785C946.327 169.28 947.147 169.527 948.084 169.527Z" fill="#4AB21E"/>
<rect x="218" y="72" width="566" height="44" fill="#FEFCD4"/>
<mask id="path-18-outside-1_8_97" maskUnits="userSpaceOnUse" x="226" y="34" width="550" height="70" fill="black">
<rect fill="white" x="226" y="34" width="550" height="70"/>
<path d="M231 99V39H279V51H291V87H279V99H231ZM255 87H266.52V51H255V87ZM315 99V39H363V51H339V63H363V75H339V87H363V99H315ZM411 99V87H399V63H387V39H411V63H435V39H459V63H447V87H435V99H411ZM483 99V39H507V51H531V39H555V99H531V75H507V99H483ZM579 99V39H603V99H579ZM627 99V87H663V75H639V63H627V51H639V39H687V51H651V63H675V75H687V87H675V99H627ZM711 99V51H723V39H759V51H771V99H747V75H735V99H711ZM735 63H747V51.48H735V63Z"/>
</mask>
<path d="M231 99V39H279V51H291V87H279V99H231ZM255 87H266.52V51H255V87ZM315 99V39H363V51H339V63H363V75H339V87H363V99H315ZM411 99V87H399V63H387V39H411V63H435V39H459V63H447V87H435V99H411ZM483 99V39H507V51H531V39H555V99H531V75H507V99H483ZM579 99V39H603V99H579ZM627 99V87H663V75H639V63H627V51H639V39H687V51H651V63H675V75H687V87H675V99H627ZM711 99V51H723V39H759V51H771V99H747V75H735V99H711ZM735 63H747V51.48H735V63Z" fill="#49B31F"/>
<path d="M231 99H226V104H231V99ZM231 39V34H226V39H231ZM279 39H284V34H279V39ZM279 51H274V56H279V51ZM291 51H296V46H291V51ZM291 87V92H296V87H291ZM279 87V82H274V87H279ZM279 99V104H284V99H279ZM255 87H250V92H255V87ZM266.52 87V92H271.52V87H266.52ZM266.52 51H271.52V46H266.52V51ZM255 51V46H250V51H255ZM231 99H236V39H231H226V99H231ZM231 39V44H279V39V34H231V39ZM279 39H274V51H279H284V39H279ZM279 51V56H291V51V46H279V51ZM291 51H286V87H291H296V51H291ZM291 87V82H279V87V92H291V87ZM279 87H274V99H279H284V87H279ZM279 99V94H231V99V104H279V99ZM255 87V92H266.52V87V82H255V87ZM266.52 87H271.52V51H266.52H261.52V87H266.52ZM266.52 51V46H255V51V56H266.52V51ZM255 51H250V87H255H260V51H255ZM315 99H310V104H315V99ZM315 39V34H310V39H315ZM363 39H368V34H363V39ZM363 51V56H368V51H363ZM339 51V46H334V51H339ZM339 63H334V68H339V63ZM363 63H368V58H363V63ZM363 75V80H368V75H363ZM339 75V70H334V75H339ZM339 87H334V92H339V87ZM363 87H368V82H363V87ZM363 99V104H368V99H363ZM315 99H320V39H315H310V99H315ZM315 39V44H363V39V34H315V39ZM363 39H358V51H363H368V39H363ZM363 51V46H339V51V56H363V51ZM339 51H334V63H339H344V51H339ZM339 63V68H363V63V58H339V63ZM363 63H358V75H363H368V63H363ZM363 75V70H339V75V80H363V75ZM339 75H334V87H339H344V75H339ZM339 87V92H363V87V82H339V87ZM363 87H358V99H363H368V87H363ZM363 99V94H315V99V104H363V99ZM411 99H406V104H411V99ZM411 87H416V82H411V87ZM399 87H394V92H399V87ZM399 63H404V58H399V63ZM387 63H382V68H387V63ZM387 39V34H382V39H387ZM411 39H416V34H411V39ZM411 63H406V68H411V63ZM435 63V68H440V63H435ZM435 39V34H430V39H435ZM459 39H464V34H459V39ZM459 63V68H464V63H459ZM447 63V58H442V63H447ZM447 87V92H452V87H447ZM435 87V82H430V87H435ZM435 99V104H440V99H435ZM411 99H416V87H411H406V99H411ZM411 87V82H399V87V92H411V87ZM399 87H404V63H399H394V87H399ZM399 63V58H387V63V68H399V63ZM387 63H392V39H387H382V63H387ZM387 39V44H411V39V34H387V39ZM411 39H406V63H411H416V39H411ZM411 63V68H435V63V58H411V63ZM435 63H440V39H435H430V63H435ZM435 39V44H459V39V34H435V39ZM459 39H454V63H459H464V39H459ZM459 63V58H447V63V68H459V63ZM447 63H442V87H447H452V63H447ZM447 87V82H435V87V92H447V87ZM435 87H430V99H435H440V87H435ZM435 99V94H411V99V104H435V99ZM483 99H478V104H483V99ZM483 39V34H478V39H483ZM507 39H512V34H507V39ZM507 51H502V56H507V51ZM531 51V56H536V51H531ZM531 39V34H526V39H531ZM555 39H560V34H555V39ZM555 99V104H560V99H555ZM531 99H526V104H531V99ZM531 75H536V70H531V75ZM507 75V70H502V75H507ZM507 99V104H512V99H507ZM483 99H488V39H483H478V99H483ZM483 39V44H507V39V34H483V39ZM507 39H502V51H507H512V39H507ZM507 51V56H531V51V46H507V51ZM531 51H536V39H531H526V51H531ZM531 39V44H555V39V34H531V39ZM555 39H550V99H555H560V39H555ZM555 99V94H531V99V104H555V99ZM531 99H536V75H531H526V99H531ZM531 75V70H507V75V80H531V75ZM507 75H502V99H507H512V75H507ZM507 99V94H483V99V104H507V99ZM579 99H574V104H579V99ZM579 39V34H574V39H579ZM603 39H608V34H603V39ZM603 99V104H608V99H603ZM579 99H584V39H579H574V99H579ZM579 39V44H603V39V34H579V39ZM603 39H598V99H603H608V39H603ZM603 99V94H579V99V104H603V99ZM627 99H622V104H627V99ZM627 87V82H622V87H627ZM663 87V92H668V87H663ZM663 75H668V70H663V75ZM639 75H634V80H639V75ZM639 63H644V58H639V63ZM627 63H622V68H627V63ZM627 51V46H622V51H627ZM639 51V56H644V51H639ZM639 39V34H634V39H639ZM687 39H692V34H687V39ZM687 51V56H692V51H687ZM651 51V46H646V51H651ZM651 63H646V68H651V63ZM675 63H680V58H675V63ZM675 75H670V80H675V75ZM687 75H692V70H687V75ZM687 87V92H692V87H687ZM675 87V82H670V87H675ZM675 99V104H680V99H675ZM627 99H632V87H627H622V99H627ZM627 87V92H663V87V82H627V87ZM663 87H668V75H663H658V87H663ZM663 75V70H639V75V80H663V75ZM639 75H644V63H639H634V75H639ZM639 63V58H627V63V68H639V63ZM627 63H632V51H627H622V63H627ZM627 51V56H639V51V46H627V51ZM639 51H644V39H639H634V51H639ZM639 39V44H687V39V34H639V39ZM687 39H682V51H687H692V39H687ZM687 51V46H651V51V56H687V51ZM651 51H646V63H651H656V51H651ZM651 63V68H675V63V58H651V63ZM675 63H670V75H675H680V63H675ZM675 75V80H687V75V70H675V75ZM687 75H682V87H687H692V75H687ZM687 87V82H675V87V92H687V87ZM675 87H670V99H675H680V87H675ZM675 99V94H627V99V104H675V99ZM711 99H706V104H711V99ZM711 51V46H706V51H711ZM723 51V56H728V51H723ZM723 39V34H718V39H723ZM759 39H764V34H759V39ZM759 51H754V56H759V51ZM771 51H776V46H771V51ZM771 99V104H776V99H771ZM747 99H742V104H747V99ZM747 75H752V70H747V75ZM735 75V70H730V75H735ZM735 99V104H740V99H735ZM735 63H730V68H735V63ZM747 63V68H752V63H747ZM747 51.48H752V46.48H747V51.48ZM735 51.48V46.48H730V51.48H735ZM711 99H716V51H711H706V99H711ZM711 51V56H723V51V46H711V51ZM723 51H728V39H723H718V51H723ZM723 39V44H759V39V34H723V39ZM759 39H754V51H759H764V39H759ZM759 51V56H771V51V46H759V51ZM771 51H766V99H771H776V51H771ZM771 99V94H747V99V104H771V99ZM747 99H752V75H747H742V99H747ZM747 75V70H735V75V80H747V75ZM735 75H730V99H735H740V75H735ZM735 99V94H711V99V104H735V99ZM735 63V68H747V63V58H735V63ZM747 63H752V51.48H747H742V63H747ZM747 51.48V46.48H735V51.48V56.48H747V51.48ZM735 51.48H730V63H735H740V51.48H735Z" fill="#2A8D00" mask="url(#path-18-outside-1_8_97)"/>
<defs>
<filter id="filter0_i_8_97" x="146" y="139" width="162" height="54" filterUnits="userSpaceOnUse" color-interpolation-filters="sRGB">
<feFlood flood-opacity="0" result="BackgroundImageFix"/>
<feBlend mode="normal" in="SourceGraphic" in2="BackgroundImageFix" result="shape"/>
<feColorMatrix in="SourceAlpha" type="matrix" values="0 0 0 0 0 0 0 0 0 0 0 0 0 0 0 0 0 0 127 0" result="hardAlpha"/>
<feOffset dy="4"/>
<feGaussianBlur stdDeviation="2"/>
<feComposite in2="hardAlpha" operator="arithmetic" k2="-1" k3="1"/>
<feColorMatrix type="matrix" values="0 0 0 0 0 0 0 0 0 0 0 0 0 0 0 0 0 0 0.25 0"/>
<feBlend mode="normal" in2="shape" result="effect1_innerShadow_8_97"/>
</filter>
<filter id="filter1_i_8_97" x="416" y="140" width="180.093" height="54" filterUnits="userSpaceOnUse" color-interpolation-filters="sRGB">
<feFlood flood-opacity="0" result="BackgroundImageFix"/>
<feBlend mode="normal" in="SourceGraphic" in2="BackgroundImageFix" result="shape"/>
<feColorMatrix in="SourceAlpha" type="matrix" values="0 0 0 0 0 0 0 0 0 0 0 0 0 0 0 0 0 0 127 0" result="hardAlpha"/>
<feOffset dy="4"/>
<feGaussianBlur stdDeviation="2"/>
<feComposite in2="hardAlpha" operator="arithmetic" k2="-1" k3="1"/>
<feColorMatrix type="matrix" values="0 0 0 0 0 0 0 0 0 0 0 0 0 0 0 0 0 0 0.25 0"/>
<feBlend mode="normal" in2="shape" result="effect1_innerShadow_8_97"/>
</filter>
<filter id="filter2_i_8_97" x="703" y="138" width="265" height="54" filterUnits="userSpaceOnUse" color-interpolation-filters="sRGB">
<feFlood flood-opacity="0" result="BackgroundImageFix"/>
<feBlend mode="normal" in="SourceGraphic" in2="BackgroundImageFix" result="shape"/>
<feColorMatrix in="SourceAlpha" type="matrix" values="0 0 0 0 0 0 0 0 0 0 0 0 0 0 0 0 0 0 127 0" result="hardAlpha"/>
<feOffset dy="4"/>
<feGaussianBlur stdDeviation="2"/>
<feComposite in2="hardAlpha" operator="arithmetic" k2="-1" k3="1"/>
<feColorMatrix type="matrix" values="0 0 0 0 0 0 0 0 0 0 0 0 0 0 0 0 0 0 0.25 0"/>
<feBlend mode="normal" in2="shape" result="effect1_innerShadow_8_97"/>
</filter>
<radialGradient id="paint0_radial_8_97" cx="0" cy="0" r="1" gradientUnits="userSpaceOnUse" gradientTransform="translate(637.571 208.064) scale(110.942 110.941)">
<stop stop-color="#FFDD55"/>
<stop offset="0.328" stop-color="#FF543F"/>
<stop offset="0.3484" stop-color="#FC5245"/>
<stop offset="0.5039" stop-color="#E64771"/>
<stop offset="0.6433" stop-color="#D53E91"/>
<stop offset="0.7606" stop-color="#CC39A4"/>
<stop offset="0.8414" stop-color="#C837AB"/>
</radialGradient>
<radialGradient id="paint1_radial_8_97" cx="0" cy="0" r="1" gradientUnits="userSpaceOnUse" gradientTransform="translate(618.806 117.889) scale(73.6665 49.0839)">
<stop stop-color="#4168C9"/>
<stop offset="0.9988" stop-color="#4168C9" stop-opacity="0"/>
</radialGradient>
</defs>
</svg>
