<svg width="1020" height="255" viewBox="0 0 1020 255" fill="none" xmlns="http://www.w3.org/2000/svg">
<rect x="7.5" y="82.5" width="1005" height="165" rx="82.5" fill="#E5D2AB" stroke="#5F371B" stroke-width="15"/>
<path d="M349.495 210.245C350.913 209.636 351.907 208.229 351.907 206.591V195.842C351.907 195.45 351.939 195.042 351.989 194.628C351.961 194.636 351.935 194.642 351.907 194.648C351.907 194.648 345.923 194.648 344.726 194.648C341.735 194.648 339.142 193.454 337.945 191.065C336.549 188.478 335.951 184.098 332.361 181.71C331.762 181.312 332.161 180.715 333.358 180.715C334.554 180.914 337.147 182.506 338.743 184.696C340.538 186.885 342.333 188.677 345.524 188.677C350.485 188.677 353.143 188.428 354.743 187.572C356.606 184.807 359.185 182.705 361.879 182.705V182.655C350.574 182.293 343.352 178.543 339.99 172.753C332.68 172.836 326.315 173.559 322.683 174.16C322.567 173.509 322.468 172.854 322.382 172.195C325.966 171.606 332.041 170.907 339.026 170.774C338.803 170.225 338.609 169.661 338.446 169.084C331.443 168.73 325.4 169.007 322.117 169.277C322.077 168.616 322.023 167.958 322.015 167.289C325.304 167.02 331.184 166.751 338.007 167.068C337.849 166.073 337.748 165.055 337.748 163.997C337.748 160.613 338.944 157.03 341.138 154.044C340.141 150.66 338.745 143.494 341.537 140.907C346.922 140.907 350.712 143.494 352.507 145.087C355.896 143.692 359.685 142.895 363.874 142.895C368.062 142.895 371.852 143.692 375.043 145.085C376.838 143.492 380.628 140.905 386.013 140.905C389.005 143.692 387.409 150.857 386.412 154.042C388.606 157.028 389.803 160.412 389.603 163.995C389.603 164.958 389.513 165.887 389.384 166.799C396.362 166.457 402.402 166.731 405.747 167.002C405.743 167.673 405.681 168.328 405.645 168.991C402.312 168.716 396.121 168.433 388.973 168.813C388.795 169.482 388.58 170.133 388.325 170.764C395.397 170.856 401.618 171.538 405.374 172.136C405.288 172.796 405.188 173.451 405.073 174.1C401.259 173.491 394.759 172.779 387.363 172.743C384.042 178.471 376.952 182.207 365.868 182.643V182.705C371.054 182.705 375.841 190.468 375.841 195.842V206.591C375.841 208.229 376.834 209.636 378.252 210.245C396.524 204.21 409.748 187.012 409.748 166.781C409.748 141.538 389.17 121 363.874 121C338.577 121 318 141.538 318 166.781C318 187.012 331.224 204.21 349.495 210.245Z" fill="black"/>
<path d="M673.737 210.953L624.318 211C613.446 211.01 604.544 202.124 604.531 191.252L604.484 141.834C604.474 130.962 613.36 122.059 624.232 122.047L673.65 122C684.522 121.99 693.425 130.876 693.437 141.748L693.484 191.166C693.497 202.04 684.609 210.943 673.737 210.953Z" fill="url(#paint0_radial_20_2)"/>
<path d="M673.737 210.953L624.318 211C613.446 211.01 604.544 202.124 604.531 191.252L604.484 141.834C604.474 130.962 613.36 122.059 624.232 122.047L673.65 122C684.522 121.99 693.425 130.876 693.437 141.748L693.484 191.166C693.497 202.04 684.609 210.943 673.737 210.953Z" fill="url(#paint1_radial_20_2)"/>
<path d="M648.986 183.798C639.45 183.798 631.689 176.039 631.689 166.501C631.689 156.964 639.45 149.205 648.986 149.205C658.521 149.205 666.282 156.964 666.282 166.501C666.282 176.039 658.521 183.798 648.986 183.798ZM648.986 154.147C642.173 154.147 636.631 159.689 636.631 166.501C636.631 173.314 642.173 178.856 648.986 178.856C655.798 178.856 661.34 173.314 661.34 166.501C661.34 159.689 655.798 154.147 648.986 154.147Z" fill="white"/>
<path d="M667.517 151.676C669.564 151.676 671.224 150.016 671.224 147.969C671.224 145.922 669.564 144.263 667.517 144.263C665.47 144.263 663.811 145.922 663.811 147.969C663.811 150.016 665.47 151.676 667.517 151.676Z" fill="white"/>
<path d="M663.811 198.623H634.16C624.625 198.623 616.864 190.865 616.864 181.327V151.676C616.864 142.138 624.625 134.379 634.16 134.379H663.811C673.346 134.379 681.108 142.138 681.108 151.676V181.327C681.108 190.865 673.346 198.623 663.811 198.623ZM634.16 139.321C627.348 139.321 621.806 144.863 621.806 151.676V181.327C621.806 188.139 627.348 193.681 634.16 193.681H663.811C670.624 193.681 676.166 188.139 676.166 181.327V151.676C676.166 144.863 670.624 139.321 663.811 139.321H634.16Z" fill="white"/>
<rect x="67" y="127" width="63" height="41" fill="white"/>
<rect x="65" y="158" width="65" height="14" fill="white"/>
<rect x="65" y="172" width="60" height="10" fill="white"/>
<rect x="67" y="172" width="34" height="21" fill="white"/>
<path d="M59 119L52 135.62V196H73V207.667H84.6667L96.3333 196H112.667L136 172.667V119H59ZM126.667 168L115 179.667H94L82.3333 191.333V179.667H68.3333V128.333H126.667V168Z" fill="#8E24AA"/>
<path d="M112.667 165.667H101V142.333H112.667V165.667Z" fill="#8E24AA"/>
<path d="M93.9999 165.667H82.3333V142.333H93.9999V165.667Z" fill="#8E24AA"/>
<g filter="url(#filter0_i_20_2)">
<rect x="146" y="142" width="162" height="50" rx="10" fill="white"/>
</g>
<path d="M159.346 178.43C157.588 178.43 156.071 177.993 154.795 177.121C153.519 176.249 152.536 174.999 151.846 173.371C151.169 171.743 150.831 169.797 150.831 167.531V167.512C150.831 165.233 151.176 163.286 151.866 161.672C152.556 160.044 153.532 158.801 154.795 157.941C156.071 157.069 157.588 156.633 159.346 156.633C160.336 156.633 161.247 156.796 162.081 157.121C162.914 157.447 163.643 157.915 164.268 158.527C164.906 159.126 165.414 159.849 165.792 160.695H165.909V149.816H171.612V178H165.909V174.426H165.792C165.427 175.259 164.932 175.975 164.307 176.574C163.682 177.16 162.953 177.616 162.12 177.941C161.286 178.267 160.362 178.43 159.346 178.43ZM161.26 173.703C162.185 173.703 162.999 173.456 163.702 172.961C164.405 172.453 164.952 171.737 165.342 170.812C165.733 169.888 165.928 168.794 165.928 167.531V167.512C165.928 166.249 165.726 165.161 165.323 164.25C164.932 163.326 164.385 162.616 163.682 162.121C162.992 161.613 162.185 161.359 161.26 161.359C160.31 161.359 159.489 161.607 158.799 162.102C158.109 162.596 157.575 163.306 157.198 164.23C156.82 165.142 156.631 166.236 156.631 167.512V167.531C156.631 168.794 156.814 169.888 157.178 170.812C157.556 171.737 158.09 172.453 158.78 172.961C159.483 173.456 160.31 173.703 161.26 173.703ZM184.952 178.43C182.816 178.43 180.98 177.993 179.444 177.121C177.907 176.236 176.722 174.979 175.889 173.352C175.069 171.724 174.659 169.797 174.659 167.57V167.551C174.659 165.324 175.069 163.397 175.889 161.77C176.722 160.129 177.888 158.866 179.385 157.98C180.896 157.082 182.673 156.633 184.717 156.633C186.762 156.633 188.526 157.069 190.01 157.941C191.508 158.801 192.66 160.018 193.467 161.594C194.288 163.169 194.698 165.012 194.698 167.121V168.879H177.452V165.285H192.002L189.288 168.645V166.457C189.288 165.233 189.099 164.211 188.721 163.391C188.344 162.557 187.816 161.932 187.139 161.516C186.475 161.099 185.7 160.891 184.815 160.891C183.93 160.891 183.142 161.105 182.452 161.535C181.775 161.965 181.241 162.596 180.85 163.43C180.472 164.25 180.284 165.259 180.284 166.457V168.664C180.284 169.823 180.472 170.812 180.85 171.633C181.241 172.453 181.794 173.085 182.51 173.527C183.226 173.957 184.079 174.172 185.069 174.172C185.85 174.172 186.527 174.048 187.1 173.801C187.673 173.553 188.142 173.241 188.506 172.863C188.871 172.486 189.118 172.102 189.249 171.711L189.288 171.594H194.522L194.463 171.809C194.307 172.577 194.001 173.352 193.545 174.133C193.09 174.914 192.471 175.63 191.69 176.281C190.922 176.932 189.978 177.453 188.858 177.844C187.751 178.234 186.449 178.43 184.952 178.43ZM202.393 178L195.147 157.062H201.241L205.616 172.961H205.733L210.049 157.062H216.006L208.819 178H202.393ZM217.999 178V157.062H223.702V160.578H223.819C224.249 159.38 224.978 158.423 226.006 157.707C227.048 156.991 228.272 156.633 229.678 156.633C230.655 156.633 231.534 156.802 232.315 157.141C233.096 157.479 233.754 157.967 234.288 158.605C234.834 159.243 235.219 160.025 235.44 160.949H235.557C235.87 160.064 236.338 159.302 236.963 158.664C237.601 158.013 238.35 157.512 239.209 157.16C240.082 156.809 241.032 156.633 242.061 156.633C243.428 156.633 244.626 156.926 245.655 157.512C246.683 158.098 247.484 158.918 248.057 159.973C248.63 161.027 248.917 162.264 248.917 163.684V178H243.213V165.109C243.213 164.302 243.077 163.618 242.803 163.059C242.543 162.499 242.159 162.076 241.651 161.789C241.156 161.503 240.538 161.359 239.795 161.359C239.079 161.359 238.448 161.522 237.901 161.848C237.367 162.173 236.95 162.629 236.651 163.215C236.351 163.801 236.202 164.484 236.202 165.266V178H230.713V164.934C230.713 164.178 230.577 163.534 230.303 163C230.03 162.466 229.639 162.062 229.131 161.789C228.637 161.503 228.038 161.359 227.334 161.359C226.618 161.359 225.987 161.529 225.44 161.867C224.893 162.206 224.463 162.674 224.151 163.273C223.851 163.872 223.702 164.569 223.702 165.363V178H217.999ZM252.647 178V157.062H258.35V178H252.647ZM255.499 154.367C254.639 154.367 253.917 154.074 253.331 153.488C252.745 152.902 252.452 152.206 252.452 151.398C252.452 150.578 252.745 149.882 253.331 149.309C253.917 148.723 254.639 148.43 255.499 148.43C256.358 148.43 257.081 148.723 257.667 149.309C258.252 149.882 258.545 150.578 258.545 151.398C258.545 152.206 258.252 152.902 257.667 153.488C257.081 154.074 256.358 154.367 255.499 154.367ZM270.792 178.43C268.864 178.43 267.224 178.15 265.87 177.59C264.515 177.03 263.454 176.255 262.686 175.266C261.931 174.263 261.475 173.104 261.319 171.789L261.299 171.613H266.866L266.905 171.789C267.087 172.609 267.497 173.247 268.135 173.703C268.773 174.159 269.659 174.387 270.792 174.387C271.521 174.387 272.139 174.302 272.647 174.133C273.155 173.951 273.545 173.697 273.819 173.371C274.105 173.046 274.249 172.655 274.249 172.199V172.18C274.249 171.62 274.047 171.171 273.643 170.832C273.239 170.493 272.523 170.207 271.495 169.973L267.94 169.23C266.586 168.944 265.453 168.534 264.542 168C263.643 167.453 262.966 166.783 262.51 165.988C262.055 165.181 261.827 164.257 261.827 163.215V163.195C261.827 161.854 262.185 160.695 262.901 159.719C263.617 158.742 264.633 157.987 265.948 157.453C267.276 156.906 268.825 156.633 270.596 156.633C272.445 156.633 274.014 156.932 275.303 157.531C276.605 158.117 277.601 158.911 278.292 159.914C278.995 160.917 279.366 162.03 279.405 163.254V163.449H274.151L274.131 163.293C274.04 162.538 273.689 161.913 273.077 161.418C272.478 160.91 271.651 160.656 270.596 160.656C269.945 160.656 269.379 160.747 268.897 160.93C268.415 161.112 268.044 161.372 267.784 161.711C267.523 162.036 267.393 162.427 267.393 162.883V162.902C267.393 163.254 267.478 163.573 267.647 163.859C267.829 164.133 268.129 164.374 268.545 164.582C268.962 164.79 269.522 164.973 270.225 165.129L273.78 165.891C275.98 166.346 277.556 167.03 278.506 167.941C279.47 168.853 279.952 170.077 279.952 171.613V171.633C279.952 173 279.561 174.191 278.78 175.207C277.999 176.223 276.918 177.017 275.538 177.59C274.17 178.15 272.588 178.43 270.792 178.43ZM288.995 178.332C287.601 178.332 286.377 178.065 285.323 177.531C284.268 176.984 283.441 176.236 282.842 175.285C282.256 174.322 281.963 173.228 281.963 172.004V171.965C281.963 170.689 282.282 169.602 282.92 168.703C283.558 167.792 284.483 167.076 285.694 166.555C286.905 166.034 288.376 165.715 290.108 165.598L298.272 165.09V168.645L290.967 169.113C289.874 169.178 289.04 169.439 288.467 169.895C287.894 170.337 287.608 170.93 287.608 171.672V171.711C287.608 172.479 287.901 173.085 288.487 173.527C289.073 173.957 289.861 174.172 290.85 174.172C291.696 174.172 292.452 174.009 293.116 173.684C293.793 173.345 294.32 172.889 294.698 172.316C295.088 171.73 295.284 171.073 295.284 170.344V163.996C295.284 163.072 294.991 162.342 294.405 161.809C293.819 161.262 292.966 160.988 291.846 160.988C290.778 160.988 289.932 161.21 289.307 161.652C288.682 162.095 288.298 162.655 288.155 163.332L288.116 163.508H282.901L282.92 163.273C283.025 161.984 283.448 160.839 284.19 159.836C284.945 158.833 285.987 158.052 287.315 157.492C288.656 156.919 290.245 156.633 292.081 156.633C293.89 156.633 295.459 156.926 296.788 157.512C298.116 158.085 299.144 158.898 299.874 159.953C300.616 161.008 300.987 162.238 300.987 163.645V178H295.284V174.875H295.167C294.776 175.591 294.268 176.21 293.643 176.73C293.031 177.238 292.334 177.635 291.553 177.922C290.772 178.195 289.919 178.332 288.995 178.332Z" fill="#351E1F"/>
<g filter="url(#filter1_i_20_2)">
<rect x="416" y="143" width="180.093" height="50" rx="10" fill="white"/>
</g>
<path d="M429.763 179.43C428.006 179.43 426.489 178.993 425.213 178.121C423.937 177.249 422.954 175.999 422.263 174.371C421.586 172.743 421.248 170.797 421.248 168.531V168.512C421.248 166.233 421.593 164.286 422.283 162.672C422.973 161.044 423.95 159.801 425.213 158.941C426.489 158.069 428.006 157.633 429.763 157.633C430.753 157.633 431.664 157.796 432.498 158.121C433.331 158.447 434.06 158.915 434.685 159.527C435.323 160.126 435.831 160.849 436.209 161.695H436.326V150.816H442.029V179H436.326V175.426H436.209C435.844 176.259 435.349 176.975 434.724 177.574C434.099 178.16 433.37 178.616 432.537 178.941C431.704 179.267 430.779 179.43 429.763 179.43ZM431.677 174.703C432.602 174.703 433.416 174.456 434.119 173.961C434.822 173.453 435.369 172.737 435.76 171.812C436.15 170.888 436.345 169.794 436.345 168.531V168.512C436.345 167.249 436.144 166.161 435.74 165.25C435.349 164.326 434.802 163.616 434.099 163.121C433.409 162.613 432.602 162.359 431.677 162.359C430.727 162.359 429.907 162.607 429.217 163.102C428.526 163.596 427.993 164.306 427.615 165.23C427.237 166.142 427.049 167.236 427.049 168.512V168.531C427.049 169.794 427.231 170.888 427.595 171.812C427.973 172.737 428.507 173.453 429.197 173.961C429.9 174.456 430.727 174.703 431.677 174.703ZM455.369 179.43C453.233 179.43 451.398 178.993 449.861 178.121C448.325 177.236 447.14 175.979 446.306 174.352C445.486 172.724 445.076 170.797 445.076 168.57V168.551C445.076 166.324 445.486 164.397 446.306 162.77C447.14 161.129 448.305 159.866 449.802 158.98C451.313 158.082 453.09 157.633 455.135 157.633C457.179 157.633 458.943 158.069 460.427 158.941C461.925 159.801 463.077 161.018 463.885 162.594C464.705 164.169 465.115 166.012 465.115 168.121V169.879H447.869V166.285H462.42L459.705 169.645V167.457C459.705 166.233 459.516 165.211 459.138 164.391C458.761 163.557 458.233 162.932 457.556 162.516C456.892 162.099 456.118 161.891 455.232 161.891C454.347 161.891 453.559 162.105 452.869 162.535C452.192 162.965 451.658 163.596 451.267 164.43C450.89 165.25 450.701 166.259 450.701 167.457V169.664C450.701 170.823 450.89 171.812 451.267 172.633C451.658 173.453 452.211 174.085 452.927 174.527C453.644 174.957 454.497 175.172 455.486 175.172C456.267 175.172 456.944 175.048 457.517 174.801C458.09 174.553 458.559 174.241 458.924 173.863C459.288 173.486 459.536 173.102 459.666 172.711L459.705 172.594H464.939L464.881 172.809C464.724 173.577 464.418 174.352 463.963 175.133C463.507 175.914 462.888 176.63 462.107 177.281C461.339 177.932 460.395 178.453 459.275 178.844C458.168 179.234 456.866 179.43 455.369 179.43ZM472.81 179L465.564 158.062H471.658L476.033 173.961H476.15L480.467 158.062H486.424L479.236 179H472.81ZM488.748 170.035V165.055H501.404V170.035H488.748ZM505.76 179V158.062H511.463V161.578H511.58C512.01 160.38 512.739 159.423 513.767 158.707C514.809 157.991 516.033 157.633 517.439 157.633C518.416 157.633 519.295 157.802 520.076 158.141C520.857 158.479 521.515 158.967 522.049 159.605C522.595 160.243 522.98 161.025 523.201 161.949H523.318C523.631 161.064 524.099 160.302 524.724 159.664C525.362 159.013 526.111 158.512 526.97 158.16C527.843 157.809 528.793 157.633 529.822 157.633C531.189 157.633 532.387 157.926 533.416 158.512C534.444 159.098 535.245 159.918 535.818 160.973C536.391 162.027 536.677 163.264 536.677 164.684V179H530.974V166.109C530.974 165.302 530.838 164.618 530.564 164.059C530.304 163.499 529.92 163.076 529.412 162.789C528.917 162.503 528.299 162.359 527.556 162.359C526.84 162.359 526.209 162.522 525.662 162.848C525.128 163.173 524.711 163.629 524.412 164.215C524.112 164.801 523.963 165.484 523.963 166.266V179H518.474V165.934C518.474 165.178 518.338 164.534 518.064 164C517.791 163.466 517.4 163.062 516.892 162.789C516.398 162.503 515.799 162.359 515.095 162.359C514.379 162.359 513.748 162.529 513.201 162.867C512.654 163.206 512.224 163.674 511.912 164.273C511.612 164.872 511.463 165.569 511.463 166.363V179H505.76ZM540.408 179V158.062H546.111V179H540.408ZM543.26 155.367C542.4 155.367 541.677 155.074 541.092 154.488C540.506 153.902 540.213 153.206 540.213 152.398C540.213 151.578 540.506 150.882 541.092 150.309C541.677 149.723 542.4 149.43 543.26 149.43C544.119 149.43 544.842 149.723 545.427 150.309C546.013 150.882 546.306 151.578 546.306 152.398C546.306 153.206 546.013 153.902 545.427 154.488C544.842 155.074 544.119 155.367 543.26 155.367ZM558.552 179.43C556.625 179.43 554.985 179.15 553.631 178.59C552.276 178.03 551.215 177.255 550.447 176.266C549.692 175.263 549.236 174.104 549.08 172.789L549.06 172.613H554.627L554.666 172.789C554.848 173.609 555.258 174.247 555.896 174.703C556.534 175.159 557.42 175.387 558.552 175.387C559.282 175.387 559.9 175.302 560.408 175.133C560.916 174.951 561.306 174.697 561.58 174.371C561.866 174.046 562.01 173.655 562.01 173.199V173.18C562.01 172.62 561.808 172.171 561.404 171.832C561 171.493 560.284 171.207 559.256 170.973L555.701 170.23C554.347 169.944 553.214 169.534 552.302 169C551.404 168.453 550.727 167.783 550.271 166.988C549.816 166.181 549.588 165.257 549.588 164.215V164.195C549.588 162.854 549.946 161.695 550.662 160.719C551.378 159.742 552.394 158.987 553.709 158.453C555.037 157.906 556.586 157.633 558.357 157.633C560.206 157.633 561.775 157.932 563.064 158.531C564.366 159.117 565.362 159.911 566.052 160.914C566.756 161.917 567.127 163.03 567.166 164.254V164.449H561.912L561.892 164.293C561.801 163.538 561.45 162.913 560.838 162.418C560.239 161.91 559.412 161.656 558.357 161.656C557.706 161.656 557.14 161.747 556.658 161.93C556.176 162.112 555.805 162.372 555.545 162.711C555.284 163.036 555.154 163.427 555.154 163.883V163.902C555.154 164.254 555.239 164.573 555.408 164.859C555.59 165.133 555.89 165.374 556.306 165.582C556.723 165.79 557.283 165.973 557.986 166.129L561.541 166.891C563.741 167.346 565.317 168.03 566.267 168.941C567.231 169.853 567.713 171.077 567.713 172.613V172.633C567.713 174 567.322 175.191 566.541 176.207C565.76 177.223 564.679 178.017 563.299 178.59C561.931 179.15 560.349 179.43 558.552 179.43ZM576.756 179.332C575.362 179.332 574.138 179.065 573.084 178.531C572.029 177.984 571.202 177.236 570.603 176.285C570.017 175.322 569.724 174.228 569.724 173.004V172.965C569.724 171.689 570.043 170.602 570.681 169.703C571.319 168.792 572.244 168.076 573.455 167.555C574.666 167.034 576.137 166.715 577.869 166.598L586.033 166.09V169.645L578.728 170.113C577.635 170.178 576.801 170.439 576.228 170.895C575.655 171.337 575.369 171.93 575.369 172.672V172.711C575.369 173.479 575.662 174.085 576.248 174.527C576.834 174.957 577.622 175.172 578.611 175.172C579.457 175.172 580.213 175.009 580.877 174.684C581.554 174.345 582.081 173.889 582.459 173.316C582.849 172.73 583.045 172.073 583.045 171.344V164.996C583.045 164.072 582.752 163.342 582.166 162.809C581.58 162.262 580.727 161.988 579.607 161.988C578.539 161.988 577.693 162.21 577.068 162.652C576.443 163.095 576.059 163.655 575.916 164.332L575.877 164.508H570.662L570.681 164.273C570.786 162.984 571.209 161.839 571.951 160.836C572.706 159.833 573.748 159.052 575.076 158.492C576.417 157.919 578.006 157.633 579.842 157.633C581.651 157.633 583.22 157.926 584.549 158.512C585.877 159.085 586.905 159.898 587.635 160.953C588.377 162.008 588.748 163.238 588.748 164.645V179H583.045V175.875H582.927C582.537 176.591 582.029 177.21 581.404 177.73C580.792 178.238 580.095 178.635 579.314 178.922C578.533 179.195 577.68 179.332 576.756 179.332Z" fill="#351E1F"/>
<g filter="url(#filter2_i_20_2)">
<rect x="703" y="141" width="265" height="50" rx="10" fill="white"/>
</g>
<path d="M708.592 177V156.062H714.295V159.578H714.413C714.842 158.38 715.571 157.423 716.6 156.707C717.642 155.991 718.866 155.633 720.272 155.633C721.249 155.633 722.127 155.802 722.909 156.141C723.69 156.479 724.347 156.967 724.881 157.605C725.428 158.243 725.812 159.025 726.034 159.949H726.151C726.463 159.064 726.932 158.302 727.557 157.664C728.195 157.013 728.944 156.512 729.803 156.16C730.676 155.809 731.626 155.633 732.655 155.633C734.022 155.633 735.22 155.926 736.249 156.512C737.277 157.098 738.078 157.918 738.651 158.973C739.224 160.027 739.51 161.264 739.51 162.684V177H733.807V164.109C733.807 163.302 733.67 162.618 733.397 162.059C733.137 161.499 732.752 161.076 732.245 160.789C731.75 160.503 731.131 160.359 730.389 160.359C729.673 160.359 729.042 160.522 728.495 160.848C727.961 161.173 727.544 161.629 727.245 162.215C726.945 162.801 726.795 163.484 726.795 164.266V177H721.307V163.934C721.307 163.178 721.17 162.534 720.897 162C720.624 161.466 720.233 161.062 719.725 160.789C719.23 160.503 718.631 160.359 717.928 160.359C717.212 160.359 716.581 160.529 716.034 160.867C715.487 161.206 715.057 161.674 714.745 162.273C714.445 162.872 714.295 163.569 714.295 164.363V177H708.592ZM743.241 177V156.062H748.944V177H743.241ZM746.092 153.367C745.233 153.367 744.51 153.074 743.924 152.488C743.338 151.902 743.045 151.206 743.045 150.398C743.045 149.578 743.338 148.882 743.924 148.309C744.51 147.723 745.233 147.43 746.092 147.43C746.952 147.43 747.674 147.723 748.26 148.309C748.846 148.882 749.139 149.578 749.139 150.398C749.139 151.206 748.846 151.902 748.26 152.488C747.674 153.074 746.952 153.367 746.092 153.367ZM761.385 177.43C759.458 177.43 757.818 177.15 756.463 176.59C755.109 176.03 754.048 175.255 753.28 174.266C752.525 173.263 752.069 172.104 751.913 170.789L751.893 170.613H757.459L757.499 170.789C757.681 171.609 758.091 172.247 758.729 172.703C759.367 173.159 760.252 173.387 761.385 173.387C762.114 173.387 762.733 173.302 763.241 173.133C763.749 172.951 764.139 172.697 764.413 172.371C764.699 172.046 764.842 171.655 764.842 171.199V171.18C764.842 170.62 764.64 170.171 764.237 169.832C763.833 169.493 763.117 169.207 762.088 168.973L758.534 168.23C757.18 167.944 756.047 167.534 755.135 167C754.237 166.453 753.56 165.783 753.104 164.988C752.648 164.181 752.42 163.257 752.42 162.215V162.195C752.42 160.854 752.778 159.695 753.495 158.719C754.211 157.742 755.226 156.987 756.542 156.453C757.87 155.906 759.419 155.633 761.19 155.633C763.039 155.633 764.608 155.932 765.897 156.531C767.199 157.117 768.195 157.911 768.885 158.914C769.588 159.917 769.959 161.03 769.999 162.254V162.449H764.745L764.725 162.293C764.634 161.538 764.282 160.913 763.67 160.418C763.071 159.91 762.245 159.656 761.19 159.656C760.539 159.656 759.972 159.747 759.491 159.93C759.009 160.112 758.638 160.372 758.377 160.711C758.117 161.036 757.987 161.427 757.987 161.883V161.902C757.987 162.254 758.071 162.573 758.241 162.859C758.423 163.133 758.722 163.374 759.139 163.582C759.556 163.79 760.116 163.973 760.819 164.129L764.374 164.891C766.574 165.346 768.15 166.03 769.1 166.941C770.064 167.853 770.545 169.077 770.545 170.613V170.633C770.545 172 770.155 173.191 769.374 174.207C768.592 175.223 767.512 176.017 766.131 176.59C764.764 177.15 763.182 177.43 761.385 177.43ZM779.588 177.332C778.195 177.332 776.971 177.065 775.917 176.531C774.862 175.984 774.035 175.236 773.436 174.285C772.85 173.322 772.557 172.228 772.557 171.004V170.965C772.557 169.689 772.876 168.602 773.514 167.703C774.152 166.792 775.077 166.076 776.288 165.555C777.499 165.034 778.97 164.715 780.702 164.598L788.866 164.09V167.645L781.561 168.113C780.467 168.178 779.634 168.439 779.061 168.895C778.488 169.337 778.202 169.93 778.202 170.672V170.711C778.202 171.479 778.495 172.085 779.081 172.527C779.667 172.957 780.454 173.172 781.444 173.172C782.29 173.172 783.045 173.009 783.709 172.684C784.387 172.345 784.914 171.889 785.292 171.316C785.682 170.73 785.877 170.073 785.877 169.344V162.996C785.877 162.072 785.584 161.342 784.999 160.809C784.413 160.262 783.56 159.988 782.44 159.988C781.372 159.988 780.526 160.21 779.901 160.652C779.276 161.095 778.892 161.655 778.749 162.332L778.709 162.508H773.495L773.514 162.273C773.618 160.984 774.042 159.839 774.784 158.836C775.539 157.833 776.581 157.052 777.909 156.492C779.25 155.919 780.838 155.633 782.674 155.633C784.484 155.633 786.053 155.926 787.381 156.512C788.709 157.085 789.738 157.898 790.467 158.953C791.209 160.008 791.581 161.238 791.581 162.645V177H785.877V173.875H785.76C785.37 174.591 784.862 175.21 784.237 175.73C783.625 176.238 782.928 176.635 782.147 176.922C781.366 177.195 780.513 177.332 779.588 177.332ZM795.272 177V156.062H800.975V159.578H801.092C801.522 158.38 802.251 157.423 803.28 156.707C804.321 155.991 805.545 155.633 806.952 155.633C807.928 155.633 808.807 155.802 809.588 156.141C810.37 156.479 811.027 156.967 811.561 157.605C812.108 158.243 812.492 159.025 812.713 159.949H812.831C813.143 159.064 813.612 158.302 814.237 157.664C814.875 157.013 815.624 156.512 816.483 156.16C817.355 155.809 818.306 155.633 819.334 155.633C820.702 155.633 821.9 155.926 822.928 156.512C823.957 157.098 824.758 157.918 825.331 158.973C825.903 160.027 826.19 161.264 826.19 162.684V177H820.487V164.109C820.487 163.302 820.35 162.618 820.077 162.059C819.816 161.499 819.432 161.076 818.924 160.789C818.43 160.503 817.811 160.359 817.069 160.359C816.353 160.359 815.721 160.522 815.174 160.848C814.64 161.173 814.224 161.629 813.924 162.215C813.625 162.801 813.475 163.484 813.475 164.266V177H807.987V163.934C807.987 163.178 807.85 162.534 807.577 162C807.303 161.466 806.913 161.062 806.405 160.789C805.91 160.503 805.311 160.359 804.608 160.359C803.892 160.359 803.26 160.529 802.713 160.867C802.167 161.206 801.737 161.674 801.424 162.273C801.125 162.872 800.975 163.569 800.975 164.363V177H795.272ZM829.92 177V156.062H835.624V177H829.92ZM832.772 153.367C831.913 153.367 831.19 153.074 830.604 152.488C830.018 151.902 829.725 151.206 829.725 150.398C829.725 149.578 830.018 148.882 830.604 148.309C831.19 147.723 831.913 147.43 832.772 147.43C833.631 147.43 834.354 147.723 834.94 148.309C835.526 148.882 835.819 149.578 835.819 150.398C835.819 151.206 835.526 151.902 834.94 152.488C834.354 153.074 833.631 153.367 832.772 153.367ZM848.065 177.43C846.138 177.43 844.497 177.15 843.143 176.59C841.789 176.03 840.728 175.255 839.959 174.266C839.204 173.263 838.749 172.104 838.592 170.789L838.573 170.613H844.139L844.178 170.789C844.361 171.609 844.771 172.247 845.409 172.703C846.047 173.159 846.932 173.387 848.065 173.387C848.794 173.387 849.413 173.302 849.92 173.133C850.428 172.951 850.819 172.697 851.092 172.371C851.379 172.046 851.522 171.655 851.522 171.199V171.18C851.522 170.62 851.32 170.171 850.917 169.832C850.513 169.493 849.797 169.207 848.768 168.973L845.213 168.23C843.859 167.944 842.726 167.534 841.815 167C840.917 166.453 840.239 165.783 839.784 164.988C839.328 164.181 839.1 163.257 839.1 162.215V162.195C839.1 160.854 839.458 159.695 840.174 158.719C840.89 157.742 841.906 156.987 843.221 156.453C844.549 155.906 846.099 155.633 847.87 155.633C849.719 155.633 851.288 155.932 852.577 156.531C853.879 157.117 854.875 157.911 855.565 158.914C856.268 159.917 856.639 161.03 856.678 162.254V162.449H851.424L851.405 162.293C851.314 161.538 850.962 160.913 850.35 160.418C849.751 159.91 848.924 159.656 847.87 159.656C847.219 159.656 846.652 159.747 846.17 159.93C845.689 160.112 845.318 160.372 845.057 160.711C844.797 161.036 844.667 161.427 844.667 161.883V161.902C844.667 162.254 844.751 162.573 844.92 162.859C845.103 163.133 845.402 163.374 845.819 163.582C846.236 163.79 846.795 163.973 847.499 164.129L851.053 164.891C853.254 165.346 854.829 166.03 855.78 166.941C856.743 167.853 857.225 169.077 857.225 170.613V170.633C857.225 172 856.834 173.191 856.053 174.207C855.272 175.223 854.191 176.017 852.811 176.59C851.444 177.15 849.862 177.43 848.065 177.43ZM866.268 177.332C864.875 177.332 863.651 177.065 862.596 176.531C861.542 175.984 860.715 175.236 860.116 174.285C859.53 173.322 859.237 172.228 859.237 171.004V170.965C859.237 169.689 859.556 168.602 860.194 167.703C860.832 166.792 861.756 166.076 862.967 165.555C864.178 165.034 865.65 164.715 867.381 164.598L875.545 164.09V167.645L868.241 168.113C867.147 168.178 866.314 168.439 865.741 168.895C865.168 169.337 864.881 169.93 864.881 170.672V170.711C864.881 171.479 865.174 172.085 865.76 172.527C866.346 172.957 867.134 173.172 868.124 173.172C868.97 173.172 869.725 173.009 870.389 172.684C871.066 172.345 871.594 171.889 871.971 171.316C872.362 170.73 872.557 170.073 872.557 169.344V162.996C872.557 162.072 872.264 161.342 871.678 160.809C871.092 160.262 870.239 159.988 869.12 159.988C868.052 159.988 867.206 160.21 866.581 160.652C865.956 161.095 865.571 161.655 865.428 162.332L865.389 162.508H860.174L860.194 162.273C860.298 160.984 860.721 159.839 861.463 158.836C862.219 157.833 863.26 157.052 864.588 156.492C865.93 155.919 867.518 155.633 869.354 155.633C871.164 155.633 872.733 155.926 874.061 156.512C875.389 157.085 876.418 157.898 877.147 158.953C877.889 160.008 878.26 161.238 878.26 162.645V177H872.557V173.875H872.44C872.049 174.591 871.542 175.21 870.917 175.73C870.305 176.238 869.608 176.635 868.827 176.922C868.045 177.195 867.193 177.332 866.268 177.332ZM884.92 177.332C884.035 177.332 883.286 177.026 882.674 176.414C882.062 175.802 881.756 175.053 881.756 174.168C881.756 173.283 882.062 172.534 882.674 171.922C883.286 171.31 884.035 171.004 884.92 171.004C885.806 171.004 886.555 171.31 887.167 171.922C887.778 172.534 888.084 173.283 888.084 174.168C888.084 175.053 887.778 175.802 887.167 176.414C886.555 177.026 885.806 177.332 884.92 177.332ZM891.6 183.836V156.062H897.303V159.715H897.44C897.818 158.868 898.312 158.139 898.924 157.527C899.549 156.915 900.272 156.447 901.092 156.121C901.926 155.796 902.837 155.633 903.827 155.633C905.597 155.633 907.121 156.069 908.397 156.941C909.673 157.801 910.656 159.044 911.346 160.672C912.036 162.299 912.381 164.246 912.381 166.512V166.531C912.381 168.797 912.036 170.743 911.346 172.371C910.669 173.999 909.699 175.249 908.436 176.121C907.173 176.993 905.663 177.43 903.905 177.43C902.915 177.43 901.997 177.267 901.151 176.941C900.305 176.616 899.569 176.16 898.944 175.574C898.319 174.975 897.811 174.259 897.42 173.426H897.303V183.836H891.6ZM901.952 172.703C902.902 172.703 903.722 172.456 904.413 171.961C905.103 171.453 905.637 170.737 906.014 169.812C906.392 168.888 906.581 167.794 906.581 166.531V166.512C906.581 165.236 906.392 164.135 906.014 163.211C905.637 162.286 905.096 161.583 904.393 161.102C903.703 160.607 902.889 160.359 901.952 160.359C901.027 160.359 900.213 160.613 899.51 161.121C898.807 161.616 898.26 162.326 897.87 163.25C897.479 164.161 897.284 165.255 897.284 166.531V166.551C897.284 167.801 897.479 168.888 897.87 169.812C898.273 170.737 898.82 171.453 899.51 171.961C900.213 172.456 901.027 172.703 901.952 172.703ZM915.35 177V156.062H921.053V159.5H921.17C921.717 158.302 922.525 157.358 923.592 156.668C924.66 155.978 925.982 155.633 927.557 155.633C929.862 155.633 931.639 156.329 932.889 157.723C934.152 159.103 934.784 161.023 934.784 163.484V177H929.081V164.656C929.081 163.289 928.755 162.234 928.104 161.492C927.466 160.737 926.509 160.359 925.233 160.359C924.387 160.359 923.651 160.555 923.026 160.945C922.401 161.323 921.913 161.857 921.561 162.547C921.222 163.237 921.053 164.044 921.053 164.969V177H915.35ZM948.182 184.266C946.268 184.266 944.595 183.999 943.163 183.465C941.743 182.944 940.611 182.234 939.764 181.336C938.931 180.438 938.423 179.428 938.241 178.309L938.221 178.133H943.768L943.827 178.27C944.061 178.777 944.549 179.227 945.292 179.617C946.034 180.008 946.997 180.203 948.182 180.203C949.653 180.203 950.773 179.852 951.542 179.148C952.31 178.445 952.694 177.508 952.694 176.336V173.133H952.577C952.212 173.862 951.717 174.493 951.092 175.027C950.467 175.561 949.732 175.978 948.885 176.277C948.052 176.564 947.127 176.707 946.112 176.707C944.367 176.707 942.857 176.29 941.581 175.457C940.318 174.624 939.341 173.432 938.651 171.883C937.974 170.32 937.635 168.458 937.635 166.297V166.277C937.635 164.051 937.98 162.143 938.67 160.555C939.374 158.966 940.363 157.749 941.639 156.902C942.915 156.056 944.439 155.633 946.209 155.633C947.199 155.633 948.104 155.796 948.924 156.121C949.745 156.447 950.461 156.909 951.073 157.508C951.698 158.107 952.199 158.816 952.577 159.637H952.694V156.062H958.397V176.414C958.397 177.964 957.98 179.324 957.147 180.496C956.327 181.681 955.148 182.605 953.612 183.27C952.088 183.934 950.278 184.266 948.182 184.266ZM948.084 172.527C949.022 172.527 949.836 172.28 950.526 171.785C951.216 171.29 951.75 170.587 952.127 169.676C952.518 168.764 952.713 167.684 952.713 166.434V166.414C952.713 165.164 952.518 164.09 952.127 163.191C951.75 162.28 951.209 161.583 950.506 161.102C949.816 160.607 949.009 160.359 948.084 160.359C947.147 160.359 946.327 160.607 945.624 161.102C944.92 161.583 944.38 162.273 944.002 163.172C943.625 164.07 943.436 165.151 943.436 166.414V166.434C943.436 167.684 943.625 168.764 944.002 169.676C944.38 170.587 944.92 171.29 945.624 171.785C946.327 172.28 947.147 172.527 948.084 172.527Z" fill="#351E1F"/>
<rect x="220" y="75" width="546" height="44" fill="#E5D2AB"/>
<mask id="path-22-outside-1_20_2" maskUnits="userSpaceOnUse" x="237" y="29" width="536" height="80" fill="black">
<rect fill="white" x="237" y="29" width="536" height="80"/>
<path d="M247 99V39H271V51H295V39H319V99H295V75H271V99H247ZM343 99V39H367V99H343ZM391 99V87H427V75H403V63H391V51H403V39H451V51H415V63H439V75H451V87H439V99H391ZM475 99V51H487V39H523V51H535V99H511V75H499V99H475ZM499 63H511V51.48H499V63ZM559 99V87H583V99H559ZM607 99V39H655V51H667V63H655V75H631V99H607ZM631 63H642.52V51H631V63ZM715 99V63H703V51H691V39H715V51H739V39H763V51H751V63H739V99H715Z"/>
</mask>
<path d="M247 99V39H271V51H295V39H319V99H295V75H271V99H247ZM343 99V39H367V99H343ZM391 99V87H427V75H403V63H391V51H403V39H451V51H415V63H439V75H451V87H439V99H391ZM475 99V51H487V39H523V51H535V99H511V75H499V99H475ZM499 63H511V51.48H499V63ZM559 99V87H583V99H559ZM607 99V39H655V51H667V63H655V75H631V99H607ZM631 63H642.52V51H631V63ZM715 99V63H703V51H691V39H715V51H739V39H763V51H751V63H739V99H715Z" fill="#E5D2AB"/>
<path d="M247 99H237V109H247V99ZM247 39V29H237V39H247ZM271 39H281V29H271V39ZM271 51H261V61H271V51ZM295 51V61H305V51H295ZM295 39V29H285V39H295ZM319 39H329V29H319V39ZM319 99V109H329V99H319ZM295 99H285V109H295V99ZM295 75H305V65H295V75ZM271 75V65H261V75H271ZM271 99V109H281V99H271ZM247 99H257V39H247H237V99H247ZM247 39V49H271V39V29H247V39ZM271 39H261V51H271H281V39H271ZM271 51V61H295V51V41H271V51ZM295 51H305V39H295H285V51H295ZM295 39V49H319V39V29H295V39ZM319 39H309V99H319H329V39H319ZM319 99V89H295V99V109H319V99ZM295 99H305V75H295H285V99H295ZM295 75V65H271V75V85H295V75ZM271 75H261V99H271H281V75H271ZM271 99V89H247V99V109H271V99ZM343 99H333V109H343V99ZM343 39V29H333V39H343ZM367 39H377V29H367V39ZM367 99V109H377V99H367ZM343 99H353V39H343H333V99H343ZM343 39V49H367V39V29H343V39ZM367 39H357V99H367H377V39H367ZM367 99V89H343V99V109H367V99ZM391 99H381V109H391V99ZM391 87V77H381V87H391ZM427 87V97H437V87H427ZM427 75H437V65H427V75ZM403 75H393V85H403V75ZM403 63H413V53H403V63ZM391 63H381V73H391V63ZM391 51V41H381V51H391ZM403 51V61H413V51H403ZM403 39V29H393V39H403ZM451 39H461V29H451V39ZM451 51V61H461V51H451ZM415 51V41H405V51H415ZM415 63H405V73H415V63ZM439 63H449V53H439V63ZM439 75H429V85H439V75ZM451 75H461V65H451V75ZM451 87V97H461V87H451ZM439 87V77H429V87H439ZM439 99V109H449V99H439ZM391 99H401V87H391H381V99H391ZM391 87V97H427V87V77H391V87ZM427 87H437V75H427H417V87H427ZM427 75V65H403V75V85H427V75ZM403 75H413V63H403H393V75H403ZM403 63V53H391V63V73H403V63ZM391 63H401V51H391H381V63H391ZM391 51V61H403V51V41H391V51ZM403 51H413V39H403H393V51H403ZM403 39V49H451V39V29H403V39ZM451 39H441V51H451H461V39H451ZM451 51V41H415V51V61H451V51ZM415 51H405V63H415H425V51H415ZM415 63V73H439V63V53H415V63ZM439 63H429V75H439H449V63H439ZM439 75V85H451V75V65H439V75ZM451 75H441V87H451H461V75H451ZM451 87V77H439V87V97H451V87ZM439 87H429V99H439H449V87H439ZM439 99V89H391V99V109H439V99ZM475 99H465V109H475V99ZM475 51V41H465V51H475ZM487 51V61H497V51H487ZM487 39V29H477V39H487ZM523 39H533V29H523V39ZM523 51H513V61H523V51ZM535 51H545V41H535V51ZM535 99V109H545V99H535ZM511 99H501V109H511V99ZM511 75H521V65H511V75ZM499 75V65H489V75H499ZM499 99V109H509V99H499ZM499 63H489V73H499V63ZM511 63V73H521V63H511ZM511 51.48H521V41.48H511V51.48ZM499 51.48V41.48H489V51.48H499ZM475 99H485V51H475H465V99H475ZM475 51V61H487V51V41H475V51ZM487 51H497V39H487H477V51H487ZM487 39V49H523V39V29H487V39ZM523 39H513V51H523H533V39H523ZM523 51V61H535V51V41H523V51ZM535 51H525V99H535H545V51H535ZM535 99V89H511V99V109H535V99ZM511 99H521V75H511H501V99H511ZM511 75V65H499V75V85H511V75ZM499 75H489V99H499H509V75H499ZM499 99V89H475V99V109H499V99ZM499 63V73H511V63V53H499V63ZM511 63H521V51.48H511H501V63H511ZM511 51.48V41.48H499V51.48V61.48H511V51.48ZM499 51.48H489V63H499H509V51.48H499ZM559 99H549V109H559V99ZM559 87V77H549V87H559ZM583 87H593V77H583V87ZM583 99V109H593V99H583ZM559 99H569V87H559H549V99H559ZM559 87V97H583V87V77H559V87ZM583 87H573V99H583H593V87H583ZM583 99V89H559V99V109H583V99ZM607 99H597V109H607V99ZM607 39V29H597V39H607ZM655 39H665V29H655V39ZM655 51H645V61H655V51ZM667 51H677V41H667V51ZM667 63V73H677V63H667ZM655 63V53H645V63H655ZM655 75V85H665V75H655ZM631 75V65H621V75H631ZM631 99V109H641V99H631ZM631 63H621V73H631V63ZM642.52 63V73H652.52V63H642.52ZM642.52 51H652.52V41H642.52V51ZM631 51V41H621V51H631ZM607 99H617V39H607H597V99H607ZM607 39V49H655V39V29H607V39ZM655 39H645V51H655H665V39H655ZM655 51V61H667V51V41H655V51ZM667 51H657V63H667H677V51H667ZM667 63V53H655V63V73H667V63ZM655 63H645V75H655H665V63H655ZM655 75V65H631V75V85H655V75ZM631 75H621V99H631H641V75H631ZM631 99V89H607V99V109H631V99ZM631 63V73H642.52V63V53H631V63ZM642.52 63H652.52V51H642.52H632.52V63H642.52ZM642.52 51V41H631V51V61H642.52V51ZM631 51H621V63H631H641V51H631ZM715 99H705V109H715V99ZM715 63H725V53H715V63ZM703 63H693V73H703V63ZM703 51H713V41H703V51ZM691 51H681V61H691V51ZM691 39V29H681V39H691ZM715 39H725V29H715V39ZM715 51H705V61H715V51ZM739 51V61H749V51H739ZM739 39V29H729V39H739ZM763 39H773V29H763V39ZM763 51V61H773V51H763ZM751 51V41H741V51H751ZM751 63V73H761V63H751ZM739 63V53H729V63H739ZM739 99V109H749V99H739ZM715 99H725V63H715H705V99H715ZM715 63V53H703V63V73H715V63ZM703 63H713V51H703H693V63H703ZM703 51V41H691V51V61H703V51ZM691 51H701V39H691H681V51H691ZM691 39V49H715V39V29H691V39ZM715 39H705V51H715H725V39H715ZM715 51V61H739V51V41H715V51ZM739 51H749V39H739H729V51H739ZM739 39V49H763V39V29H739V39ZM763 39H753V51H763H773V39H763ZM763 51V41H751V51V61H763V51ZM751 51H741V63H751H761V51H751ZM751 63V53H739V63V73H751V63ZM739 63H729V99H739H749V63H739ZM739 99V89H715V99V109H739V99Z" fill="#5F371B" mask="url(#path-22-outside-1_20_2)"/>
<defs>
<filter id="filter0_i_20_2" x="146" y="142" width="162" height="54" filterUnits="userSpaceOnUse" color-interpolation-filters="sRGB">
<feFlood flood-opacity="0" result="BackgroundImageFix"/>
<feBlend mode="normal" in="SourceGraphic" in2="BackgroundImageFix" result="shape"/>
<feColorMatrix in="SourceAlpha" type="matrix" values="0 0 0 0 0 0 0 0 0 0 0 0 0 0 0 0 0 0 127 0" result="hardAlpha"/>
<feOffset dy="4"/>
<feGaussianBlur stdDeviation="2"/>
<feComposite in2="hardAlpha" operator="arithmetic" k2="-1" k3="1"/>
<feColorMatrix type="matrix" values="0 0 0 0 0 0 0 0 0 0 0 0 0 0 0 0 0 0 0.25 0"/>
<feBlend mode="normal" in2="shape" result="effect1_innerShadow_20_2"/>
</filter>
<filter id="filter1_i_20_2" x="416" y="143" width="180.093" height="54" filterUnits="userSpaceOnUse" color-interpolation-filters="sRGB">
<feFlood flood-opacity="0" result="BackgroundImageFix"/>
<feBlend mode="normal" in="SourceGraphic" in2="BackgroundImageFix" result="shape"/>
<feColorMatrix in="SourceAlpha" type="matrix" values="0 0 0 0 0 0 0 0 0 0 0 0 0 0 0 0 0 0 127 0" result="hardAlpha"/>
<feOffset dy="4"/>
<feGaussianBlur stdDeviation="2"/>
<feComposite in2="hardAlpha" operator="arithmetic" k2="-1" k3="1"/>
<feColorMatrix type="matrix" values="0 0 0 0 0 0 0 0 0 0 0 0 0 0 0 0 0 0 0.25 0"/>
<feBlend mode="normal" in2="shape" result="effect1_innerShadow_20_2"/>
</filter>
<filter id="filter2_i_20_2" x="703" y="141" width="265" height="54" filterUnits="userSpaceOnUse" color-interpolation-filters="sRGB">
<feFlood flood-opacity="0" result="BackgroundImageFix"/>
<feBlend mode="normal" in="SourceGraphic" in2="BackgroundImageFix" result="shape"/>
<feColorMatrix in="SourceAlpha" type="matrix" values="0 0 0 0 0 0 0 0 0 0 0 0 0 0 0 0 0 0 127 0" result="hardAlpha"/>
<feOffset dy="4"/>
<feGaussianBlur stdDeviation="2"/>
<feComposite in2="hardAlpha" operator="arithmetic" k2="-1" k3="1"/>
<feColorMatrix type="matrix" values="0 0 0 0 0 0 0 0 0 0 0 0 0 0 0 0 0 0 0.25 0"/>
<feBlend mode="normal" in2="shape" result="effect1_innerShadow_20_2"/>
</filter>
<radialGradient id="paint0_radial_20_2" cx="0" cy="0" r="1" gradientUnits="userSpaceOnUse" gradientTransform="translate(637.57 211.064) scale(110.942 110.941)">
<stop stop-color="#FFDD55"/>
<stop offset="0.328" stop-color="#FF543F"/>
<stop offset="0.3484" stop-color="#FC5245"/>
<stop offset="0.5039" stop-color="#E64771"/>
<stop offset="0.6433" stop-color="#D53E91"/>
<stop offset="0.7606" stop-color="#CC39A4"/>
<stop offset="0.8414" stop-color="#C837AB"/>
</radialGradient>
<radialGradient id="paint1_radial_20_2" cx="0" cy="0" r="1" gradientUnits="userSpaceOnUse" gradientTransform="translate(618.806 120.889) scale(73.6665 49.0839)">
<stop stop-color="#4168C9"/>
<stop offset="0.9988" stop-color="#4168C9" stop-opacity="0"/>
</radialGradient>
</defs>
</svg>
